<svg width="1021" height="356" viewBox="0 0 1021 356" fill="none" xmlns="http://www.w3.org/2000/svg">
<mask id="mask0_949_632" style="mask-type:alpha" maskUnits="userSpaceOnUse" x="0" y="0" width="1021" height="356">
<rect width="1021" height="356" fill="black"/>
</mask>
<g mask="url(#mask0_949_632)">
<path d="M27 278.046L28.0241 202.941L97.5705 194L96.5464 269.105L27 278.046Z" fill="#1A80FD" stroke="black" stroke-width="1.5" stroke-linecap="round" stroke-linejoin="round"/>
<path d="M97.571 194L274.325 292.868L273.301 367.975L96.5469 269.105L97.571 194Z" fill="white"/>
<path fill-rule="evenodd" clip-rule="evenodd" d="M97.571 194L274.325 292.868L273.301 367.975L96.5469 269.105L97.571 194V194Z" stroke="black" stroke-width="1.5" stroke-linecap="round" stroke-linejoin="round"/>
<path d="M96.5464 269.104L273.3 367.974L203.756 376.912L27 278.045L96.5464 269.104Z" fill="white"/>
<path fill-rule="evenodd" clip-rule="evenodd" d="M96.5464 269.104L273.3 367.974L203.756 376.912L27 278.045L96.5464 269.104V269.104Z" stroke="black" stroke-width="1.5" stroke-linecap="round" stroke-linejoin="round"/>
<path d="M171.73 271.457C177.244 265.29 183.817 260.159 191.138 256.309" stroke="black" stroke-width="1.5"/>
<path d="M278.476 326.056V236.518V326.056Z" fill="#1AB995"/>
<path d="M278.476 326.056V236.518" stroke="black" stroke-width="1.5" stroke-linecap="round" stroke-linejoin="round"/>
<circle cx="978.5" cy="340.5" r="85.5" fill="#FCB006"/>
<mask id="mask1_949_632" style="mask-type:alpha" maskUnits="userSpaceOnUse" x="893" y="254" width="172" height="172">
<circle cx="978.668" cy="340.238" r="85.3476" fill="white"/>
</mask>
<g mask="url(#mask1_949_632)">
<path d="M745.102 370.407L1214.11 345.951" stroke="white" stroke-width="1.5"/>
<path d="M744.166 352.465L1213.17 328.01" stroke="white" stroke-width="1.5"/>
<path d="M743.232 334.526L1212.24 310.07" stroke="white" stroke-width="1.5"/>
<path d="M742.295 316.586L1211.3 292.131" stroke="white" stroke-width="1.5"/>
<path d="M741.361 298.647L1210.37 274.191" stroke="white" stroke-width="1.5"/>
<path d="M740.426 280.707L1209.43 256.252" stroke="white" stroke-width="1.5"/>
<path d="M739.488 262.766L1208.49 238.311" stroke="white" stroke-width="1.5"/>
</g>
<circle cx="978.5" cy="340.5" r="85.5" stroke="black" stroke-width="1.5" stroke-linecap="round" stroke-linejoin="round"/>
<path d="M965 231.171C959.901 230.855 954.785 230.977 949.708 231.537C948.83 238.784 948.535 246.089 948.825 253.382C945.698 246.761 943.511 239.744 942.326 232.53C931.119 234.346 920.319 238.09 910.417 243.592C909.27 252.637 908.843 261.758 909.142 270.869C906.021 263.778 903.776 256.34 902.455 248.716C888.267 259.032 875.528 275.272 869.239 300.805C863.245 325.141 864.226 338.747 868.349 346C925.823 315.465 965 231.171 965 231.171Z" fill="#1AB995" stroke="black" stroke-width="1.5" stroke-linecap="round" stroke-linejoin="round"/>
<path d="M964.786 231C964.786 231 925.554 315.809 868 346.53C876.867 362.201 900.262 348.35 900.262 348.35C914.384 349.826 930.912 343.059 944.109 328.9C941.383 326.565 938.878 323.989 936.624 321.202C940.808 322.186 945.101 322.644 949.4 322.565C952.892 317.894 955.896 312.881 958.363 307.604C957.203 307.008 956.019 306.347 954.812 305.602C956.469 305.352 958.109 305.002 959.724 304.555C963.409 295.804 965.869 286.592 967.033 277.176C961.473 277.196 955.956 276.216 950.746 274.284C956.669 272.893 962.408 270.823 967.849 268.114C968.415 255.664 967.386 243.192 964.786 231Z" fill="#1AB995"/>
<mask id="mask2_949_632" style="mask-type:alpha" maskUnits="userSpaceOnUse" x="868" y="230" width="100" height="125">
<path fill-rule="evenodd" clip-rule="evenodd" d="M964.721 230.988C964.721 230.988 925.587 316.074 868.178 346.896C877.023 362.617 900.358 348.721 900.358 348.721C914.445 350.202 930.931 343.413 944.095 329.207C941.377 326.866 938.877 324.281 936.629 321.484C940.803 322.472 945.085 322.931 949.373 322.852C952.857 318.166 955.852 313.136 958.314 307.842C957.157 307.244 955.976 306.581 954.771 305.833C956.424 305.583 958.061 305.232 959.671 304.783C963.347 296.004 965.8 286.762 966.962 277.315C961.416 277.335 955.912 276.352 950.716 274.414C956.623 273.018 962.349 270.941 967.776 268.224C968.34 255.732 967.314 243.22 964.721 230.988Z" fill="white"/>
</mask>
<g mask="url(#mask2_949_632)">
<path d="M958.54 243.215C913.489 355.154 931.753 344.559 964.721 338.084C997.688 331.608 939.066 364.305 936.645 365.33C934.224 366.355 877.156 363.894 879.823 359.524C882.49 355.153 901.689 268.732 901.689 268.732L943.823 251.552" fill="#0FA379"/>
</g>
<path fill-rule="evenodd" clip-rule="evenodd" d="M964.786 231C964.786 231 925.554 315.809 868 346.53C876.867 362.2 900.262 348.35 900.262 348.35C914.384 349.826 930.912 343.059 944.109 328.9C941.383 326.565 938.878 323.989 936.624 321.202C940.808 322.186 945.101 322.644 949.4 322.565C952.892 317.894 955.896 312.881 958.363 307.604C957.203 307.008 956.019 306.347 954.812 305.602C956.469 305.352 958.109 305.002 959.724 304.555C963.409 295.804 965.869 286.592 967.033 277.176C961.473 277.196 955.956 276.216 950.746 274.284C956.669 272.893 962.408 270.823 967.849 268.114C968.415 255.664 967.386 243.192 964.786 231V231Z" stroke="black" stroke-width="1.5" stroke-linecap="round" stroke-linejoin="round"/>
<path d="M702 289.091C705.976 288.923 709.959 288.988 713.928 289.285C714.612 293.107 714.843 296.996 714.617 300.872C716.979 297.536 718.699 293.784 719.686 289.812C728.192 290.721 736.553 292.692 744.574 295.679C745.468 300.446 745.802 305.303 745.569 310.148C747.936 306.544 749.698 302.574 750.785 298.397C761.851 303.869 771.788 312.483 776.694 326.027C781.369 338.936 780.604 346.153 777.387 350C732.558 333.802 702 289.091 702 289.091Z" fill="#1AB995"/>
<mask id="mask3_949_632" style="mask-type:alpha" maskUnits="userSpaceOnUse" x="701" y="288" width="79" height="63">
<path fill-rule="evenodd" clip-rule="evenodd" d="M701.129 288.947C705.145 288.778 709.168 288.843 713.177 289.142C713.867 292.985 714.101 296.896 713.872 300.793C716.259 297.438 717.995 293.666 718.992 289.672C727.584 290.586 736.029 292.568 744.131 295.572C745.034 300.365 745.371 305.248 745.136 310.12C747.527 306.496 749.307 302.505 750.404 298.305C761.582 303.807 771.618 312.468 776.573 326.087C781.296 339.066 780.522 346.324 777.274 350.192C731.994 333.905 701.129 288.947 701.129 288.947Z" fill="white"/>
</mask>
<g mask="url(#mask3_949_632)">
<path d="M729.424 284.411C737.417 327.077 717.923 334.029 777.273 350.192C836.623 366.356 805.157 292.689 805.157 292.689L688.891 261.553" fill="#0FA379"/>
</g>
<path fill-rule="evenodd" clip-rule="evenodd" d="M702 289.091C705.976 288.923 709.959 288.988 713.928 289.285C714.612 293.107 714.843 296.996 714.617 300.872C716.979 297.536 718.699 293.784 719.686 289.812C728.192 290.721 736.553 292.692 744.574 295.679C745.468 300.446 745.802 305.303 745.569 310.148C747.936 306.544 749.698 302.574 750.785 298.397C761.851 303.869 771.788 312.483 776.694 326.027C781.369 338.936 780.604 346.153 777.387 350C732.558 333.802 702 289.091 702 289.091Z" stroke="black" stroke-width="1.5" stroke-linecap="round" stroke-linejoin="round"/>
<path d="M701.535 289C701.535 289 732.53 333.817 778 350.053C770.995 358.334 752.512 351.014 752.512 351.014C740.126 351.583 727.912 347.959 717.872 340.735C719.956 339.549 721.935 338.188 723.786 336.667C720.448 337.191 717.071 337.432 713.692 337.388C711.033 335.031 708.657 332.378 706.611 329.481C707.527 329.166 708.462 328.817 709.416 328.424C709.416 328.424 707.904 328.294 705.536 327.87C702.708 323.453 700.748 318.543 699.761 313.402C704.097 313.418 708.418 312.905 712.628 311.873C708.042 311.157 703.522 310.067 699.116 308.613C698.675 301.983 699.495 295.329 701.535 289Z" fill="#0FA379" stroke="black" stroke-width="1.5" stroke-linecap="round" stroke-linejoin="round"/>
<rect x="744" y="235" width="168" height="30" fill="white"/>
<mask id="mask4_949_632" style="mask-type:alpha" maskUnits="userSpaceOnUse" x="744" y="234" width="169" height="32">
<rect x="744.273" y="234.48" width="167.793" height="30.5954" fill="white"/>
</mask>
<g mask="url(#mask4_949_632)">
<path d="M741.612 244.76L889.311 245.234L738.934 246.651L741.612 244.76Z" fill="#D6DCF2"/>
<path d="M730.657 257.516L878.356 257.988L727.979 259.407L730.657 257.516Z" fill="#D6DCF2"/>
</g>
<rect x="744" y="235" width="168" height="30" stroke="black" stroke-width="1.5" stroke-linecap="round" stroke-linejoin="round"/>
<path d="M916.999 234.667C917.002 232.644 915.368 231.003 913.349 231H741.804C739.791 230.972 738.114 232.54 738.002 234.553C737.971 235.544 738.341 236.505 739.029 237.217C739.717 237.929 740.663 238.331 741.652 238.332H906.735C907.846 238.333 908.911 238.777 909.696 239.565C910.481 240.353 910.921 241.422 910.92 242.535V257.464C910.921 258.578 910.481 259.646 909.696 260.435C908.911 261.223 907.846 261.666 906.735 261.668H741.805C739.792 261.64 738.115 263.207 738.003 265.221C737.972 266.211 738.342 267.172 739.029 267.884C739.717 268.596 740.663 268.999 741.652 269H913.35C915.368 268.997 917.002 267.356 917 265.334V235.11C917 235.036 916.993 234.962 916.989 234.889C916.993 234.815 916.999 234.742 916.999 234.667Z" fill="#FCB006"/>
<mask id="mask5_949_632" style="mask-type:alpha" maskUnits="userSpaceOnUse" x="738" y="230" width="180" height="39">
<path fill-rule="evenodd" clip-rule="evenodd" d="M917.136 234.478C917.138 232.461 915.505 230.823 913.487 230.821H742.023C740.011 230.793 738.335 232.356 738.223 234.365C738.191 235.353 738.562 236.312 739.249 237.022C739.937 237.732 740.882 238.134 741.871 238.135H906.876C907.986 238.136 909.051 238.579 909.836 239.365C910.62 240.151 911.06 241.217 911.059 242.328V257.222C911.06 258.333 910.62 259.398 909.836 260.185C909.051 260.971 907.986 261.414 906.876 261.415H742.024C740.012 261.387 738.336 262.951 738.224 264.96C738.192 265.948 738.562 266.906 739.25 267.617C739.937 268.327 740.883 268.729 741.871 268.73H913.488C915.505 268.727 917.139 267.09 917.136 265.072V234.921C917.136 234.846 917.129 234.773 917.125 234.7C917.129 234.626 917.136 234.553 917.136 234.478Z" fill="white"/>
</mask>
<g mask="url(#mask5_949_632)">
<path d="M712.623 268.729C912.653 272.386 914.776 272.932 917.138 243.268C918.932 220.738 936.644 308.09 936.644 308.09L828.167 303.887L723.29 277.748" fill="#FDD504"/>
</g>
<path fill-rule="evenodd" clip-rule="evenodd" d="M916.999 234.667C917.002 232.644 915.368 231.003 913.349 231H741.804C739.791 230.972 738.114 232.54 738.002 234.553C737.971 235.544 738.341 236.505 739.029 237.217C739.717 237.929 740.663 238.331 741.652 238.332H906.735C907.846 238.333 908.911 238.777 909.696 239.565C910.481 240.353 910.921 241.422 910.92 242.535V257.464C910.921 258.578 910.481 259.646 909.696 260.435C908.911 261.223 907.846 261.666 906.735 261.668H741.805C739.792 261.64 738.115 263.207 738.003 265.221C737.972 266.211 738.342 267.172 739.029 267.884C739.717 268.596 740.663 268.999 741.652 269H913.35C915.368 268.997 917.002 267.356 917 265.334V235.11C917 235.036 916.993 234.962 916.989 234.889C916.993 234.815 916.999 234.742 916.999 234.667Z" stroke="black" stroke-width="1.5" stroke-linecap="round" stroke-linejoin="round"/>
<rect x="764" y="273" width="168" height="35" fill="white"/>
<mask id="mask6_949_632" style="mask-type:alpha" maskUnits="userSpaceOnUse" x="763" y="272" width="169" height="37">
<rect x="763.779" y="272.938" width="167.793" height="35.1582" fill="white"/>
</mask>
<g mask="url(#mask6_949_632)">
<path d="M761.12 284.75L908.818 285.295L758.441 286.923L761.12 284.75Z" fill="#D6DCF2"/>
<path d="M750.165 299.41L897.863 299.953L747.486 301.584L750.165 299.41Z" fill="#D6DCF2"/>
</g>
<rect x="764" y="273" width="168" height="35" stroke="black" stroke-width="1.5" stroke-linecap="round" stroke-linejoin="round"/>
<path d="M936.991 273.149C937.133 271.012 935.505 269.161 933.341 269H761.819C759.663 269.115 757.984 270.891 758.017 273.021C757.918 274.067 758.249 275.109 758.935 275.912C759.62 276.716 760.604 277.215 761.666 277.297H926.726C929.207 277.482 931.075 279.604 930.912 282.053V298.947C931.075 301.396 929.207 303.518 926.726 303.703H761.819C759.663 303.818 757.985 305.593 758.018 307.724C757.919 308.77 758.249 309.811 758.935 310.615C759.621 311.419 760.604 311.918 761.666 312H933.341C935.504 311.839 937.133 309.988 936.991 307.851V273.651C936.991 273.565 936.984 273.483 936.98 273.4C936.984 273.317 936.991 273.233 936.991 273.149Z" fill="#1B80FD"/>
<mask id="mask7_949_632" style="mask-type:alpha" maskUnits="userSpaceOnUse" x="757" y="268" width="180" height="45">
<path fill-rule="evenodd" clip-rule="evenodd" d="M936.642 272.935C936.784 270.771 935.156 268.896 932.993 268.732H761.528C759.373 268.849 757.695 270.648 757.728 272.806C757.629 273.866 757.96 274.921 758.645 275.736C759.331 276.55 760.314 277.055 761.375 277.138H926.38C928.86 277.325 930.727 279.475 930.565 281.957V299.072C930.727 301.554 928.86 303.704 926.38 303.891H761.529C759.374 304.008 757.696 305.806 757.728 307.964C757.63 309.024 757.96 310.079 758.645 310.894C759.331 311.708 760.315 312.214 761.376 312.297H932.992C935.155 312.133 936.783 310.258 936.642 308.094V273.444C936.642 273.358 936.634 273.275 936.63 273.19C936.635 273.106 936.642 273.021 936.642 272.935Z" fill="white"/>
</mask>
<g mask="url(#mask7_949_632)">
<path d="M742.023 311.589C941.687 311.294 936.642 312.531 936.642 292.987C936.642 273.443 953.42 335.623 953.42 335.623L783.821 326.654L754.488 320.192" fill="#1D62FC"/>
</g>
<path fill-rule="evenodd" clip-rule="evenodd" d="M936.991 273.149C937.133 271.012 935.505 269.161 933.341 269H761.819C759.663 269.115 757.984 270.891 758.017 273.021C757.918 274.067 758.249 275.109 758.935 275.912C759.62 276.716 760.604 277.215 761.666 277.297H926.726C929.207 277.482 931.075 279.604 930.912 282.053V298.947C931.075 301.396 929.207 303.518 926.726 303.703H761.819C759.663 303.818 757.985 305.593 758.018 307.724C757.919 308.77 758.249 309.811 758.935 310.615C759.621 311.419 760.604 311.918 761.666 312H933.341C935.504 311.839 937.133 309.988 936.991 307.851V273.651C936.991 273.565 936.984 273.483 936.98 273.4C936.984 273.317 936.991 273.233 936.991 273.149Z" stroke="black" stroke-width="1.5" stroke-linecap="round" stroke-linejoin="round"/>
<rect x="744" y="316" width="168" height="35" fill="white"/>
<mask id="mask8_949_632" style="mask-type:alpha" maskUnits="userSpaceOnUse" x="744" y="315" width="169" height="36">
<rect x="744.273" y="315.795" width="167.793" height="35.1582" fill="white"/>
</mask>
<g mask="url(#mask8_949_632)">
<path d="M741.612 327.607L889.311 328.15L738.934 329.781L741.612 327.607Z" fill="#D6DCF2"/>
<path d="M730.657 342.264L878.356 342.808L727.979 344.437L730.657 342.264Z" fill="#D6DCF2"/>
</g>
<rect x="744" y="316" width="168" height="35" stroke="black" stroke-width="1.5" stroke-linecap="round" stroke-linejoin="round"/>
<path d="M916.991 315.245C917.133 313.059 915.505 311.165 913.341 311H741.819C739.663 311.118 737.984 312.935 738.017 315.114C737.918 316.185 738.249 317.251 738.935 318.073C739.621 318.896 740.605 319.406 741.667 319.49H906.727C909.208 319.679 911.075 321.85 910.912 324.357V341.643C911.075 344.149 909.208 346.32 906.727 346.51H741.82C739.664 346.628 737.986 348.444 738.019 350.624C737.92 351.695 738.25 352.76 738.936 353.583C739.622 354.406 740.605 354.916 741.667 355H913.342C915.505 354.835 917.133 352.941 916.991 350.755V315.759C916.991 315.671 916.984 315.588 916.98 315.502C916.984 315.417 916.991 315.332 916.991 315.245Z" fill="#1A80FD"/>
<mask id="mask9_949_632" style="mask-type:alpha" maskUnits="userSpaceOnUse" x="738" y="311" width="180" height="45">
<path fill-rule="evenodd" clip-rule="evenodd" d="M917.139 315.795C917.281 313.63 915.654 311.756 913.491 311.592H742.027C739.871 311.709 738.193 313.507 738.226 315.666C738.127 316.726 738.458 317.781 739.144 318.595C739.829 319.409 740.813 319.915 741.875 319.998H906.879C909.359 320.185 911.225 322.335 911.063 324.816V341.931C911.225 344.413 909.359 346.562 906.879 346.75H742.028C739.873 346.867 738.195 348.665 738.228 350.823C738.129 351.883 738.459 352.939 739.144 353.753C739.83 354.567 740.814 355.073 741.875 355.156H913.491C915.654 354.992 917.282 353.117 917.14 350.953V316.303C917.14 316.217 917.133 316.134 917.129 316.049C917.133 315.965 917.139 315.881 917.139 315.795Z" fill="white"/>
</mask>
<g mask="url(#mask9_949_632)">
<path d="M730.492 359.526C732.092 358.873 839.178 355.156 864.835 355.156C890.491 355.156 917.641 349.785 918.066 338.292C918.491 326.799 929.958 358.338 929.958 358.338L924.358 363.684L845.158 362.882" fill="#1D62FC"/>
</g>
<path fill-rule="evenodd" clip-rule="evenodd" d="M916.991 315.245C917.133 313.059 915.505 311.165 913.341 311H741.819C739.663 311.118 737.984 312.935 738.017 315.114C737.918 316.185 738.249 317.251 738.935 318.073C739.621 318.896 740.605 319.406 741.667 319.49H906.727C909.208 319.679 911.075 321.85 910.912 324.357V341.643C911.075 344.149 909.208 346.32 906.727 346.51H741.82C739.664 346.628 737.986 348.444 738.019 350.624C737.92 351.695 738.25 352.76 738.936 353.583C739.622 354.406 740.605 354.916 741.667 355H913.342C915.505 354.835 917.133 352.941 916.991 350.755V315.759C916.991 315.671 916.984 315.588 916.98 315.502C916.984 315.417 916.991 315.332 916.991 315.245Z" stroke="black" stroke-width="1.5" stroke-linecap="round" stroke-linejoin="round"/>
<path d="M824 246L817 252" stroke="black" stroke-width="1.5" stroke-linecap="round" stroke-linejoin="round"/>
<path d="M782 332L778 338" stroke="black" stroke-width="1.5" stroke-linecap="round" stroke-linejoin="round"/>
<path d="M759.933 173.078C766.077 162.056 780.873 135.549 787 134L786.443 162.569L771.877 181.224C770.55 182.926 768.543 183.943 766.402 183.998C764.261 184.053 762.206 183.141 760.795 181.51C758.769 179.169 758.424 175.789 759.933 173.078Z" fill="#FDD504"/>
<mask id="mask10_949_632" style="mask-type:alpha" maskUnits="userSpaceOnUse" x="759" y="134" width="28" height="50">
<path fill-rule="evenodd" clip-rule="evenodd" d="M759.965 172.911C766.09 162.055 780.84 135.947 786.948 134.422L786.392 162.56L771.872 180.935C770.549 182.611 768.549 183.612 766.414 183.666C764.279 183.72 762.231 182.822 760.825 181.216C758.805 178.91 758.461 175.581 759.965 172.911Z" fill="white"/>
</mask>
<g mask="url(#mask10_949_632)">
<path d="M785.97 142.332C775.101 147.526 782.964 166.899 772.714 179.869C763.175 191.94 774.792 185.782 774.792 185.782C774.792 185.782 791.301 168.044 791.829 167.779C792.357 167.514 788.341 150.571 788.341 150.571L788.989 144.349" fill="url(#paint0_linear_949_632)"/>
</g>
<path fill-rule="evenodd" clip-rule="evenodd" d="M759.933 173.078C766.077 162.056 780.873 135.549 787 134L786.443 162.569L771.877 181.224C770.55 182.926 768.543 183.943 766.402 183.998C764.261 184.053 762.206 183.141 760.795 181.51V181.51C758.769 179.169 758.424 175.789 759.933 173.078V173.078Z" stroke="black" stroke-width="1.5" stroke-linecap="round" stroke-linejoin="round"/>
<path d="M759 353C759 353 760.65 347.263 769.314 347.263C777.978 347.263 783.135 339.921 783.135 339.921V257.772L786.435 177L805 186.637C805 201.323 791.954 340.53 791.954 340.53C791.954 340.53 793.655 353 793.448 353H759Z" fill="#F9C1BB"/>
<mask id="mask11_949_632" style="mask-type:alpha" maskUnits="userSpaceOnUse" x="758" y="177" width="47" height="177">
<path fill-rule="evenodd" clip-rule="evenodd" d="M758.951 353.092C758.951 353.092 760.6 347.358 769.255 347.358C777.911 347.358 783.063 340.018 783.063 340.018V257.902L786.36 177.162L804.907 186.796C804.907 201.476 791.873 340.627 791.873 340.627C791.873 340.627 793.573 353.092 793.367 353.092H758.951Z" fill="white"/>
</mask>
<g mask="url(#mask11_949_632)">
<path d="M777.088 248.542C804.658 249.282 797.8 284.685 797.16 287.37C796.521 290.055 807.904 244.513 807.904 244.513L800.536 239.137" fill="#ED707B"/>
</g>
<path fill-rule="evenodd" clip-rule="evenodd" d="M759 353C759 353 760.65 347.263 769.314 347.263C777.978 347.263 783.135 339.92 783.135 339.92V257.772L786.435 177L805 186.637V186.637C805 201.323 791.954 340.53 791.954 340.53C791.954 340.53 793.655 353 793.448 353H759Z" stroke="black" stroke-width="1.5" stroke-linecap="round" stroke-linejoin="round"/>
<path d="M792.861 345L793.983 351.575C794.067 352.204 793.835 352.834 793.35 353.3C792.864 353.766 792.172 354.021 791.456 353.999H756C756 353.999 758.514 347.267 768.78 347.816C773.88 352.968 792.861 345 792.861 345Z" fill="#485065" stroke="black" stroke-width="1.5" stroke-linecap="round" stroke-linejoin="round"/>
<path d="M798 200.378L812.388 252.909L831.983 342.394C831.983 342.394 833.48 353.084 834.028 354H866C859.037 342.394 847.604 350.946 843.218 341.631L819.085 196L798 200.378Z" fill="#F9C1BB"/>
<mask id="mask12_949_632" style="mask-type:alpha" maskUnits="userSpaceOnUse" x="797" y="196" width="70" height="159">
<path fill-rule="evenodd" clip-rule="evenodd" d="M797.9 200.402L812.326 253.005L831.972 342.613C831.972 342.613 833.474 353.318 834.023 354.235H866.079C859.097 342.613 847.634 351.177 843.237 341.849L819.041 196.018L797.9 200.402Z" fill="white"/>
</mask>
<g mask="url(#mask12_949_632)">
<path d="M807.48 253.414C826.525 252.598 829.921 264.513 831.988 272.531C834.056 280.55 836.856 247.801 836.856 247.801" fill="#ED707B"/>
</g>
<path fill-rule="evenodd" clip-rule="evenodd" d="M798 200.378L812.388 252.909L831.983 342.394C831.983 342.394 833.48 353.084 834.028 354H866C859.037 342.394 847.604 350.946 843.218 341.631L819.085 196L798 200.378Z" stroke="black" stroke-width="1.5" stroke-linecap="round" stroke-linejoin="round"/>
<path d="M831 342V350.795C831.057 352.753 832.615 354.305 834.509 354.291L866.821 355C866.821 355 869.275 349.021 855.991 346.939C844.834 354.036 831 342 831 342Z" fill="#485065" stroke="black" stroke-width="1.5" stroke-linecap="round" stroke-linejoin="round"/>
<path d="M777 248.164C800.846 253.622 825.454 254.413 831 250.774L817.05 179L784.992 183.881L777 248.164Z" fill="#2F387E"/>
<mask id="mask13_949_632" style="mask-type:alpha" maskUnits="userSpaceOnUse" x="777" y="178" width="54" height="76">
<path fill-rule="evenodd" clip-rule="evenodd" d="M777.088 248.54C800.718 254.045 825.104 254.842 830.599 251.172L816.775 178.795L785.008 183.717L777.088 248.54Z" fill="white"/>
</mask>
<g mask="url(#mask13_949_632)">
<path d="M780.073 214.902C781.93 186.994 829.982 183.555 815.999 181.282L793.812 177.676L781.397 183.277L775.586 186.612" fill="#111944"/>
<g opacity="0.16">
<path d="M753.203 256.907H745.002L773.949 177.973H778.116L753.203 256.907Z" fill="#485065" stroke="black" stroke-width="1.5" stroke-linecap="round" stroke-linejoin="round"/>
<path d="M768.844 256.907H760.643L781.895 177.973H786.062L768.844 256.907Z" fill="#485065" stroke="black" stroke-width="1.5" stroke-linecap="round" stroke-linejoin="round"/>
<path d="M784.482 256.907H776.281L789.841 177.973H794.006L784.482 256.907Z" fill="#485065" stroke="black" stroke-width="1.5" stroke-linecap="round" stroke-linejoin="round"/>
<path d="M800.121 256.907H791.922L797.785 177.973H801.952L800.121 256.907Z" fill="#485065" stroke="black" stroke-width="1.5" stroke-linecap="round" stroke-linejoin="round"/>
<path d="M815.763 256.907H807.562L805.732 177.973H809.898L815.763 256.907Z" fill="#485065" stroke="black" stroke-width="1.5" stroke-linecap="round" stroke-linejoin="round"/>
<path d="M831.403 256.907H823.202L813.678 177.973H817.845L831.403 256.907Z" fill="#485065" stroke="black" stroke-width="1.5" stroke-linecap="round" stroke-linejoin="round"/>
<path d="M847.04 256.907H838.839L821.621 177.973H825.788L847.04 256.907Z" fill="#485065" stroke="black" stroke-width="1.5" stroke-linecap="round" stroke-linejoin="round"/>
<path d="M862.682 256.907H854.483L829.57 177.973H833.736L862.682 256.907Z" fill="#485065" stroke="black" stroke-width="1.5" stroke-linecap="round" stroke-linejoin="round"/>
</g>
</g>
<path fill-rule="evenodd" clip-rule="evenodd" d="M777 248.164C800.846 253.622 825.454 254.413 831 250.774L817.05 179L784.992 183.881L777 248.164Z" stroke="black" stroke-width="1.5" stroke-linecap="round" stroke-linejoin="round"/>
<path d="M786.338 134.935C798.003 129.688 811.415 129.688 823.08 134.935C827.449 146.084 814.613 172.433 818.711 181.682C818.711 181.682 795.198 191.777 783.678 184.149C780.103 180.629 788.212 170.734 782.167 161.145C778.835 155.858 779.877 149.306 781.753 144.075" fill="#FDD504"/>
<path d="M786.338 134.935C798.003 129.688 811.415 129.688 823.08 134.935C827.449 146.084 814.613 172.433 818.711 181.682C818.711 181.682 795.198 191.777 783.678 184.149C780.103 180.629 788.212 170.734 782.167 161.145C778.835 155.858 779.877 149.306 781.753 144.075" stroke="black" stroke-width="1.5" stroke-linecap="round" stroke-linejoin="round"/>
<path d="M771.059 172.057L752.785 141.78C752.971 141.122 753.246 140.49 753.602 139.901C755.235 137.44 754.766 135.043 752.156 136.857C754.632 134.072 753.762 131.546 750.817 134.266C752.423 132.647 753.561 129.408 752.223 129.019C750.884 128.631 746.989 134.201 745.349 136.889C745.026 137.416 744.922 138.041 745.059 138.638H745.048L745.074 138.714C745.132 138.964 745.217 139.207 745.329 139.439L758.69 177.518C759.527 179.904 761.698 181.622 764.286 181.945C766.874 182.269 769.427 181.142 770.866 179.04C772.305 176.939 772.38 174.229 771.059 172.057H771.059Z" fill="#F9C1BB"/>
<mask id="mask14_949_632" style="mask-type:alpha" maskUnits="userSpaceOnUse" x="745" y="128" width="27" height="55">
<path fill-rule="evenodd" clip-rule="evenodd" d="M770.839 172.517L752.809 141.58C752.993 140.908 753.264 140.262 753.616 139.661C755.226 137.146 754.764 134.697 752.189 136.55C754.632 133.704 753.773 131.123 750.868 133.902C752.453 132.248 753.575 128.938 752.255 128.541C750.934 128.144 747.091 133.836 745.474 136.583C745.155 137.121 745.052 137.759 745.187 138.37H745.176L745.202 138.447C745.259 138.703 745.343 138.951 745.454 139.189L758.635 178.097C759.461 180.535 761.603 182.291 764.156 182.621C766.709 182.952 769.228 181.8 770.648 179.653C772.068 177.505 772.142 174.737 770.838 172.517H770.839Z" fill="white"/>
</mask>
<g mask="url(#mask14_949_632)">
<path d="M752.57 177.821C768.263 182.76 770.776 180.779 771.345 173.178C771.914 165.578 775.138 182.297 775.138 182.297L768.27 189.04L757.056 183.344" fill="#ED707B"/>
</g>
<path fill-rule="evenodd" clip-rule="evenodd" d="M771.059 172.057L752.785 141.78C752.971 141.122 753.246 140.49 753.602 139.901C755.235 137.44 754.766 135.043 752.156 136.857C754.632 134.072 753.762 131.546 750.817 134.266C752.423 132.647 753.561 129.408 752.223 129.019C750.884 128.631 746.989 134.201 745.349 136.889C745.026 137.416 744.922 138.041 745.059 138.638H745.048L745.074 138.714C745.132 138.964 745.217 139.207 745.329 139.439L758.69 177.518C759.527 179.904 761.698 181.622 764.286 181.945C766.874 182.269 769.427 181.142 770.866 179.04C772.305 176.939 772.38 174.229 771.059 172.057H771.059Z" stroke="black" stroke-width="1.5" stroke-linecap="round" stroke-linejoin="round"/>
<path d="M795.707 177H774.651C772.451 176.893 770.435 175.712 769.234 173.828L754.405 147.172C753.43 145.42 754.275 144 756.292 144H777.349C779.549 144.107 781.565 145.288 782.765 147.172L797.595 173.828C798.57 175.58 797.724 177 795.707 177Z" fill="#485065"/>
<mask id="mask15_949_632" style="mask-type:alpha" maskUnits="userSpaceOnUse" x="754" y="144" width="45" height="33">
<path fill-rule="evenodd" clip-rule="evenodd" d="M796.203 176.874H774.927C772.704 176.768 770.667 175.599 769.454 173.732L754.47 147.324C753.485 145.588 754.339 144.182 756.377 144.182H777.653C779.877 144.288 781.913 145.457 783.126 147.324L798.111 173.732C799.096 175.467 798.242 176.874 796.203 176.874Z" fill="white"/>
</mask>
<g mask="url(#mask15_949_632)">
<path d="M786.951 153.192C795.458 171.635 770.643 177.161 770.643 177.161C773.461 178.574 776.349 179.842 779.297 180.959C779.531 180.709 802.644 179.111 802.644 179.111L793.815 152.057" fill="#232C3F"/>
</g>
<path fill-rule="evenodd" clip-rule="evenodd" d="M795.707 177H774.651C772.451 176.893 770.435 175.712 769.234 173.828L754.405 147.172C753.43 145.42 754.275 144 756.292 144H777.349C779.549 144.107 781.565 145.288 782.765 147.172L797.595 173.828C798.57 175.58 797.724 177 795.707 177Z" stroke="black" stroke-width="1.5" stroke-linecap="round" stroke-linejoin="round"/>
<path d="M822.487 134C830.718 137.213 842 172.786 842 172.786L826.754 176L816 154.18" fill="#FDD504"/>
<path d="M822.487 134C830.718 137.213 842 172.786 842 172.786L826.754 176L816 154.18" stroke="black" stroke-width="1.5" stroke-linecap="round" stroke-linejoin="round"/>
<path d="M836.212 168.857L800.726 164.201L790.759 162.26C790.759 162.26 785.111 162.343 784.696 162.26C784.28 162.177 779.629 159.763 779.131 161.843C778.654 161.894 778.246 162.211 778.079 162.66C777.912 163.11 778.014 163.616 778.342 163.966L780.377 165.63C780.377 165.63 778.965 165.339 779.089 166.421C779.214 167.503 784.636 169.823 785.093 169.989C788.379 170.013 791.66 170.266 794.911 170.749C795.982 171.011 797.481 171.47 799.032 171.977L804.372 173.81C805.379 174.169 806.041 174.411 806.041 174.411L806.048 174.386L833.468 183.798C835.69 184.314 838.026 183.83 839.86 182.473C841.694 181.117 842.84 179.024 842.995 176.748C843.141 172.751 840.186 169.314 836.212 168.857Z" fill="#F9C1BB"/>
<mask id="mask16_949_632" style="mask-type:alpha" maskUnits="userSpaceOnUse" x="778" y="161" width="65" height="23">
<path fill-rule="evenodd" clip-rule="evenodd" d="M835.567 169.015L800.489 164.411L790.637 162.491C790.637 162.491 785.054 162.574 784.644 162.491C784.233 162.409 779.636 160.023 779.143 162.08C778.672 162.13 778.269 162.443 778.104 162.888C777.939 163.332 778.039 163.832 778.363 164.178L780.375 165.824C780.375 165.824 778.979 165.536 779.102 166.606C779.225 167.676 784.585 169.969 785.036 170.133C788.285 170.157 791.528 170.408 794.742 170.885C795.801 171.144 797.282 171.598 798.815 172.099L804.094 173.911C805.089 174.266 805.744 174.506 805.744 174.506L805.751 174.48L832.855 183.786C835.051 184.296 837.361 183.818 839.174 182.476C840.986 181.135 842.119 179.066 842.272 176.816C842.417 172.864 839.496 169.466 835.567 169.015Z" fill="white"/>
</mask>
<g mask="url(#mask16_949_632)">
<path d="M823.42 165.763C839.581 168.893 842.246 177.143 841.74 181.78C841.234 186.416 847.541 169.556 847.541 169.556L841.74 164.158H830.058" fill="#ED707B"/>
</g>
<path fill-rule="evenodd" clip-rule="evenodd" d="M836.212 168.857L800.726 164.201L790.759 162.26C790.759 162.26 785.111 162.343 784.696 162.26C784.28 162.177 779.629 159.763 779.131 161.843C778.654 161.894 778.246 162.211 778.079 162.66C777.912 163.11 778.014 163.616 778.342 163.966L780.377 165.63C780.377 165.63 778.965 165.339 779.089 166.421C779.214 167.503 784.636 169.823 785.093 169.989C788.379 170.013 791.66 170.266 794.911 170.749C795.982 171.011 797.481 171.47 799.032 171.977V171.977L804.372 173.81C805.379 174.169 806.041 174.411 806.041 174.411L806.048 174.386L833.468 183.798C835.69 184.314 838.026 183.83 839.86 182.473C841.694 181.117 842.84 179.024 842.995 176.748C843.141 172.751 840.186 169.314 836.212 168.857Z" stroke="black" stroke-width="1.5" stroke-linecap="round" stroke-linejoin="round"/>
<path d="M817 214C814.574 215.303 811.873 216.316 809 217" stroke="black" stroke-width="1.5" stroke-linecap="round" stroke-linejoin="round"/>
<path d="M786 273.818L791 274.182" stroke="black" stroke-width="1.5" stroke-linecap="round" stroke-linejoin="round"/>
<path d="M824 272.138C824.987 271.849 826 271.786 827 271.953" stroke="black" stroke-width="1.5" stroke-linecap="round" stroke-linejoin="round"/>
<path d="M902.801 162.382C901.635 161.264 900.145 160.536 898.539 160.299L884.737 158.104C881.988 157.671 879.201 158.612 877.292 160.617C875.383 162.622 874.599 165.432 875.197 168.123L878.329 182.315L878.283 183.178L878.485 183.025L879.373 187.049C879.373 187.049 887.936 191.873 900.411 179.796C909.248 171.241 905.651 165.187 902.801 162.382Z" fill="#485065" stroke="black" stroke-width="1.5" stroke-linecap="round" stroke-linejoin="round"/>
<path d="M882.842 178L873 192.802L884.579 204L896 181.907L882.842 178Z" fill="#F9C1BB"/>
<mask id="mask17_949_632" style="mask-type:alpha" maskUnits="userSpaceOnUse" x="872" y="177" width="24" height="27">
<path fill-rule="evenodd" clip-rule="evenodd" d="M882.407 177.943L872.447 192.762L884.165 203.971L895.723 181.855L882.407 177.943Z" fill="white"/>
</mask>
<g mask="url(#mask17_949_632)">
<path d="M886.763 183.088C890.402 188.05 886.929 192.965 889.692 194.524C892.825 196.292 895.281 192.014 895.281 192.014L896.536 185.192L886.631 181.006" fill="#ED707B"/>
</g>
<path fill-rule="evenodd" clip-rule="evenodd" d="M882.842 178L873 192.802L884.579 204L896 181.907L882.842 178V178Z" stroke="black" stroke-width="1.5" stroke-linecap="round" stroke-linejoin="round"/>
<path d="M887.926 186.378C891.686 187.721 898.079 188.916 899.656 187.003C903.41 182.45 902.421 168.598 898.351 165C901.217 182.249 885.561 177.515 885.561 177.515L885.091 177.876L885 179.733" fill="#F9C1BB"/>
<path d="M887.926 186.378C891.686 187.721 898.079 188.916 899.656 187.003C903.41 182.45 902.421 168.598 898.351 165C901.217 182.249 885.561 177.515 885.561 177.515L885.091 177.876L885 179.733" stroke="black" stroke-width="1.5" stroke-linecap="round" stroke-linejoin="round"/>
<path d="M890 179.74C882.576 171.418 876.951 179.178 881.826 182L890 179.74Z" fill="#F9C1BB"/>
<path d="M890 179.74C882.576 171.418 876.951 179.178 881.826 182" stroke="black" stroke-width="1.5" stroke-linecap="round" stroke-linejoin="round"/>
<path d="M962.833 282H891.951L884 256L973 257.937L962.833 282Z" fill="#1AB995" stroke="black" stroke-width="1.5" stroke-linecap="round" stroke-linejoin="round"/>
<path d="M938.403 182L926 201.835L935.277 211L948 191.724L938.403 182Z" fill="#485065" stroke="black" stroke-width="1.5" stroke-linecap="round" stroke-linejoin="round"/>
<path d="M938.293 184L926 201.984L934.263 209L947 192.743L938.293 184Z" fill="white" stroke="black" stroke-width="1.5" stroke-linecap="round" stroke-linejoin="round"/>
<path d="M948 191.482L942.64 188L928 208.678L935.3 211L948 191.482Z" fill="#485065" stroke="black" stroke-width="1.5" stroke-linecap="round" stroke-linejoin="round"/>
<path d="M948 192.096L942.64 189L928 208.779L935.3 211L948 192.096Z" fill="#485065" stroke="black" stroke-width="1.5" stroke-linecap="round" stroke-linejoin="round"/>
<path d="M979 345.298L972.959 343.168C972.035 342.868 971.426 342.007 971.467 341.059L972.055 332L957.301 332.352L956.002 349.125C955.973 349.901 956.28 350.654 956.848 351.2C957.416 351.746 958.194 352.035 958.992 351.997L977.081 351.786L979 345.298Z" fill="#F9C1BB"/>
<mask id="mask18_949_632" style="mask-type:alpha" maskUnits="userSpaceOnUse" x="956" y="332" width="23" height="20">
<path fill-rule="evenodd" clip-rule="evenodd" d="M978.512 345.267L972.706 343.164C971.817 342.867 971.232 342.018 971.272 341.081L971.837 332.137L957.657 332.484L956.408 349.045C956.38 349.812 956.675 350.555 957.221 351.095C957.768 351.634 958.515 351.919 959.281 351.881L976.667 351.673L978.512 345.267Z" fill="white"/>
</mask>
<g mask="url(#mask18_949_632)">
<path d="M953.352 337.418C963.574 338.786 971.35 335.459 971.653 335.042C971.957 334.625 962.492 332.982 962.492 332.982L953.352 337.418Z" fill="#ED707B"/>
</g>
<path fill-rule="evenodd" clip-rule="evenodd" d="M979 345.298L972.959 343.168C972.035 342.868 971.426 342.007 971.467 341.059L972.055 332L957.301 332.352L956.002 349.125C955.973 349.901 956.28 350.654 956.848 351.2C957.416 351.746 958.194 352.035 958.992 351.997L977.081 351.786L979 345.298Z" stroke="black" stroke-width="1.5" stroke-linecap="round" stroke-linejoin="round"/>
<path d="M955.03 353.17C955.193 353.693 955.707 354.036 956.268 353.997L988.847 352.451C989.472 352.441 989.98 351.956 990 351.348C989.968 349.839 988.996 348.501 987.544 347.967L976.594 344L973.036 351.07L956.146 351.806C955.797 351.805 955.466 351.96 955.249 352.226C955.031 352.492 954.951 352.839 955.03 353.17Z" fill="#485065" stroke="black" stroke-width="1.5" stroke-linecap="round" stroke-linejoin="round"/>
<path d="M1019.04 312.795L1013.14 313.824C1012.23 313.995 1011.31 313.575 1010.83 312.769L1006.45 305L995 312.112L1002.95 326.594C1003.76 327.964 1005.5 328.409 1006.85 327.589L1021 319.053L1019.04 312.795Z" fill="#F9C1BB"/>
<mask id="mask19_949_632" style="mask-type:alpha" maskUnits="userSpaceOnUse" x="994" y="304" width="28" height="24">
<path fill-rule="evenodd" clip-rule="evenodd" d="M1019.46 312.552L1013.34 313.597C1012.39 313.771 1011.44 313.344 1010.94 312.525L1006.39 304.633L994.514 311.857L1002.77 326.57C1003.6 327.962 1005.41 328.414 1006.81 327.581L1021.5 318.909L1019.46 312.552Z" fill="white"/>
</mask>
<g mask="url(#mask19_949_632)">
<path d="M991.373 322.073C999.955 319.518 1009.32 308.355 1009.32 308.355L995.916 309.958L991.59 316.963" fill="#ED707B"/>
</g>
<path fill-rule="evenodd" clip-rule="evenodd" d="M1019.04 312.795L1013.14 313.824C1012.23 313.995 1011.31 313.575 1010.83 312.769L1006.45 305L995 312.112L1002.95 326.594C1003.76 327.964 1005.5 328.409 1006.85 327.589L1021 319.053L1019.04 312.795Z" stroke="black" stroke-width="1.5" stroke-linecap="round" stroke-linejoin="round"/>
<path d="M1003.38 331.662C1003.81 332.06 1004.45 332.112 1004.95 331.788L1032.46 313.528C1032.72 313.366 1032.91 313.101 1032.97 312.796C1033.04 312.491 1032.98 312.171 1032.81 311.91C1031.89 310.527 1030.28 309.805 1028.67 310.046L1016.76 312.026L1017.84 320.414L1003.54 329.821C1003.24 330.009 1003.04 330.334 1003 330.698C1002.97 331.062 1003.11 331.42 1003.38 331.662Z" fill="#485065" stroke="black" stroke-width="1.5" stroke-linecap="round" stroke-linejoin="round"/>
<path d="M910 214.803L911.776 211.931C913.898 210.138 915.878 208.175 917.696 206.061C918.527 204.628 918.299 197.932 922.531 196.663C926.763 195.395 932.861 193 932.861 193C932.861 193 934.586 195.787 925.901 198.449C926.623 202.065 926.095 205.824 924.409 209.088L913.297 224L910 214.803Z" fill="#F9C1BB"/>
<mask id="mask20_949_632" style="mask-type:alpha" maskUnits="userSpaceOnUse" x="909" y="192" width="25" height="32">
<path fill-rule="evenodd" clip-rule="evenodd" d="M909.969 214.763L911.782 211.892C913.948 210.098 915.968 208.135 917.825 206.022C918.673 204.589 918.44 197.894 922.76 196.625C927.08 195.357 933.304 192.963 933.304 192.963C933.304 192.963 935.065 195.749 926.201 198.411C926.937 202.026 926.398 205.785 924.677 209.048L913.334 223.958L909.969 214.763Z" fill="white"/>
</mask>
<g mask="url(#mask20_949_632)">
<path d="M920.377 216.453C915.378 219.259 914.186 212.542 911.782 211.891C909.377 211.241 913.111 220.729 913.111 220.729L915.178 223.958L918.978 222.934L920.377 216.453Z" fill="#ED707B"/>
</g>
<path fill-rule="evenodd" clip-rule="evenodd" d="M910 214.803L911.776 211.931C913.898 210.138 915.878 208.175 917.696 206.061C918.527 204.628 918.299 197.932 922.531 196.663C926.763 195.395 932.861 193 932.861 193C932.861 193 934.586 195.787 925.901 198.449C926.623 202.065 926.095 205.824 924.409 209.088L913.297 224L910 214.803Z" stroke="black" stroke-width="1.5" stroke-linecap="round" stroke-linejoin="round"/>
<path d="M912.001 211C912.001 211 918.23 217.772 917.993 221.543L894.265 252L890 226.123L912.001 211Z" fill="white"/>
<mask id="mask21_949_632" style="mask-type:alpha" maskUnits="userSpaceOnUse" x="890" y="211" width="28" height="42">
<path fill-rule="evenodd" clip-rule="evenodd" d="M911.618 211.355C911.618 211.355 917.689 218.133 917.459 221.908L894.334 252.391L890.178 226.492L911.618 211.355Z" fill="white"/>
</mask>
<g mask="url(#mask21_949_632)">
<path d="M905.488 212.834C912.979 215.975 913.912 232.68 913.912 232.68" stroke="#D6DCF2" stroke-width="1.5" stroke-linecap="round" stroke-linejoin="round"/>
</g>
<path fill-rule="evenodd" clip-rule="evenodd" d="M912.001 211C912.001 211 918.23 217.772 917.993 221.543L894.265 252L890 226.123L912.001 211Z" stroke="black" stroke-width="1.5" stroke-linecap="round" stroke-linejoin="round"/>
<path d="M874.577 193L874.118 189.934C874.118 189.934 871.679 177.102 889 192.827L874.577 193Z" fill="white" stroke="black" stroke-width="1.5" stroke-linecap="round" stroke-linejoin="round"/>
<path d="M988.118 321C988.118 321 1007.64 312.209 1009 308.779L972.718 240.054C968.358 232.351 959.11 229.017 950.93 232.199L940 236.311L988.118 321Z" fill="#1AB995"/>
<mask id="mask22_949_632" style="mask-type:alpha" maskUnits="userSpaceOnUse" x="939" y="231" width="71" height="90">
<path fill-rule="evenodd" clip-rule="evenodd" d="M988.327 320.48C988.327 320.48 1007.96 311.758 1009.33 308.354L972.84 240.161C968.456 232.518 959.156 229.21 950.929 232.367L939.938 236.448L988.327 320.48Z" fill="white"/>
</mask>
<g mask="url(#mask22_949_632)">
<path d="M979.369 314.881C987.169 314.279 1008.01 301.049 1008.01 301.049L1012.25 310.559L990.771 325.706L979.369 314.881Z" fill="#1A80FD" stroke="black" stroke-width="1.5" stroke-linecap="round" stroke-linejoin="round"/>
</g>
<path fill-rule="evenodd" clip-rule="evenodd" d="M988.118 321C988.118 321 1007.64 312.209 1009 308.779L972.718 240.054C968.358 232.351 959.11 229.017 950.93 232.199L940 236.311L988.118 321Z" stroke="black" stroke-width="1.5" stroke-linecap="round" stroke-linejoin="round"/>
<path d="M951.398 274.783L946 334.131C946 334.131 966.387 336.086 972.168 334.131L978.984 262.072C979.141 259.366 978.161 256.714 976.275 254.74C974.389 252.765 971.761 251.641 969.009 251.63L953.561 251" fill="#1AB995"/>
<mask id="mask23_949_632" style="mask-type:alpha" maskUnits="userSpaceOnUse" x="946" y="250" width="34" height="86">
<path fill-rule="evenodd" clip-rule="evenodd" d="M951.737 274.538L946.338 334.805C946.338 334.805 966.729 336.79 972.511 334.805L979.328 261.631C979.485 258.882 978.505 256.19 976.619 254.184C974.732 252.179 972.105 251.037 969.351 251.026L953.9 250.387" fill="white"/>
</mask>
<g mask="url(#mask23_949_632)">
<path d="M942.045 325.705C951.845 329.113 976.641 327.108 976.641 327.108V337.733L942.645 337.933" fill="#1A80FD"/>
<path d="M942.045 325.705C951.845 329.113 976.641 327.108 976.641 327.108V337.733L942.645 337.933" stroke="black" stroke-width="1.5" stroke-linecap="round" stroke-linejoin="round"/>
</g>
<path d="M951.398 274.783L946 334.131C946 334.131 966.387 336.086 972.168 334.131L978.984 262.072C979.141 259.366 978.161 256.714 976.275 254.74C974.389 252.765 971.761 251.641 969.009 251.63L953.561 251" stroke="black" stroke-width="1.5" stroke-linecap="round" stroke-linejoin="round"/>
<path d="M971.449 249.569L911.603 281.369C907.073 283.761 902.029 285.008 896.908 285C881.081 285 868.03 273.413 867.226 258.647L867 254.502L951.84 230.756C960.45 228.2 969.635 232.3 973.5 240.423L977 247.075" fill="#1AB995"/>
<path d="M971.449 249.569L911.603 281.369C907.073 283.761 902.029 285.008 896.908 285V285C881.081 285 868.03 273.413 867.226 258.647L867 254.502L951.84 230.756C960.45 228.2 969.635 232.3 973.5 240.423L977 247.075" stroke="black" stroke-width="1.5" stroke-linecap="round" stroke-linejoin="round"/>
<path d="M889.249 192.766L874.131 190C848.076 211.331 870.53 252.917 860 256.83C860 256.83 860 272.25 913 243.787C913 243.786 904.87 203.734 889.249 192.766Z" fill="white"/>
<mask id="mask24_949_632" style="mask-type:alpha" maskUnits="userSpaceOnUse" x="859" y="189" width="54" height="73">
<path fill-rule="evenodd" clip-rule="evenodd" d="M888.966 192.72L873.962 189.943C848.103 211.356 870.389 253.102 859.938 257.031C859.938 257.031 859.938 272.51 912.539 243.937C912.539 243.937 904.47 203.73 888.966 192.72Z" fill="white"/>
</mask>
<g mask="url(#mask24_949_632)">
<path d="M880.971 214.07C894.366 242.052 883.607 264.734 859.938 257.031C836.269 249.329 851.946 278.29 851.946 278.29L886.239 282.911L914.73 247.327L890.177 216.153L880.971 214.07Z" fill="#D6DCF2"/>
<path d="M860.98 252.392C866.789 261.208 902.295 244.975 902.295 244.975L906.979 252.392L861.38 268.997L858.18 255.666L861.38 250.388" fill="white"/>
<path d="M860.98 252.392C866.789 261.208 902.295 244.975 902.295 244.975L906.979 252.392L861.38 268.997L858.18 255.666L861.38 250.388" stroke="black" stroke-width="1.5" stroke-linecap="round" stroke-linejoin="round"/>
</g>
<path fill-rule="evenodd" clip-rule="evenodd" d="M889.249 192.766L874.131 190C848.076 211.331 870.53 252.917 860 256.83C860 256.83 860 272.25 913 243.787C913 243.786 904.87 203.734 889.249 192.766Z" stroke="black" stroke-width="1.5" stroke-linecap="round" stroke-linejoin="round"/>
<path d="M921 224.58L930.154 211.954L936.863 199.58C939.175 198.664 937.583 203.588 937.015 205.198C937.015 205.198 942.301 197.656 942.641 197.088C942.641 197.088 946.036 195.476 942.094 206.083C940.759 209.183 938.55 211.845 935.726 213.754L930.154 229L921 224.58Z" fill="#F9C1BB"/>
<mask id="mask25_949_632" style="mask-type:alpha" maskUnits="userSpaceOnUse" x="921" y="196" width="23" height="34">
<path fill-rule="evenodd" clip-rule="evenodd" d="M921.021 224.598L930.154 211.77L936.848 199.197C939.155 198.267 937.566 203.27 936.999 204.906C936.999 204.906 942.273 197.242 942.612 196.665C942.612 196.665 946 195.028 942.067 205.805C940.735 208.955 938.53 211.659 935.713 213.598L930.154 229.089L921.021 224.598Z" fill="white"/>
</mask>
<g mask="url(#mask25_949_632)">
<path d="M935.157 220.662C931.307 222.666 929.028 217.097 923.955 220.478C921.74 221.954 927.574 225.58 927.574 225.58H934.041L935.641 221.464" fill="#ED707B"/>
</g>
<path fill-rule="evenodd" clip-rule="evenodd" d="M921 224.58L930.154 211.954L936.863 199.58C939.175 198.664 937.583 203.588 937.015 205.198C937.015 205.198 942.301 197.656 942.641 197.088C942.641 197.088 946.036 195.476 942.094 206.083C940.759 209.183 938.55 211.845 935.726 213.754L930.154 229L921 224.58Z" stroke="black" stroke-width="1.5" stroke-linecap="round" stroke-linejoin="round"/>
<path d="M896.753 201L913.265 231.214L923.004 220.064C923.004 220.064 932.427 220.363 934.989 223.91C935.407 224.489 924.215 244.871 924.215 244.871C922.376 248.204 919.216 250.602 915.516 251.473C908.902 253.203 901.794 250.558 898.8 245.252L881 213.708" fill="white"/>
<mask id="mask26_949_632" style="mask-type:alpha" maskUnits="userSpaceOnUse" x="880" y="201" width="56" height="52">
<path fill-rule="evenodd" clip-rule="evenodd" d="M896.778 201.354L913.347 231.59L923.119 220.432C923.119 220.432 932.575 220.731 935.145 224.28C935.565 224.86 924.335 245.257 924.335 245.257C922.489 248.593 919.318 250.993 915.606 251.864C908.969 253.596 901.836 250.949 898.832 245.639L880.971 214.071" fill="white"/>
</mask>
<g mask="url(#mask26_949_632)">
<path d="M918.797 225.371C925.597 223.402 935.915 231.218 935.915 231.218" stroke="#D6DCF2" stroke-width="1.5" stroke-linecap="round" stroke-linejoin="round"/>
<ellipse cx="911.607" cy="252.192" rx="10.6261" ry="3.47287" fill="#FDD504" stroke="black" stroke-width="1.5" stroke-linecap="round" stroke-linejoin="round"/>
</g>
<path d="M896.753 201L913.265 231.214L923.004 220.064C923.004 220.064 932.427 220.363 934.989 223.91C935.407 224.489 924.215 244.871 924.215 244.871C922.376 248.204 919.216 250.602 915.516 251.473V251.473C908.902 253.203 901.794 250.558 898.8 245.252L881 213.708" stroke="black" stroke-width="1.5" stroke-linecap="round" stroke-linejoin="round"/>
<rect x="871" y="281" width="62" height="74" rx="5.77935" fill="#FDD504"/>
<mask id="mask27_949_632" style="mask-type:alpha" maskUnits="userSpaceOnUse" x="870" y="280" width="64" height="76">
<rect x="870.832" y="280.691" width="62.7618" height="74.4637" rx="5.77935" fill="white"/>
</mask>
<g mask="url(#mask27_949_632)">
<path d="M854.634 309.112C862.862 306.68 871.537 306.163 879.994 307.602C884.015 308.059 887.894 309.355 891.382 311.406C894.526 313.693 896.37 317.36 896.329 321.247C896.603 329.287 891.641 336.26 890.754 344.113C890.251 347.591 890.811 351.14 892.361 354.295C894.056 357.213 896.645 359.508 899.744 360.841C907.778 364.633 917.478 365.411 926.167 364.854C927.534 364.766 927.544 362.526 926.167 362.615C917.936 363.142 908.895 362.474 901.216 359.081C897.427 357.677 894.493 354.61 893.258 350.763C892.41 346.858 892.681 342.792 894.04 339.034C896.18 331.972 899.923 324.799 897.898 317.191C895.829 309.418 888.348 306.928 881.53 305.62C872.399 303.877 862.986 304.334 854.067 306.952C852.744 307.34 853.306 309.501 854.635 309.111L854.634 309.112Z" fill="#FCB006"/>
<path d="M905.737 268.354C901.968 272.61 899.216 277.668 897.69 283.144C896.795 285.877 896.601 288.792 897.127 291.62C897.8 294.017 899.23 296.133 901.202 297.653C905.814 301.124 911.153 303.505 916.817 304.617C922.944 305.952 929.197 306.622 935.468 306.614C943.164 306.735 950.86 306.354 958.554 306.691C959.931 306.751 959.928 304.512 958.554 304.452C946.772 303.936 934.902 305.166 923.172 303.533C917.671 302.867 912.316 301.304 907.321 298.905C904.947 297.843 902.803 296.328 901.01 294.444C899.198 292.196 898.514 289.242 899.152 286.426C900.273 280.287 903.076 274.579 907.25 269.939C908.177 268.877 906.669 267.289 905.738 268.355L905.737 268.354Z" fill="#FCB006"/>
<path d="M934.846 308.863C929.541 352.815 930.646 356.774 902.215 355.154C882.07 354.006 919.646 371.833 919.646 371.833L939.937 352.311L934.846 308.863Z" fill="#FCB006"/>
</g>
<rect x="871" y="281" width="62" height="74" rx="5.77935" stroke="black" stroke-width="1.5" stroke-linecap="round" stroke-linejoin="round"/>
<path d="M860.22 252L871 249.436L869.78 245L859 247.564L860.22 252Z" fill="white" stroke="black" stroke-width="1.5" stroke-linecap="round" stroke-linejoin="round"/>
<circle cx="862.5" cy="249.5" r="0.5" fill="#2F387E" stroke="black" stroke-width="1.5" stroke-linecap="round" stroke-linejoin="round"/>
<path d="M913.735 232L913.265 235" stroke="black" stroke-width="1.5" stroke-linecap="round" stroke-linejoin="round"/>
<path d="M874 230.279C875.246 231.579 877.223 232.054 879 231.482" stroke="black" stroke-width="1.5" stroke-linecap="round" stroke-linejoin="round"/>
<path d="M989 290C988.236 291.493 987.222 292.845 986 294" stroke="black" stroke-width="1.5" stroke-linecap="round" stroke-linejoin="round"/>
</g>
<defs>
<linearGradient id="paint0_linear_949_632" x1="768.411" y1="154.603" x2="770.002" y2="155.098" gradientUnits="userSpaceOnUse">
<stop offset="0.0048" stop-color="#9461E2"/>
<stop offset="0.9986" stop-color="#6D26E2"/>
</linearGradient>
</defs>
</svg>
