<svg width="83" height="39" viewBox="0 0 83 39" fill="none" xmlns="http://www.w3.org/2000/svg">
<path fill-rule="evenodd" clip-rule="evenodd" d="M5 39C2.23858 39 0 36.7614 0 34V5C0 2.23858 2.23857 0 4.99999 0H33.5357C34.2061 0 34.8456 0.13192 35.4298 0.371215L4.76172 4.36506L33.892 1.76848L6.80664 12.9432L32.4889 3.54801C33.0612 3.33864 33.6465 3.24044 34.2214 3.24218L11.543 20.5936L33.918 4.8718C34.2189 4.66036 34.5349 4.48681 34.8603 4.35008L17.5098 26.8963L35.0535 5.91893C35.5115 5.37127 36.0612 4.94684 36.6611 4.64878L25.5762 31.3045L37.0933 6.50004C37.2272 6.21168 37.385 5.94222 37.5632 5.69288L33.8438 33.6424L38.5357 6.77611V34C38.5357 36.7614 36.2971 39 33.5357 39H5Z" fill="white"/>
<path d="M61.016 36.184C60.216 36.184 59.464 36.064 58.76 35.824C58.072 35.584 57.2 35.128 56.144 34.456C55.088 33.784 53.576 32.728 51.608 31.288C50.312 31.288 49.16 30.976 48.152 30.352C47.144 29.728 46.36 28.856 45.8 27.736C45.24 26.6 44.96 25.312 44.96 23.872C44.96 22.304 45.304 20.88 45.992 19.6C46.696 18.304 47.648 17.288 48.848 16.552C50.064 15.8 51.4 15.424 52.856 15.424C54.184 15.424 55.36 15.736 56.384 16.36C57.408 16.984 58.208 17.856 58.784 18.976C59.36 20.096 59.648 21.376 59.648 22.816C59.648 24.128 59.4 25.352 58.904 26.488C58.408 27.608 57.712 28.56 56.816 29.344C55.92 30.128 54.904 30.68 53.768 31V31.12C55.464 32.272 56.872 33.088 57.992 33.568C59.128 34.048 60.176 34.288 61.136 34.288C61.6 34.288 62.032 34.248 62.432 34.168C62.848 34.104 63.056 34.064 63.056 34.048L63.152 34.12L63.296 34.552C63.2 34.632 63 34.8 62.696 35.056C62.392 35.328 62.072 35.584 61.736 35.824C61.4 36.064 61.16 36.184 61.016 36.184ZM52.352 30.064C53.36 30.064 54.256 29.8 55.04 29.272C55.824 28.744 56.432 28.008 56.864 27.064C57.296 26.12 57.512 25.04 57.512 23.824C57.512 22.464 57.28 21.264 56.816 20.224C56.352 19.168 55.704 18.344 54.872 17.752C54.056 17.16 53.112 16.864 52.04 16.864C51.064 16.864 50.192 17.128 49.424 17.656C48.672 18.184 48.08 18.92 47.648 19.864C47.232 20.808 47.024 21.888 47.024 23.104C47.024 24.464 47.248 25.672 47.696 26.728C48.144 27.768 48.768 28.584 49.568 29.176C50.384 29.768 51.312 30.064 52.352 30.064ZM62.2224 30.184C62.9744 30.04 63.4784 29.832 63.7344 29.56C64.0064 29.272 64.1424 28.792 64.1424 28.12L64.1664 18.04C64.1664 17.528 64.1024 17.184 63.9744 17.008C63.8624 16.832 63.6304 16.744 63.2784 16.744L62.2704 16.792L62.2224 16.696L62.3904 15.64C62.6464 15.64 62.8464 15.648 62.9904 15.664L65.2464 15.712C65.9664 15.712 66.8864 15.64 68.0064 15.496L67.9104 16.576C67.2544 16.656 66.8064 16.792 66.5664 16.984C66.3424 17.16 66.2144 17.48 66.1824 17.944C66.0864 19.816 66.0064 21.776 65.9424 23.824C65.8784 25.856 65.8464 27.352 65.8464 28.312C65.8464 28.968 65.9184 29.408 66.0624 29.632C66.2064 29.84 66.4864 29.944 66.9024 29.944C67.1744 29.944 67.5984 29.92 68.1744 29.872L68.2224 29.968L68.0064 31.072C67.7824 31.072 67.6064 31.064 67.4784 31.048C66.3584 31.016 65.4864 31 64.8624 31C64.0784 31 63.1504 31.096 62.0784 31.288L62.2224 30.184ZM72.1295 30.064C72.9295 30 73.4815 29.904 73.7855 29.776C74.0895 29.632 74.2895 29.384 74.3855 29.032C74.4815 28.664 74.5295 28.024 74.5295 27.112V16.648C73.1695 16.696 72.2415 16.776 71.7455 16.888C71.2655 16.984 70.9375 17.216 70.7615 17.584C70.5855 17.936 70.4255 18.632 70.2815 19.672L69.1535 19.768C69.3455 18.248 69.4655 16.864 69.5135 15.616L69.7295 15.424L71.7215 15.688H79.1615L81.2015 15.424L81.4175 15.616C81.4655 16.928 81.5855 18.28 81.7775 19.672L80.6495 19.768C80.4735 18.712 80.2975 18 80.1215 17.632C79.9455 17.264 79.6335 17.024 79.1855 16.912C78.7375 16.8 77.8735 16.712 76.5935 16.648C76.4975 17.608 76.4095 19.304 76.3295 21.736C76.2495 24.168 76.2095 26.36 76.2095 28.312C76.2095 28.904 76.3135 29.328 76.5215 29.584C76.7295 29.824 77.0815 29.944 77.5775 29.944C78.0575 29.944 78.4975 29.92 78.8975 29.872L78.9695 29.968L78.7535 31.072L77.9615 31.048L75.2255 31C74.3455 31 73.2495 31.032 71.9375 31.096L72.1295 30.064Z" fill="white"/>
</svg>
