<svg width="105" height="100" viewBox="0 0 105 100" fill="none" xmlns="http://www.w3.org/2000/svg">
<path d="M101.261 16.1888L53.2585 0.18799C52.444 -0.0626633 51.5729 -0.0626633 50.7584 0.18799L2.8061 16.1888H2.70609L2.20607 16.4388H2.15607L1.65604 16.7388C1.65604 16.7888 1.60604 16.7888 1.55604 16.8388L1.15602 17.1888L0.806002 17.5888C0.806002 17.6388 0.755999 17.6388 0.755999 17.6888L0.455985 18.1389C0.455985 18.1889 0.455984 18.1889 0.405982 18.2389L0.205972 18.6889L0.0559656 19.2389V19.3889C0.00664522 19.5849 -0.0102461 19.7875 0.00596304 19.9889V59.9909C0.00596304 61.0518 0.427411 62.0693 1.17759 62.8194C1.92777 63.5696 2.94524 63.9911 4.00616 63.9911C5.06707 63.9911 6.08454 63.5696 6.83472 62.8194C7.5849 62.0693 8.00635 61.0518 8.00635 59.9909V25.5392L24.8072 31.1395C21.6508 36.1917 19.9868 42.0332 20.0069 47.9903C20.0088 53.4081 21.3861 58.7367 24.0098 63.4768C26.6334 68.217 30.4176 72.2134 35.0076 75.0916C25.4692 78.7 17.3261 85.2495 11.7565 93.7925C11.1888 94.6902 10.9965 95.775 11.221 96.8132C11.4454 97.8513 12.0687 98.7598 12.9566 99.3428C13.3923 99.6315 13.8809 99.8308 14.3942 99.9293C14.9076 100.028 15.4353 100.023 15.9469 99.9164C16.4585 99.8094 16.9438 99.602 17.3746 99.3061C17.8055 99.0102 18.1733 98.6318 18.4569 98.1927C22.0877 92.6 27.0589 88.0035 32.9186 84.8214C38.7783 81.6393 45.3405 79.9725 52.0085 79.9725C58.6764 79.9725 65.2386 81.6393 71.0983 84.8214C76.958 88.0035 81.9293 92.6 85.5601 98.1927C85.9253 98.7472 86.4227 99.2021 87.0076 99.5164C87.5924 99.8306 88.2463 99.9943 88.9102 99.9928C89.6765 100.001 90.4269 99.774 91.0604 99.3428C91.9482 98.7598 92.5715 97.8513 92.796 96.8132C93.0204 95.775 92.8281 94.6902 92.2604 93.7925C86.6908 85.2495 78.5478 78.7 69.0093 75.0916C73.5993 72.2134 77.3835 68.217 80.0072 63.4768C82.6309 58.7367 84.0082 53.4081 84.01 47.9903C84.0302 42.0332 82.3661 36.1917 79.2098 31.1395L101.261 23.7891C102.061 23.5261 102.758 23.0171 103.252 22.3347C103.746 21.6523 104.012 20.8314 104.012 19.9889C104.012 19.1465 103.746 18.3256 103.252 17.6432C102.758 16.9608 102.061 16.4518 101.261 16.1888ZM52.0085 71.9914C45.643 71.9914 39.5382 69.4628 35.0371 64.9617C30.536 60.4606 28.0073 54.3558 28.0073 47.9903C28.017 42.8687 29.6445 37.8811 32.6575 33.7396L50.7584 39.7899C51.5704 40.057 52.4466 40.057 53.2585 39.7899L71.3594 33.7396C74.3724 37.8811 76 42.8687 76.0096 47.9903C76.0096 54.3558 73.4809 60.4606 68.9799 64.9617C64.4788 69.4628 58.374 71.9914 52.0085 71.9914Z" fill="#0D0D2B"/>
</svg>
