<svg width="81" height="74" viewBox="0 0 81 74" fill="none" xmlns="http://www.w3.org/2000/svg">
<path d="M75.6948 63.7186H73.6117V61.6355C73.6117 60.8881 73.3148 60.1712 72.7863 59.6427C72.2578 59.1142 71.5409 58.8173 70.7935 58.8173H63.8091V40.7559H54.0064V58.8173H44.2038V40.7559H34.4011V58.8173H24.5984V40.7559H14.7958V58.8173H7.81139C7.06394 58.8173 6.34711 59.1142 5.81858 59.6427C5.29005 60.1712 4.99313 60.8881 4.99313 61.6355V63.7186H2.91006C2.16261 63.7186 1.44577 64.0155 0.917248 64.544C0.388721 65.0726 0.0917969 65.7894 0.0917969 66.5369V73.5213H78.5131V66.5369C78.5131 65.7894 78.2162 65.0726 77.6876 64.544C77.1591 64.0155 76.4423 63.7186 75.6948 63.7186Z" fill="white"/>
<path d="M68.708 30.6331C66.1131 30.6446 63.5454 30.1044 61.1751 29.0481C58.8049 27.9918 56.6862 26.4437 54.9598 24.5065H49.4703L39.9127 19.017L30.3551 24.5065H22.4885L38.9569 15.0469C39.255 14.8748 39.5931 14.7842 39.9372 14.7842C40.2813 14.7842 40.6194 14.8748 40.9175 15.0469L53.1708 22.0803C51.3061 19.1424 50.3198 15.7328 50.328 12.2531V11.0768L39.3 4.70508L1.31472 26.5405C1.02185 26.6937 0.763004 26.9046 0.553743 27.1604C0.344481 27.4162 0.189133 27.7118 0.0970435 28.0292C0.00495419 28.3466 -0.0219728 28.6794 0.017882 29.0075C0.0577369 29.3356 0.16355 29.6523 0.328956 29.9384C0.494362 30.2246 0.715942 30.4743 0.980367 30.6726C1.24479 30.8709 1.5466 31.0137 1.86762 31.0923C2.18865 31.1709 2.52227 31.1838 2.84841 31.1302C3.17454 31.0765 3.48646 30.9575 3.76539 30.7802L7.44138 28.6236V36.7598H71.1587V30.4371C70.3471 30.5568 69.5284 30.6223 68.708 30.6331Z" fill="white"/>
<path d="M68.7104 24.5066C75.4777 24.5066 80.9637 19.0206 80.9637 12.2533C80.9637 5.486 75.4777 0 68.7104 0C61.943 0 56.457 5.486 56.457 12.2533C56.457 19.0206 61.943 24.5066 68.7104 24.5066Z" fill="white"/>
</svg>
