<svg width="81" height="102" viewBox="0 0 81 102" fill="none" xmlns="http://www.w3.org/2000/svg">
<path d="M17.1985 98V87.0909H21.1935C21.9677 87.0909 22.6087 87.2187 23.1165 87.4744C23.6243 87.7266 24.0043 88.0692 24.2564 88.5025C24.5085 88.9322 24.6346 89.4169 24.6346 89.9567C24.6346 90.4112 24.5511 90.7947 24.3842 91.1072C24.2173 91.4162 23.9936 91.6648 23.7131 91.853C23.4361 92.0376 23.1307 92.1726 22.7969 92.2578V92.3643C23.1591 92.3821 23.5124 92.4993 23.8569 92.7159C24.2049 92.929 24.4925 93.2326 24.7198 93.6268C24.9471 94.021 25.0607 94.5004 25.0607 95.065C25.0607 95.6225 24.9293 96.1232 24.6665 96.5671C24.4073 97.0075 24.006 97.3572 23.4627 97.6165C22.9194 97.8722 22.2251 98 21.38 98H17.1985ZM18.8445 96.5884H21.2202C22.0085 96.5884 22.5732 96.4357 22.9141 96.1303C23.255 95.8249 23.4254 95.4432 23.4254 94.9851C23.4254 94.6406 23.3384 94.3246 23.1644 94.0369C22.9904 93.7493 22.7418 93.5202 22.4187 93.3498C22.0991 93.1793 21.7191 93.0941 21.2788 93.0941H18.8445V96.5884ZM18.8445 91.8104H21.0497C21.419 91.8104 21.7511 91.7393 22.0458 91.5973C22.3441 91.4553 22.5803 91.2564 22.7543 91.0007C22.9318 90.7415 23.0206 90.4361 23.0206 90.0845C23.0206 89.6335 22.8626 89.2553 22.5465 88.9499C22.2305 88.6445 21.7457 88.4918 21.0923 88.4918H18.8445V91.8104ZM29.2662 98.1811C28.7477 98.1811 28.2789 98.0852 27.8599 97.8935C27.4409 97.6982 27.1088 97.4158 26.8638 97.0465C26.6223 96.6772 26.5016 96.2244 26.5016 95.6882C26.5016 95.2266 26.5904 94.8466 26.7679 94.5483C26.9455 94.25 27.1852 94.0138 27.487 93.8398C27.7889 93.6658 28.1262 93.5344 28.4991 93.4457C28.872 93.3569 29.252 93.2894 29.639 93.2433C30.1291 93.1864 30.5268 93.1403 30.8322 93.1048C31.1376 93.0657 31.3596 93.0036 31.498 92.9183C31.6365 92.8331 31.7058 92.6946 31.7058 92.5028V92.4656C31.7058 92.0004 31.5744 91.6399 31.3116 91.3842C31.0524 91.1286 30.6653 91.0007 30.1504 91.0007C29.6142 91.0007 29.1916 91.1197 28.8826 91.3576C28.5772 91.592 28.3659 91.853 28.2488 92.1406L26.752 91.7997C26.9295 91.3026 27.1887 90.9013 27.5297 90.5959C27.8741 90.2869 28.2701 90.0632 28.7175 89.9247C29.165 89.7827 29.6355 89.7116 30.1291 89.7116C30.4558 89.7116 30.802 89.7507 31.1678 89.8288C31.5371 89.9034 31.8816 90.0419 32.2012 90.2443C32.5243 90.4467 32.7889 90.7362 32.9949 91.1126C33.2008 91.4854 33.3038 91.9702 33.3038 92.5668V98H31.7484V96.8814H31.6845C31.5815 97.0874 31.427 97.2898 31.2211 97.4886C31.0151 97.6875 30.7505 97.8526 30.4274 97.984C30.1042 98.1154 29.7172 98.1811 29.2662 98.1811ZM29.6124 96.9027C30.0527 96.9027 30.4292 96.8157 30.7417 96.6417C31.0577 96.4677 31.2974 96.2404 31.4608 95.9599C31.6277 95.6758 31.7111 95.3722 31.7111 95.049V93.9943C31.6543 94.0511 31.5442 94.1044 31.3809 94.1541C31.2211 94.2003 31.0382 94.2411 30.8322 94.2766C30.6262 94.3086 30.4256 94.3388 30.2303 94.3672C30.035 94.392 29.8716 94.4134 29.7402 94.4311C29.4313 94.4702 29.149 94.5359 28.8933 94.6282C28.6412 94.7205 28.4387 94.8537 28.286 95.0277C28.1369 95.1982 28.0623 95.4254 28.0623 95.7095C28.0623 96.1037 28.2079 96.402 28.4991 96.6044C28.7903 96.8033 29.1614 96.9027 29.6124 96.9027ZM37.0178 93.142V98H35.4252V89.8182H36.9539V91.1499H37.0551C37.2433 90.7166 37.5381 90.3686 37.9394 90.1058C38.3442 89.843 38.8538 89.7116 39.4681 89.7116C40.0257 89.7116 40.5139 89.8288 40.933 90.0632C41.352 90.294 41.6769 90.6385 41.9078 91.0966C42.1386 91.5547 42.254 92.1211 42.254 92.7958V98H40.6613V92.9876C40.6613 92.3945 40.5068 91.9311 40.1979 91.5973C39.8889 91.2599 39.4646 91.0913 38.9248 91.0913C38.5555 91.0913 38.227 91.1712 37.9394 91.331C37.6553 91.4908 37.4298 91.7251 37.2629 92.0341C37.0995 92.3395 37.0178 92.7088 37.0178 93.142ZM45.8548 95.2248L45.8442 93.2805H46.1212L49.3811 89.8182H51.2881L47.57 93.7599H47.3197L45.8548 95.2248ZM44.39 98V87.0909H45.9827V98H44.39ZM49.5569 98L46.6272 94.1115L47.7245 92.9982L51.5118 98H49.5569Z" fill="#00F0FF"/>
<path d="M75.6948 63.7186H73.6117V61.6355C73.6117 60.8881 73.3148 60.1712 72.7863 59.6427C72.2578 59.1142 71.5409 58.8173 70.7935 58.8173H63.8091V40.7559H54.0064V58.8173H44.2038V40.7559H34.4011V58.8173H24.5984V40.7559H14.7958V58.8173H7.81139C7.06394 58.8173 6.34711 59.1142 5.81858 59.6427C5.29005 60.1712 4.99313 60.8881 4.99313 61.6355V63.7186H2.91006C2.16261 63.7186 1.44577 64.0155 0.917248 64.544C0.388721 65.0726 0.0917969 65.7894 0.0917969 66.5369V73.5213H78.5131V66.5369C78.5131 65.7894 78.2162 65.0726 77.6876 64.544C77.1591 64.0155 76.4423 63.7186 75.6948 63.7186Z" fill="#00F0FF"/>
<path d="M68.708 30.6331C66.1131 30.6446 63.5454 30.1044 61.1751 29.0481C58.8049 27.9918 56.6862 26.4437 54.9598 24.5065H49.4703L39.9127 19.017L30.3551 24.5065H22.4885L38.9569 15.0469C39.255 14.8748 39.5931 14.7842 39.9372 14.7842C40.2813 14.7842 40.6194 14.8748 40.9175 15.0469L53.1708 22.0803C51.3061 19.1424 50.3198 15.7328 50.328 12.2531V11.0768L39.3 4.70508L1.31472 26.5405C1.02185 26.6937 0.763004 26.9046 0.553743 27.1604C0.344481 27.4162 0.189133 27.7118 0.0970435 28.0292C0.00495419 28.3466 -0.0219728 28.6794 0.017882 29.0075C0.0577369 29.3356 0.16355 29.6523 0.328956 29.9384C0.494362 30.2246 0.715942 30.4743 0.980367 30.6726C1.24479 30.8709 1.5466 31.0137 1.86762 31.0923C2.18865 31.1709 2.52227 31.1838 2.84841 31.1302C3.17454 31.0765 3.48646 30.9575 3.76539 30.7802L7.44138 28.6236V36.7598H71.1587V30.4371C70.3471 30.5568 69.5284 30.6223 68.708 30.6331Z" fill="#00F0FF"/>
<path d="M68.7104 24.5066C75.4777 24.5066 80.9637 19.0206 80.9637 12.2533C80.9637 5.486 75.4777 0 68.7104 0C61.943 0 56.457 5.486 56.457 12.2533C56.457 19.0206 61.943 24.5066 68.7104 24.5066Z" fill="#00F0FF"/>
</svg>
