<svg width="20" height="21" viewBox="0 0 20 21" fill="none" xmlns="http://www.w3.org/2000/svg">
<path d="M6.05641 12.4535C6.05641 12.0489 6.38442 11.7209 6.78904 11.7209H12.6501C13.0548 11.7209 13.3828 12.0489 13.3828 12.4535C13.3828 12.8581 13.0548 13.186 12.6501 13.186H6.78904C6.38442 13.186 6.05641 12.8581 6.05641 12.4535Z" fill="#23BDEE"/>
<path fill-rule="evenodd" clip-rule="evenodd" d="M6.78904 0C7.19367 0 7.52168 0.327977 7.52168 0.732558V1.96385C8.17542 1.95349 8.90181 1.95349 9.70879 1.95349H9.73039C10.5374 1.95349 11.2638 1.95349 11.9175 1.96385V0.732558C11.9175 0.327977 12.2455 0 12.6501 0C13.0548 0 13.3828 0.327977 13.3828 0.732558V2.01559C14.8597 2.10817 15.9943 2.34746 16.9285 3.0261C17.4053 3.37251 17.8247 3.79181 18.1711 4.2686C18.9544 5.3466 19.1525 6.69155 19.2152 8.52143C19.2439 9.35871 19.2439 10.3329 19.2439 11.466V11.4875C19.2439 12.6206 19.2439 13.5948 19.2152 14.4321C19.1525 16.2619 18.9544 17.6069 18.1711 18.6849C17.8247 19.1617 17.4053 19.581 16.9285 19.9274C15.8504 20.7106 14.5053 20.9086 12.6752 20.9713C11.8378 21 10.8634 21 9.73013 21H9.67536C7.88136 21 6.47509 21 5.3594 20.8791C4.22085 20.7558 3.29833 20.4996 2.51067 19.9274C2.03383 19.581 1.61449 19.1617 1.26804 18.6849C0.695776 17.8973 0.439531 16.9749 0.316176 15.8365C0.195298 14.7209 0.195305 13.3148 0.195313 11.5209L0.195313 11.4659C0.195312 10.3329 0.195312 9.35869 0.224001 8.52143C0.286702 6.69155 0.484749 5.3466 1.26804 4.2686C1.61449 3.79181 2.03383 3.37251 2.51067 3.0261C3.44485 2.34745 4.57949 2.10817 6.05641 2.01559V0.732558C6.05641 0.327977 6.38442 0 6.78904 0ZM6.05641 3.48429C4.72589 3.57578 3.95791 3.78572 3.37194 4.21141C3.01949 4.46745 2.70954 4.77736 2.45347 5.12978C2.02774 5.71569 1.81778 6.48358 1.72628 7.81395H17.7129C17.6214 6.48358 17.4114 5.71569 16.9857 5.12978C16.7296 4.77736 16.4197 4.46745 16.0672 4.21141C15.4813 3.78572 14.7133 3.57578 13.3828 3.48429V3.66279C13.3828 4.06737 13.0548 4.39535 12.6501 4.39535C12.2455 4.39535 11.9175 4.06737 11.9175 3.66279V3.42914C11.2732 3.41865 10.5475 3.4186 9.71959 3.4186C8.89164 3.4186 8.16599 3.41865 7.52168 3.42914V3.66279C7.52168 4.06737 7.19367 4.39535 6.78904 4.39535C6.38442 4.39535 6.05641 4.06737 6.05641 3.66279V3.48429ZM17.7681 9.27907H1.67112C1.66063 9.92332 1.66059 10.6489 1.66059 11.4767C1.66059 13.3243 1.66159 14.6512 1.77292 15.6787C1.88277 16.6924 2.09293 17.3275 2.45347 17.8237C2.70954 18.1761 3.01949 18.486 3.37194 18.7421C3.86818 19.1026 4.50335 19.3127 5.51723 19.4226C6.54482 19.5339 7.87181 19.5349 9.71959 19.5349C10.5483 19.5349 11.2745 19.5348 11.9193 19.5243C11.9235 19.0607 11.938 18.7194 11.9867 18.4121C12.3673 16.009 14.2523 14.1242 16.6557 13.7436C16.963 13.6949 17.3044 13.6805 17.768 13.6762C17.7785 13.0315 17.7786 12.3054 17.7786 11.4767C17.7786 10.6489 17.7785 9.92332 17.7681 9.27907ZM17.7127 15.1423C17.3171 15.1468 17.0852 15.1589 16.8849 15.1906C15.1085 15.472 13.7152 16.8651 13.4339 18.6413C13.4022 18.8416 13.3901 19.0735 13.3855 19.469C14.7143 19.3774 15.4817 19.1675 16.0672 18.7421C16.4197 18.486 16.7296 18.1761 16.9857 17.8237C17.4111 17.2382 17.6211 16.471 17.7127 15.1423Z" fill="#23BDEE"/>
</svg>
