<svg width="72" height="72" viewBox="0 0 72 72" fill="none" xmlns="http://www.w3.org/2000/svg">
<path d="M64 12H8C6.93913 12 5.92172 12.4214 5.17157 13.1716C4.42143 13.9217 4 14.9391 4 16V56C4 57.0609 4.42143 58.0783 5.17157 58.8284C5.92172 59.5786 6.93913 60 8 60H38L39.14 58.6L41 56.32L40.82 56H8V16H64V33.12C65.5194 34.1036 66.8701 35.326 68 36.74V16C68 14.9391 67.5786 13.9217 66.8284 13.1716C66.0783 12.4214 65.0609 12 64 12Z" fill="white"/>
<path d="M14 24H48V27.2H14V24Z" fill="white"/>
<path d="M14 32H36V35.2H14V32Z" fill="white"/>
<path d="M14 46H34V49.2H14V46Z" fill="white"/>
<path d="M54.9187 34.4613C52.3593 34.441 49.8534 35.1932 47.7283 36.6197C45.6033 38.0462 43.958 40.0805 43.0074 42.4568C42.0569 44.8332 41.8453 47.441 42.4004 49.9395C42.9555 52.4381 44.2513 54.711 46.1187 56.4613L42.2387 61.2013L44.0387 68.4213L51.3587 59.5013C53.6757 60.1865 56.1416 60.1865 58.4587 59.5013L65.7787 68.4213L67.5787 61.2013L63.6987 56.4613C65.566 54.711 66.8619 52.4381 67.4169 49.9395C67.972 47.441 67.7604 44.8332 66.8099 42.4568C65.8593 40.0805 64.214 38.0462 62.089 36.6197C59.9639 35.1932 57.458 34.441 54.8987 34.4613H54.9187ZM54.9187 55.8213C53.2191 55.7977 51.5645 55.2721 50.1628 54.3106C48.7611 53.3492 47.675 51.9948 47.0409 50.4178C46.4068 48.8407 46.2532 47.1114 46.5992 45.4473C46.9452 43.7832 47.7755 42.2585 48.9857 41.0649C50.1959 39.8714 51.7319 39.0622 53.4006 38.7392C55.0694 38.4162 56.7964 38.5938 58.3645 39.2496C59.9326 39.9054 61.2719 41.0102 62.2139 42.425C63.1558 43.8399 63.6585 45.5016 63.6587 47.2013C63.6375 49.5018 62.7061 51.7002 61.0682 53.3156C59.4303 54.9311 57.2192 55.832 54.9187 55.8213Z" fill="white"/>
</svg>
