<svg width="120" height="101" viewBox="0 0 120 101" fill="none" xmlns="http://www.w3.org/2000/svg">
<path d="M1.19851 97V86.0909H7.96342V87.5078H2.84446V90.8317H7.47869V92.2433H2.84446V97H1.19851ZM12.2115 97.1811C11.693 97.1811 11.2243 97.0852 10.8052 96.8935C10.3862 96.6982 10.0542 96.4158 9.80913 96.0465C9.56765 95.6772 9.44691 95.2244 9.44691 94.6882C9.44691 94.2266 9.53569 93.8466 9.71325 93.5483C9.8908 93.25 10.1305 93.0138 10.4324 92.8398C10.7342 92.6658 11.0716 92.5344 11.4444 92.4457C11.8173 92.3569 12.1973 92.2894 12.5843 92.2433C13.0744 92.1864 13.4721 92.1403 13.7775 92.1048C14.0829 92.0657 14.3049 92.0036 14.4434 91.9183C14.5819 91.8331 14.6511 91.6946 14.6511 91.5028V91.4656C14.6511 91.0004 14.5197 90.6399 14.2569 90.3842C13.9977 90.1286 13.6106 90.0007 13.0957 90.0007C12.5595 90.0007 12.1369 90.1197 11.8279 90.3576C11.5225 90.592 11.3113 90.853 11.1941 91.1406L9.69727 90.7997C9.87482 90.3026 10.1341 89.9013 10.475 89.5959C10.8194 89.2869 11.2154 89.0632 11.6628 88.9247C12.1103 88.7827 12.5808 88.7116 13.0744 88.7116C13.4011 88.7116 13.7473 88.7507 14.1131 88.8288C14.4824 88.9034 14.8269 89.0419 15.1465 89.2443C15.4696 89.4467 15.7342 89.7362 15.9402 90.1126C16.1461 90.4854 16.2491 90.9702 16.2491 91.5668V97H14.6937V95.8814H14.6298C14.5268 96.0874 14.3723 96.2898 14.1664 96.4886C13.9604 96.6875 13.6958 96.8526 13.3727 96.984C13.0495 97.1154 12.6625 97.1811 12.2115 97.1811ZM12.5577 95.9027C12.998 95.9027 13.3745 95.8157 13.687 95.6417C14.003 95.4677 14.2427 95.2404 14.4061 94.9599C14.573 94.6758 14.6564 94.3722 14.6564 94.049V92.9943C14.5996 93.0511 14.4895 93.1044 14.3262 93.1541C14.1664 93.2003 13.9835 93.2411 13.7775 93.2766C13.5716 93.3086 13.3709 93.3388 13.1756 93.3672C12.9803 93.392 12.8169 93.4134 12.6855 93.4311C12.3766 93.4702 12.0943 93.5359 11.8386 93.6282C11.5865 93.7205 11.3841 93.8537 11.2314 94.0277C11.0822 94.1982 11.0076 94.4254 11.0076 94.7095C11.0076 95.1037 11.1532 95.402 11.4444 95.6044C11.7356 95.8033 12.1067 95.9027 12.5577 95.9027ZM24.5015 90.8157L23.058 91.0714C22.9976 90.8867 22.9017 90.7109 22.7703 90.544C22.6425 90.3771 22.4685 90.2404 22.2483 90.1339C22.0281 90.0273 21.7529 89.9741 21.4227 89.9741C20.9717 89.9741 20.5953 90.0753 20.2934 90.2777C19.9916 90.4766 19.8406 90.734 19.8406 91.0501C19.8406 91.3235 19.9419 91.5437 20.1443 91.7106C20.3467 91.8775 20.6734 92.0142 21.1244 92.1207L22.4241 92.419C23.1769 92.593 23.738 92.8612 24.1073 93.2234C24.4767 93.5856 24.6613 94.0561 24.6613 94.6349C24.6613 95.125 24.5193 95.5618 24.2352 95.9453C23.9546 96.3253 23.5622 96.6236 23.058 96.8402C22.5573 97.0568 21.9767 97.1651 21.3161 97.1651C20.3999 97.1651 19.6524 96.9698 19.0736 96.5792C18.4948 96.185 18.1396 95.6257 18.0083 94.9013L19.5477 94.6669C19.6436 95.0682 19.8406 95.3718 20.1389 95.5778C20.4372 95.7802 20.8261 95.8814 21.3055 95.8814C21.8275 95.8814 22.2448 95.7731 22.5573 95.5565C22.8698 95.3363 23.026 95.0682 23.026 94.7521C23.026 94.4964 22.9301 94.2816 22.7384 94.1076C22.5502 93.9336 22.2607 93.8022 21.8701 93.7134L20.4852 93.4098C19.7217 93.2358 19.157 92.9588 18.7913 92.5788C18.4291 92.1989 18.248 91.7177 18.248 91.1353C18.248 90.6523 18.3829 90.2298 18.6528 89.8675C18.9227 89.5053 19.2955 89.223 19.7714 89.0206C20.2472 88.8146 20.7923 88.7116 21.4067 88.7116C22.2909 88.7116 22.9869 88.9034 23.4948 89.2869C24.0026 89.6669 24.3382 90.1765 24.5015 90.8157ZM28.0051 92.142V97H26.4125V86.0909H27.9838V90.1499H28.085C28.2768 89.7095 28.5698 89.3597 28.964 89.1005C29.3581 88.8413 29.873 88.7116 30.5087 88.7116C31.0698 88.7116 31.5598 88.8271 31.9789 89.0579C32.4015 89.2887 32.7282 89.6332 32.959 90.0913C33.1934 90.5458 33.3105 91.114 33.3105 91.7958V97H31.7179V91.9876C31.7179 91.3874 31.5634 90.9222 31.2544 90.592C30.9455 90.2582 30.5158 90.0913 29.9654 90.0913C29.589 90.0913 29.2516 90.1712 28.9533 90.331C28.6586 90.4908 28.426 90.7251 28.2555 91.0341C28.0886 91.3395 28.0051 91.7088 28.0051 92.142ZM35.4359 97V88.8182H37.0286V97H35.4359ZM36.2402 87.5558C35.9632 87.5558 35.7253 87.4634 35.5265 87.2788C35.3311 87.0906 35.2335 86.8668 35.2335 86.6076C35.2335 86.3448 35.3311 86.1211 35.5265 85.9364C35.7253 85.7482 35.9632 85.6541 36.2402 85.6541C36.5172 85.6541 36.7534 85.7482 36.9487 85.9364C37.1475 86.1211 37.247 86.3448 37.247 86.6076C37.247 86.8668 37.1475 87.0906 36.9487 87.2788C36.7534 87.4634 36.5172 87.5558 36.2402 87.5558ZM42.6176 97.1651C41.8506 97.1651 41.1812 96.9893 40.6095 96.6378C40.0377 96.2862 39.5938 95.7944 39.2778 95.1623C38.9617 94.5302 38.8037 93.7915 38.8037 92.9464C38.8037 92.0977 38.9617 91.3555 39.2778 90.7198C39.5938 90.0842 40.0377 89.5906 40.6095 89.239C41.1812 88.8874 41.8506 88.7116 42.6176 88.7116C43.3847 88.7116 44.0541 88.8874 44.6258 89.239C45.1975 89.5906 45.6414 90.0842 45.9575 90.7198C46.2735 91.3555 46.4316 92.0977 46.4316 92.9464C46.4316 93.7915 46.2735 94.5302 45.9575 95.1623C45.6414 95.7944 45.1975 96.2862 44.6258 96.6378C44.0541 96.9893 43.3847 97.1651 42.6176 97.1651ZM42.623 95.8281C43.1201 95.8281 43.532 95.6967 43.8588 95.4339C44.1855 95.1712 44.4269 94.8214 44.5832 94.3846C44.743 93.9478 44.8229 93.4666 44.8229 92.9411C44.8229 92.419 44.743 91.9396 44.5832 91.5028C44.4269 91.0625 44.1855 90.7092 43.8588 90.4428C43.532 90.1765 43.1201 90.0433 42.623 90.0433C42.1222 90.0433 41.7068 90.1765 41.3765 90.4428C41.0498 90.7092 40.8066 91.0625 40.6468 91.5028C40.4905 91.9396 40.4124 92.419 40.4124 92.9411C40.4124 93.4666 40.4905 93.9478 40.6468 94.3846C40.8066 94.8214 41.0498 95.1712 41.3765 95.4339C41.7068 95.6967 42.1222 95.8281 42.623 95.8281ZM49.802 92.142V97H48.2093V88.8182H49.7381V90.1499H49.8393C50.0275 89.7166 50.3223 89.3686 50.7235 89.1058C51.1284 88.843 51.638 88.7116 52.2523 88.7116C52.8098 88.7116 53.2981 88.8288 53.7172 89.0632C54.1362 89.294 54.4611 89.6385 54.6919 90.0966C54.9228 90.5547 55.0382 91.1211 55.0382 91.7958V97H53.4455V91.9876C53.4455 91.3945 53.291 90.9311 52.9821 90.5973C52.6731 90.2599 52.2488 90.0913 51.709 90.0913C51.3397 90.0913 51.0112 90.1712 50.7235 90.331C50.4395 90.4908 50.214 90.7251 50.0471 91.0341C49.8837 91.3395 49.802 91.7088 49.802 92.142ZM62.9177 86.0909V97H61.2718V86.0909H62.9177ZM66.7796 92.142V97H65.1869V88.8182H66.7156V90.1499H66.8169C67.0051 89.7166 67.2998 89.3686 67.7011 89.1058C68.1059 88.843 68.6155 88.7116 69.2298 88.7116C69.7874 88.7116 70.2757 88.8288 70.6947 89.0632C71.1137 89.294 71.4387 89.6385 71.6695 90.0966C71.9003 90.5547 72.0157 91.1211 72.0157 91.7958V97H70.423V91.9876C70.423 91.3945 70.2686 90.9311 69.9596 90.5973C69.6507 90.2599 69.2263 90.0913 68.6865 90.0913C68.3172 90.0913 67.9887 90.1712 67.7011 90.331C67.417 90.4908 67.1915 90.7251 67.0246 91.0341C66.8612 91.3395 66.7796 91.7088 66.7796 92.142ZM77.2146 97.1598C76.5541 97.1598 75.9646 96.9911 75.4461 96.6538C74.9312 96.3129 74.5264 95.8281 74.2316 95.1996C73.9404 94.5675 73.7948 93.8093 73.7948 92.9251C73.7948 92.0408 73.9422 91.2844 74.2369 90.6559C74.5352 90.0273 74.9436 89.5462 75.4621 89.2124C75.9806 88.8786 76.5683 88.7116 77.2252 88.7116C77.733 88.7116 78.1414 88.7969 78.4504 88.9673C78.7629 89.1342 79.0044 89.3295 79.1748 89.5533C79.3488 89.777 79.4838 89.9741 79.5796 90.1445H79.6755V86.0909H81.2682V97H79.7128V95.7269H79.5796C79.4838 95.9009 79.3453 96.0998 79.1642 96.3235C78.9866 96.5472 78.7416 96.7425 78.4291 96.9094C78.1166 97.0763 77.7117 97.1598 77.2146 97.1598ZM77.5661 95.8015C78.0242 95.8015 78.4113 95.6808 78.7274 95.4393C79.047 95.1942 79.2884 94.8551 79.4518 94.4219C79.6187 93.9886 79.7021 93.4844 79.7021 92.9091C79.7021 92.3409 79.6205 91.8437 79.4571 91.4176C79.2938 90.9915 79.0541 90.6594 78.738 90.4215C78.422 90.1836 78.0313 90.0646 77.5661 90.0646C77.0867 90.0646 76.6872 90.1889 76.3676 90.4375C76.048 90.6861 75.8066 91.0252 75.6432 91.4549C75.4834 91.8846 75.4035 92.3693 75.4035 92.9091C75.4035 93.456 75.4852 93.9478 75.6485 94.3846C75.8119 94.8214 76.0534 95.1676 76.373 95.4233C76.6961 95.6754 77.0938 95.8015 77.5661 95.8015ZM88.7243 93.6069V88.8182H90.3223V97H88.7562V95.5831H88.671C88.4828 96.0199 88.1809 96.3839 87.7654 96.6751C87.3535 96.9627 86.8404 97.1065 86.226 97.1065C85.7005 97.1065 85.2353 96.9911 84.8304 96.7603C84.4292 96.5259 84.1131 96.1797 83.8823 95.7216C83.655 95.2635 83.5414 94.6971 83.5414 94.0224V88.8182H85.1341V93.8306C85.1341 94.3881 85.2885 94.832 85.5975 95.1623C85.9064 95.4925 86.3077 95.6577 86.8013 95.6577C87.0996 95.6577 87.3961 95.5831 87.6909 95.4339C87.9892 95.2848 88.236 95.0593 88.4313 94.7575C88.6301 94.4556 88.7278 94.0721 88.7243 93.6069ZM98.5933 90.8157L97.1498 91.0714C97.0894 90.8867 96.9935 90.7109 96.8621 90.544C96.7343 90.3771 96.5603 90.2404 96.3401 90.1339C96.1199 90.0273 95.8447 89.9741 95.5145 89.9741C95.0635 89.9741 94.6871 90.0753 94.3852 90.2777C94.0834 90.4766 93.9324 90.734 93.9324 91.0501C93.9324 91.3235 94.0336 91.5437 94.2361 91.7106C94.4385 91.8775 94.7652 92.0142 95.2162 92.1207L96.5159 92.419C97.2687 92.593 97.8298 92.8612 98.1991 93.2234C98.5684 93.5856 98.7531 94.0561 98.7531 94.6349C98.7531 95.125 98.6111 95.5618 98.327 95.9453C98.0464 96.3253 97.654 96.6236 97.1498 96.8402C96.6491 97.0568 96.0684 97.1651 95.4079 97.1651C94.4917 97.1651 93.7442 96.9698 93.1654 96.5792C92.5866 96.185 92.2314 95.6257 92.1001 94.9013L93.6395 94.6669C93.7354 95.0682 93.9324 95.3718 94.2307 95.5778C94.529 95.7802 94.9179 95.8814 95.3973 95.8814C95.9193 95.8814 96.3366 95.7731 96.6491 95.5565C96.9616 95.3363 97.1178 95.0682 97.1178 94.7521C97.1178 94.4964 97.0219 94.2816 96.8302 94.1076C96.642 93.9336 96.3525 93.8022 95.9619 93.7134L94.577 93.4098C93.8135 93.2358 93.2488 92.9588 92.8831 92.5788C92.5209 92.1989 92.3398 91.7177 92.3398 91.1353C92.3398 90.6523 92.4747 90.2298 92.7446 89.8675C93.0145 89.5053 93.3873 89.223 93.8632 89.0206C94.339 88.8146 94.8841 88.7116 95.4985 88.7116C96.3827 88.7116 97.0787 88.9034 97.5866 89.2869C98.0944 89.6669 98.43 90.1765 98.5933 90.8157ZM104.324 88.8182V90.0966H99.8544V88.8182H104.324ZM101.053 86.858H102.646V94.5977C102.646 94.9066 102.692 95.1392 102.784 95.2955C102.876 95.4482 102.995 95.5529 103.141 95.6097C103.29 95.663 103.452 95.6896 103.626 95.6896C103.754 95.6896 103.865 95.6808 103.961 95.663C104.057 95.6452 104.132 95.631 104.185 95.6204L104.473 96.9361C104.38 96.9716 104.249 97.0071 104.078 97.0426C103.908 97.0817 103.695 97.103 103.439 97.1065C103.02 97.1136 102.63 97.0391 102.267 96.8828C101.905 96.7266 101.612 96.4851 101.388 96.1584C101.165 95.8317 101.053 95.4215 101.053 94.9279V86.858ZM106.085 97V88.8182H107.625V90.1179H107.71C107.859 89.6776 108.122 89.3313 108.498 89.0792C108.878 88.8235 109.308 88.6957 109.787 88.6957C109.887 88.6957 110.004 88.6992 110.139 88.7063C110.277 88.7134 110.386 88.7223 110.464 88.733V90.2564C110.4 90.2386 110.286 90.2191 110.123 90.1978C109.96 90.1729 109.796 90.1605 109.633 90.1605C109.256 90.1605 108.921 90.2404 108.626 90.4002C108.335 90.5565 108.104 90.7749 107.934 91.0554C107.763 91.3324 107.678 91.6484 107.678 92.0036V97H106.085ZM113.098 100.068C112.86 100.068 112.643 100.049 112.448 100.01C112.253 99.9741 112.107 99.935 112.011 99.8924L112.395 98.5874C112.686 98.6655 112.945 98.6992 113.172 98.6886C113.4 98.6779 113.6 98.5927 113.774 98.4329C113.952 98.2731 114.108 98.0121 114.243 97.6499L114.44 97.1065L111.447 88.8182H113.151L115.223 95.1676H115.309L117.381 88.8182H119.09L115.719 98.092C115.562 98.5181 115.364 98.8786 115.122 99.1733C114.881 99.4716 114.593 99.6953 114.259 99.8445C113.925 99.9936 113.538 100.068 113.098 100.068Z" fill="#F1511B"/>
<path d="M27.9664 6.3875C28.0821 4.655 28.8521 3.03127 30.1203 1.84526C31.3885 0.659238 33.0601 -0.000389979 34.7964 1.72974e-07H39.9475C41.6838 -0.000389979 43.3554 0.659238 44.6236 1.84526C45.8918 3.03127 46.6618 4.655 46.7775 6.3875L50.7287 65.7C50.7911 66.6348 50.661 67.5725 50.3463 68.455C50.0316 69.3375 49.539 70.146 48.8991 70.8303C48.2593 71.5147 47.4857 72.0604 46.6263 72.4336C45.7669 72.8068 44.8401 72.9996 43.9032 73H30.8407C29.9038 72.9996 28.977 72.8068 28.1176 72.4336C27.2582 72.0604 26.4846 71.5147 25.8447 70.8303C25.2049 70.146 24.7123 69.3375 24.3976 68.455C24.0829 67.5725 23.9528 66.6348 24.0152 65.7L27.9664 6.3875ZM53.0282 73C54.6068 70.9013 55.4737 68.2413 55.282 65.3989L52.905 29.7201L70.0645 14.2715C70.3923 13.9756 70.799 13.7813 71.2351 13.712C71.6712 13.6427 72.118 13.7015 72.5213 13.8812C72.9247 14.0609 73.2672 14.3538 73.5074 14.7243C73.7475 15.0949 73.875 15.5272 73.8742 15.9688V31.3763L92.877 14.2715C93.2048 13.9756 93.6115 13.7813 94.0476 13.712C94.4837 13.6427 94.9305 13.7015 95.3338 13.8812C95.7372 14.0609 96.0797 14.3538 96.3199 14.7243C96.56 15.0949 96.6875 15.5272 96.6867 15.9688V66.1562C96.6867 67.9713 95.9657 69.7121 94.6822 70.9955C93.3988 72.279 91.6581 73 89.843 73H53.0236H53.0282ZM87.5617 68.4375V49.275C87.5617 48.307 87.1772 47.3786 86.4927 46.6941C85.8082 46.0096 84.8798 45.625 83.9117 45.625H68.3992C67.4312 45.625 66.5028 46.0096 65.8183 46.6941C65.1338 47.3786 64.7492 48.307 64.7492 49.275V68.4375H87.5617Z" fill="#F1511B"/>
</svg>
