<svg width="73" height="73" viewBox="0 0 73 73" fill="none" xmlns="http://www.w3.org/2000/svg">
<path d="M3.96635 6.3875C4.08211 4.655 4.85207 3.03127 6.12027 1.84526C7.38846 0.659238 9.06005 -0.000389979 10.7964 1.72974e-07H15.9475C17.6838 -0.000389979 19.3554 0.659238 20.6236 1.84526C21.8918 3.03127 22.6618 4.655 22.7775 6.3875L26.7287 65.7C26.7911 66.6348 26.661 67.5725 26.3463 68.455C26.0316 69.3375 25.539 70.146 24.8991 70.8303C24.2593 71.5147 23.4857 72.0604 22.6263 72.4336C21.7669 72.8068 20.8401 72.9996 19.9032 73H6.84073C5.90381 72.9996 4.97696 72.8068 4.11759 72.4336C3.25822 72.0604 2.48463 71.5147 1.84475 70.8303C1.20487 70.146 0.712318 69.3375 0.397617 68.455C0.0829158 67.5725 -0.0472351 66.6348 0.0152259 65.7L3.96635 6.3875ZM29.0282 73C30.6068 70.9013 31.4737 68.2413 31.282 65.3989L28.905 29.7201L46.0645 14.2715C46.3923 13.9756 46.799 13.7813 47.2351 13.712C47.6712 13.6427 48.118 13.7015 48.5213 13.8812C48.9247 14.0609 49.2672 14.3538 49.5074 14.7243C49.7475 15.0949 49.875 15.5272 49.8742 15.9688V31.3763L68.877 14.2715C69.2048 13.9756 69.6115 13.7813 70.0476 13.712C70.4837 13.6427 70.9305 13.7015 71.3338 13.8812C71.7372 14.0609 72.0797 14.3538 72.3199 14.7243C72.56 15.0949 72.6875 15.5272 72.6867 15.9688V66.1562C72.6867 67.9713 71.9657 69.7121 70.6822 70.9955C69.3988 72.279 67.6581 73 65.843 73H29.0236H29.0282ZM63.5617 68.4375V49.275C63.5617 48.307 63.1772 47.3786 62.4927 46.6941C61.8082 46.0096 60.8798 45.625 59.9117 45.625H44.3992C43.4312 45.625 42.5028 46.0096 41.8183 46.6941C41.1338 47.3786 40.7492 48.307 40.7492 49.275V68.4375H63.5617Z" fill="white"/>
</svg>
