<svg width="281" height="298" viewBox="0 0 281 298" fill="none" xmlns="http://www.w3.org/2000/svg">
<g filter="url(#filter0_d_898_1183)">
<path d="M76 82.8868C76 79.0833 79.0833 76 82.8868 76H198.113C201.917 76 205 79.0833 205 82.8868V204.783C205 214.292 197.292 222 187.783 222H82.8868C79.0833 222 76 218.917 76 215.113V82.8868Z" fill="white"/>
<path d="M128.795 148.248V160.008C128.795 161.64 128.323 162.912 127.379 163.824C126.435 164.72 125.171 165.168 123.587 165.168C121.987 165.168 120.691 164.704 119.699 163.776C118.723 162.848 118.235 161.552 118.235 159.888H121.595C121.611 160.608 121.779 161.168 122.099 161.568C122.435 161.968 122.915 162.168 123.539 162.168C124.147 162.168 124.611 161.976 124.931 161.592C125.251 161.208 125.411 160.68 125.411 160.008V148.248H128.795ZM138.619 165.216C137.339 165.216 136.187 164.936 135.163 164.376C134.139 163.8 133.331 162.992 132.739 161.952C132.163 160.912 131.875 159.712 131.875 158.352C131.875 156.992 132.171 155.792 132.763 154.752C133.371 153.712 134.195 152.912 135.235 152.352C136.275 151.776 137.435 151.488 138.715 151.488C139.995 151.488 141.155 151.776 142.195 152.352C143.235 152.912 144.051 153.712 144.643 154.752C145.251 155.792 145.555 156.992 145.555 158.352C145.555 159.712 145.243 160.912 144.619 161.952C144.011 162.992 143.179 163.8 142.123 164.376C141.083 164.936 139.915 165.216 138.619 165.216ZM138.619 162.288C139.227 162.288 139.795 162.144 140.323 161.856C140.867 161.552 141.299 161.104 141.619 160.512C141.939 159.92 142.099 159.2 142.099 158.352C142.099 157.088 141.763 156.12 141.091 155.448C140.435 154.76 139.627 154.416 138.667 154.416C137.707 154.416 136.899 154.76 136.243 155.448C135.603 156.12 135.283 157.088 135.283 158.352C135.283 159.616 135.595 160.592 136.219 161.28C136.859 161.952 137.659 162.288 138.619 162.288ZM151.379 153.648C151.811 153.008 152.403 152.488 153.155 152.088C153.923 151.688 154.795 151.488 155.771 151.488C156.907 151.488 157.931 151.768 158.843 152.328C159.771 152.888 160.499 153.688 161.027 154.728C161.571 155.752 161.843 156.944 161.843 158.304C161.843 159.664 161.571 160.872 161.027 161.928C160.499 162.968 159.771 163.776 158.843 164.352C157.931 164.928 156.907 165.216 155.771 165.216C154.779 165.216 153.907 165.024 153.155 164.64C152.419 164.24 151.827 163.728 151.379 163.104V165H148.019V147.24H151.379V153.648ZM158.411 158.304C158.411 157.504 158.243 156.816 157.907 156.24C157.587 155.648 157.155 155.2 156.611 154.896C156.083 154.592 155.507 154.44 154.883 154.44C154.275 154.44 153.699 154.6 153.155 154.92C152.627 155.224 152.195 155.672 151.859 156.264C151.539 156.856 151.379 157.552 151.379 158.352C151.379 159.152 151.539 159.848 151.859 160.44C152.195 161.032 152.627 161.488 153.155 161.808C153.699 162.112 154.275 162.264 154.883 162.264C155.507 162.264 156.083 162.104 156.611 161.784C157.155 161.464 157.587 161.008 157.907 160.416C158.243 159.824 158.411 159.12 158.411 158.304Z" fill="#5C5BFD"/>
<path d="M90.2958 189.112C89.2505 189.112 88.2905 188.867 87.4158 188.376C86.5411 187.885 85.8478 187.208 85.3358 186.344C84.8238 185.469 84.5678 184.483 84.5678 183.384C84.5678 182.296 84.8238 181.32 85.3358 180.456C85.8478 179.581 86.5411 178.899 87.4158 178.408C88.2905 177.917 89.2505 177.672 90.2958 177.672C91.3518 177.672 92.3118 177.917 93.1758 178.408C94.0505 178.899 94.7385 179.581 95.2398 180.456C95.7518 181.32 96.0078 182.296 96.0078 183.384C96.0078 184.483 95.7518 185.469 95.2398 186.344C94.7385 187.208 94.0505 187.885 93.1758 188.376C92.3011 188.867 91.3411 189.112 90.2958 189.112ZM90.2958 187.112C90.9678 187.112 91.5598 186.963 92.0718 186.664C92.5838 186.355 92.9838 185.917 93.2718 185.352C93.5598 184.787 93.7038 184.131 93.7038 183.384C93.7038 182.637 93.5598 181.987 93.2718 181.432C92.9838 180.867 92.5838 180.435 92.0718 180.136C91.5598 179.837 90.9678 179.688 90.2958 179.688C89.6238 179.688 89.0265 179.837 88.5038 180.136C87.9918 180.435 87.5918 180.867 87.3038 181.432C87.0158 181.987 86.8718 182.637 86.8718 183.384C86.8718 184.131 87.0158 184.787 87.3038 185.352C87.5918 185.917 87.9918 186.355 88.5038 186.664C89.0265 186.963 89.6238 187.112 90.2958 187.112ZM99.9143 181.416C100.202 181.011 100.597 180.675 101.098 180.408C101.61 180.131 102.192 179.992 102.842 179.992C103.6 179.992 104.282 180.179 104.89 180.552C105.509 180.925 105.994 181.459 106.346 182.152C106.709 182.835 106.89 183.629 106.89 184.536C106.89 185.443 106.709 186.248 106.346 186.952C105.994 187.645 105.509 188.184 104.89 188.568C104.282 188.952 103.6 189.144 102.842 189.144C102.192 189.144 101.616 189.011 101.114 188.744C100.624 188.477 100.224 188.141 99.9143 187.736V193.224H97.6743V180.136H99.9143V181.416ZM104.602 184.536C104.602 184.003 104.49 183.544 104.266 183.16C104.053 182.765 103.765 182.467 103.402 182.264C103.05 182.061 102.666 181.96 102.25 181.96C101.845 181.96 101.461 182.067 101.098 182.28C100.746 182.483 100.458 182.781 100.234 183.176C100.021 183.571 99.9143 184.035 99.9143 184.568C99.9143 185.101 100.021 185.565 100.234 185.96C100.458 186.355 100.746 186.659 101.098 186.872C101.461 187.075 101.845 187.176 102.25 187.176C102.666 187.176 103.05 187.069 103.402 186.856C103.765 186.643 104.053 186.339 104.266 185.944C104.49 185.549 104.602 185.08 104.602 184.536ZM110.758 181.416C111.046 181.011 111.441 180.675 111.942 180.408C112.454 180.131 113.035 179.992 113.686 179.992C114.443 179.992 115.126 180.179 115.734 180.552C116.353 180.925 116.838 181.459 117.19 182.152C117.553 182.835 117.734 183.629 117.734 184.536C117.734 185.443 117.553 186.248 117.19 186.952C116.838 187.645 116.353 188.184 115.734 188.568C115.126 188.952 114.443 189.144 113.686 189.144C113.035 189.144 112.459 189.011 111.958 188.744C111.467 188.477 111.067 188.141 110.758 187.736V193.224H108.518V180.136H110.758V181.416ZM115.446 184.536C115.446 184.003 115.334 183.544 115.11 183.16C114.897 182.765 114.609 182.467 114.246 182.264C113.894 182.061 113.51 181.96 113.094 181.96C112.689 181.96 112.305 182.067 111.942 182.28C111.59 182.483 111.302 182.781 111.078 183.176C110.865 183.571 110.758 184.035 110.758 184.568C110.758 185.101 110.865 185.565 111.078 185.96C111.302 186.355 111.59 186.659 111.942 186.872C112.305 187.075 112.689 187.176 113.094 187.176C113.51 187.176 113.894 187.069 114.246 186.856C114.609 186.643 114.897 186.339 115.11 185.944C115.334 185.549 115.446 185.08 115.446 184.536ZM123.298 189.144C122.444 189.144 121.676 188.957 120.994 188.584C120.311 188.2 119.772 187.661 119.378 186.968C118.994 186.275 118.802 185.475 118.802 184.568C118.802 183.661 118.999 182.861 119.394 182.168C119.799 181.475 120.348 180.941 121.042 180.568C121.735 180.184 122.508 179.992 123.362 179.992C124.215 179.992 124.988 180.184 125.682 180.568C126.375 180.941 126.919 181.475 127.314 182.168C127.719 182.861 127.922 183.661 127.922 184.568C127.922 185.475 127.714 186.275 127.298 186.968C126.892 187.661 126.338 188.2 125.634 188.584C124.94 188.957 124.162 189.144 123.298 189.144ZM123.298 187.192C123.703 187.192 124.082 187.096 124.434 186.904C124.796 186.701 125.084 186.403 125.298 186.008C125.511 185.613 125.618 185.133 125.618 184.568C125.618 183.725 125.394 183.08 124.946 182.632C124.508 182.173 123.97 181.944 123.33 181.944C122.69 181.944 122.151 182.173 121.714 182.632C121.287 183.08 121.074 183.725 121.074 184.568C121.074 185.411 121.282 186.061 121.698 186.52C122.124 186.968 122.658 187.192 123.298 187.192ZM131.805 181.512C132.093 181.043 132.466 180.675 132.925 180.408C133.394 180.141 133.928 180.008 134.525 180.008V182.36H133.933C133.229 182.36 132.696 182.525 132.333 182.856C131.981 183.187 131.805 183.763 131.805 184.584V189H129.565V180.136H131.805V181.512ZM138.642 181.976V186.264C138.642 186.563 138.711 186.781 138.85 186.92C138.999 187.048 139.244 187.112 139.586 187.112H140.626V189H139.218C137.33 189 136.386 188.083 136.386 186.248V181.976H135.33V180.136H136.386V177.944H138.642V180.136H140.626V181.976H138.642ZM150.605 180.136V189H148.349V187.88C148.061 188.264 147.682 188.568 147.213 188.792C146.754 189.005 146.253 189.112 145.709 189.112C145.015 189.112 144.402 188.968 143.869 188.68C143.335 188.381 142.914 187.949 142.605 187.384C142.306 186.808 142.157 186.125 142.157 185.336V180.136H144.397V185.016C144.397 185.72 144.573 186.264 144.925 186.648C145.277 187.021 145.757 187.208 146.365 187.208C146.983 187.208 147.469 187.021 147.821 186.648C148.173 186.264 148.349 185.72 148.349 185.016V180.136H150.605ZM157.727 180.008C158.783 180.008 159.636 180.344 160.287 181.016C160.938 181.677 161.263 182.605 161.263 183.8V189H159.023V184.104C159.023 183.4 158.847 182.861 158.495 182.488C158.143 182.104 157.663 181.912 157.055 181.912C156.436 181.912 155.946 182.104 155.583 182.488C155.231 182.861 155.055 183.4 155.055 184.104V189H152.815V180.136H155.055V181.24C155.354 180.856 155.732 180.557 156.191 180.344C156.66 180.12 157.172 180.008 157.727 180.008ZM164.529 179.08C164.134 179.08 163.804 178.957 163.537 178.712C163.281 178.456 163.153 178.141 163.153 177.768C163.153 177.395 163.281 177.085 163.537 176.84C163.804 176.584 164.134 176.456 164.529 176.456C164.924 176.456 165.249 176.584 165.505 176.84C165.772 177.085 165.905 177.395 165.905 177.768C165.905 178.141 165.772 178.456 165.505 178.712C165.249 178.957 164.924 179.08 164.529 179.08ZM165.633 180.136V189H163.393V180.136H165.633ZM170.454 181.976V186.264C170.454 186.563 170.524 186.781 170.662 186.92C170.812 187.048 171.057 187.112 171.398 187.112H172.438V189H171.03C169.142 189 168.198 188.083 168.198 186.248V181.976H167.142V180.136H168.198V177.944H170.454V180.136H172.438V181.976H170.454ZM175.185 179.08C174.791 179.08 174.46 178.957 174.193 178.712C173.937 178.456 173.809 178.141 173.809 177.768C173.809 177.395 173.937 177.085 174.193 176.84C174.46 176.584 174.791 176.456 175.185 176.456C175.58 176.456 175.905 176.584 176.161 176.84C176.428 177.085 176.561 177.395 176.561 177.768C176.561 178.141 176.428 178.456 176.161 178.712C175.905 178.957 175.58 179.08 175.185 179.08ZM176.289 180.136V189H174.049V180.136H176.289ZM186.742 184.376C186.742 184.696 186.721 184.984 186.678 185.24H180.198C180.252 185.88 180.476 186.381 180.87 186.744C181.265 187.107 181.75 187.288 182.326 187.288C183.158 187.288 183.75 186.931 184.102 186.216H186.518C186.262 187.069 185.772 187.773 185.046 188.328C184.321 188.872 183.43 189.144 182.374 189.144C181.521 189.144 180.753 188.957 180.07 188.584C179.398 188.2 178.87 187.661 178.486 186.968C178.113 186.275 177.926 185.475 177.926 184.568C177.926 183.651 178.113 182.845 178.486 182.152C178.86 181.459 179.382 180.925 180.054 180.552C180.726 180.179 181.5 179.992 182.374 179.992C183.217 179.992 183.969 180.173 184.63 180.536C185.302 180.899 185.82 181.416 186.182 182.088C186.556 182.749 186.742 183.512 186.742 184.376ZM184.422 183.736C184.412 183.16 184.204 182.701 183.798 182.36C183.393 182.008 182.897 181.832 182.31 181.832C181.756 181.832 181.286 182.003 180.902 182.344C180.529 182.675 180.3 183.139 180.214 183.736H184.422ZM191.769 189.144C191.044 189.144 190.393 189.016 189.817 188.76C189.241 188.493 188.783 188.136 188.441 187.688C188.111 187.24 187.929 186.744 187.897 186.2H190.153C190.196 186.541 190.361 186.824 190.649 187.048C190.948 187.272 191.316 187.384 191.753 187.384C192.18 187.384 192.511 187.299 192.745 187.128C192.991 186.957 193.113 186.739 193.113 186.472C193.113 186.184 192.964 185.971 192.665 185.832C192.377 185.683 191.913 185.523 191.273 185.352C190.612 185.192 190.068 185.027 189.641 184.856C189.225 184.685 188.863 184.424 188.553 184.072C188.255 183.72 188.105 183.245 188.105 182.648C188.105 182.157 188.244 181.709 188.521 181.304C188.809 180.899 189.215 180.579 189.737 180.344C190.271 180.109 190.895 179.992 191.609 179.992C192.665 179.992 193.508 180.259 194.137 180.792C194.767 181.315 195.113 182.024 195.177 182.92H193.033C193.001 182.568 192.852 182.291 192.585 182.088C192.329 181.875 191.983 181.768 191.545 181.768C191.14 181.768 190.825 181.843 190.601 181.992C190.388 182.141 190.281 182.349 190.281 182.616C190.281 182.915 190.431 183.144 190.729 183.304C191.028 183.453 191.492 183.608 192.121 183.768C192.761 183.928 193.289 184.093 193.705 184.264C194.121 184.435 194.479 184.701 194.777 185.064C195.087 185.416 195.247 185.885 195.257 186.472C195.257 186.984 195.113 187.443 194.825 187.848C194.548 188.253 194.143 188.573 193.609 188.808C193.087 189.032 192.473 189.144 191.769 189.144Z" fill="#333333"/>
<path d="M119 170.999C130.667 169.832 154.8 168.199 158 170.999" stroke="#5C5BFD" stroke-width="2" stroke-linecap="round"/>
<rect x="120" y="88" width="41" height="41" rx="20.5" fill="#ADACFD" fill-opacity="0.5"/>
<path d="M135.228 104.4V100.886C135.228 100.264 135.475 99.6685 135.914 99.2292C136.354 98.7898 136.95 98.543 137.571 98.543H142.257C142.878 98.543 143.474 98.7898 143.913 99.2292C144.353 99.6685 144.6 100.264 144.6 100.886V104.4H148.114C148.735 104.4 149.331 104.647 149.771 105.086C150.21 105.526 150.457 106.122 150.457 106.743V117.286C150.457 117.907 150.21 118.503 149.771 118.942C149.331 119.382 148.735 119.629 148.114 119.629H131.714C131.093 119.629 130.497 119.382 130.057 118.942C129.618 118.503 129.371 117.907 129.371 117.286V106.743C129.371 106.122 129.618 105.526 130.057 105.086C130.497 104.647 131.093 104.4 131.714 104.4H135.228ZM131.714 106.743V117.286H148.114V106.743H144.597V110.257H142.257V106.743H137.571V110.257H135.228V106.743H131.714ZM137.571 104.4H142.257V100.886H137.571V104.4Z" fill="#5C5BFD"/>
</g>
<defs>
<filter id="filter0_d_898_1183" x="0" y="0" width="281" height="298" filterUnits="userSpaceOnUse" color-interpolation-filters="sRGB">
<feFlood flood-opacity="0" result="BackgroundImageFix"/>
<feColorMatrix in="SourceAlpha" type="matrix" values="0 0 0 0 0 0 0 0 0 0 0 0 0 0 0 0 0 0 127 0" result="hardAlpha"/>
<feOffset/>
<feGaussianBlur stdDeviation="38"/>
<feComposite in2="hardAlpha" operator="out"/>
<feColorMatrix type="matrix" values="0 0 0 0 0.4375 0 0 0 0 0.4375 0 0 0 0 0.4375 0 0 0 0.25 0"/>
<feBlend mode="normal" in2="BackgroundImageFix" result="effect1_dropShadow_898_1183"/>
<feBlend mode="normal" in="SourceGraphic" in2="effect1_dropShadow_898_1183" result="shape"/>
</filter>
</defs>
</svg>
