<svg width="50" height="50" viewBox="0 0 50 50" fill="none" xmlns="http://www.w3.org/2000/svg">
<rect width="50" height="50" rx="25" fill="#5C5BFD" fill-opacity="0.5"/>
<path d="M35.1492 22.6562H29.1492C29.0461 22.6562 28.9617 22.7406 28.9617 22.8438V23.9688C28.9617 24.0719 29.0461 24.1562 29.1492 24.1562H35.1492C35.2523 24.1562 35.3367 24.0719 35.3367 23.9688V22.8438C35.3367 22.7406 35.2523 22.6562 35.1492 22.6562ZM32.0086 25.8438H29.1492C29.0461 25.8438 28.9617 25.9281 28.9617 26.0312V27.1562C28.9617 27.2594 29.0461 27.3438 29.1492 27.3438H32.0086C32.1117 27.3438 32.1961 27.2594 32.1961 27.1562V26.0312C32.1961 25.9281 32.1117 25.8438 32.0086 25.8438ZM24.1875 20.5586H23.1727C23.0273 20.5586 22.9102 20.6758 22.9102 20.8211V26.6336C22.9102 26.718 22.95 26.7953 23.018 26.8445L26.5078 29.3898C26.625 29.4742 26.7891 29.4508 26.8734 29.3336L27.4758 28.5109V28.5086C27.5602 28.3914 27.5344 28.2273 27.4172 28.143L24.4477 25.9961V20.8211C24.45 20.6758 24.3305 20.5586 24.1875 20.5586Z" fill="white"/>
<path d="M31.8625 28.7929H30.5078C30.3766 28.7929 30.2524 28.8609 30.182 28.9734C29.8844 29.4445 29.5375 29.8804 29.1391 30.2788C28.4524 30.9656 27.6531 31.5046 26.7649 31.8796C25.8438 32.2687 24.8664 32.4656 23.8586 32.4656C22.8485 32.4656 21.8711 32.2687 20.9524 31.8796C20.0641 31.5046 19.2649 30.9656 18.5781 30.2788C17.8914 29.5921 17.3524 28.7929 16.9774 27.9046C16.5883 26.9859 16.3914 26.0085 16.3914 24.9984C16.3914 23.9882 16.5883 23.0132 16.9774 22.0921C17.3524 21.2038 17.8914 20.4046 18.5781 19.7179C19.2649 19.0312 20.0641 18.4921 20.9524 18.1171C21.8711 17.7281 22.8508 17.5312 23.8586 17.5312C24.8688 17.5312 25.8461 17.7281 26.7649 18.1171C27.6531 18.4921 28.4524 19.0312 29.1391 19.7179C29.5375 20.1163 29.8844 20.5523 30.182 21.0234C30.2524 21.1359 30.3766 21.2038 30.5078 21.2038H31.8625C32.0242 21.2038 32.1274 21.0351 32.0547 20.8921C30.5266 17.8523 27.4281 15.8765 23.9688 15.8367C18.9039 15.7734 14.6969 19.9195 14.6875 24.9796C14.6781 30.0492 18.7867 34.1624 23.8563 34.1624C27.3602 34.1624 30.5102 32.1796 32.0547 29.1046C32.1274 28.9617 32.0219 28.7929 31.8625 28.7929Z" fill="white"/>
</svg>
