<svg width="72" height="66" viewBox="0 0 72 66" fill="none" xmlns="http://www.w3.org/2000/svg">
<path d="M6.54545 65.4545C4.74545 65.4545 3.20509 64.8142 1.92436 63.5335C0.641455 62.2505 0 60.7091 0 58.9091V13.0909C0 11.2909 0.641455 9.75054 1.92436 8.46982C3.20509 7.18691 4.74545 6.54545 6.54545 6.54545H32.7273V13.0909H6.54545V58.9091H52.3636V39.2727H58.9091V58.9091C58.9091 60.7091 58.2687 62.2505 56.988 63.5335C55.7051 64.8142 54.1636 65.4545 52.3636 65.4545H6.54545ZM13.0909 52.3636V29.4545H19.6364V52.3636H13.0909ZM26.1818 52.3636V19.6364H32.7273V52.3636H26.1818ZM39.2727 52.3636V39.2727H45.8182V52.3636H39.2727ZM55.6364 32.7273C53.8909 32.7273 52.2415 32.4818 50.688 31.9909C49.1324 31.5 47.7 30.7909 46.3909 29.8636L45.1636 31.0091C44.5091 31.6636 43.7455 31.9909 42.8727 31.9909C42 31.9909 41.2364 31.6636 40.5818 31.0091C39.9273 30.3545 39.6 29.5909 39.6 28.7182C39.6 27.8455 39.9273 27.0818 40.5818 26.4273L41.8909 25.1182C41.0727 23.8636 40.4324 22.5 39.9698 21.0273C39.5051 19.5545 39.2727 18 39.2727 16.3636C39.2727 11.6727 40.896 7.77273 44.1425 4.66364C47.3869 1.55455 51.2182 0 55.6364 0H72V16.3636C72 20.7273 70.4455 24.5455 67.3364 27.8182C64.2273 31.0909 60.3273 32.7273 55.6364 32.7273ZM55.6364 26.1818C58.3636 26.1818 60.6818 25.2273 62.5909 23.3182C64.5 21.4091 65.4545 19.0909 65.4545 16.3636V6.54545H55.6364C53.0182 6.54545 50.7273 7.47273 48.7636 9.32727C46.8 11.1818 45.8182 13.5273 45.8182 16.3636C45.8182 17.0727 45.8858 17.7676 46.0211 18.4484C46.1585 19.1313 46.3636 19.7727 46.6364 20.3727L55.1455 11.8636C55.8 11.2091 56.5636 10.8818 57.4364 10.8818C58.3091 10.8818 59.0727 11.2091 59.7273 11.8636C60.3818 12.5182 60.7091 13.296 60.7091 14.1971C60.7091 15.096 60.3818 15.8727 59.7273 16.5273L51.2182 25.0364C51.8727 25.3636 52.5687 25.6364 53.3062 25.8545C54.0415 26.0727 54.8182 26.1818 55.6364 26.1818Z" fill="white"/>
</svg>
