<svg width="82" height="64" viewBox="0 0 82 64" fill="none" xmlns="http://www.w3.org/2000/svg">
<path d="M0.5 0.75V7H69.25V57H25.5V63.25H81.75V57H75.5V0.75H0.5ZM13.0062 10.125C9.69401 10.1365 6.52063 11.457 4.17793 13.7985C1.83522 16.1401 0.513176 19.3128 0.5 22.625C0.5 29.4969 6.1375 35.125 13.0062 35.125C16.3168 35.1118 19.488 33.7904 21.8283 31.4489C24.1687 29.1074 25.4885 25.9356 25.5 22.625C25.5 15.7594 19.8687 10.125 13.0062 10.125ZM31.75 13.25V19.5H47.375V13.25H31.75ZM53.625 13.25V19.5H63V13.25H53.625ZM13.0062 16.375C16.4875 16.375 19.25 19.1344 19.25 22.625C19.25 26.125 16.4906 28.875 13.0062 28.875C9.50625 28.875 6.75 26.125 6.75 22.625C6.75 19.1344 9.50937 16.375 13.0062 16.375ZM31.75 25.75V32H63V25.75H31.75ZM0.5 38.25V63.25H6.75V44.5H16.125V63.25H22.375V46.5563L28.825 49.9688C30.6531 50.9375 32.85 50.9344 34.675 49.9688V49.975L45.7062 44.1406L42.7906 38.6094L31.7563 44.4438L22.0813 39.3375C20.731 38.6241 19.2271 38.2509 17.7 38.25H0.5Z" fill="#0D0D2B"/>
</svg>
