<svg width="32" height="32" viewBox="0 0 32 32" fill="none" xmlns="http://www.w3.org/2000/svg">
<path fill-rule="evenodd" clip-rule="evenodd" d="M16 0C7.16344 0 0 7.16344 0 16C0 24.8366 7.16344 32 16 32C24.8366 32 32 24.8366 32 16C32 7.16344 24.8366 0 16 0ZM12.4823 7.52031C13.3925 7.47888 13.6834 7.46875 16.0009 7.46875H15.9983C18.3165 7.46875 18.6063 7.47888 19.5165 7.52031C20.425 7.56191 21.0454 7.70573 21.5894 7.91675C22.1512 8.13453 22.6259 8.42609 23.1006 8.90076C23.5752 9.37508 23.8668 9.85117 24.0855 10.4124C24.2952 10.955 24.4392 11.5751 24.4819 12.4836C24.5228 13.3938 24.5335 13.6846 24.5335 16.0022C24.5335 18.3197 24.5228 18.6098 24.4819 19.5201C24.4392 20.4282 24.2952 21.0484 24.0855 21.5912C23.8668 22.1523 23.5752 22.6284 23.1006 23.1027C22.6264 23.5774 22.151 23.8696 21.59 24.0876C21.047 24.2986 20.4262 24.4424 19.5178 24.484C18.6075 24.5255 18.3176 24.5356 15.9999 24.5356C13.6825 24.5356 13.3918 24.5255 12.4816 24.484C11.5733 24.4424 10.9531 24.2986 10.4101 24.0876C9.84922 23.8696 9.37313 23.5774 8.89899 23.1027C8.4245 22.6284 8.13294 22.1523 7.9148 21.591C7.70395 21.0484 7.56013 20.4284 7.51835 19.5199C7.47711 18.6097 7.4668 18.3197 7.4668 16.0022C7.4668 13.6846 7.47746 13.3936 7.51818 12.4834C7.55906 11.5753 7.70307 10.955 7.91462 10.4122C8.13329 9.85117 8.42485 9.37508 8.89952 8.90076C9.37384 8.42627 9.84993 8.13471 10.4112 7.91675C10.9538 7.70573 11.5739 7.56191 12.4823 7.52031Z" fill="currentColor"/>
<path fill-rule="evenodd" clip-rule="evenodd" d="M15.236 9.00604C15.3846 9.00581 15.5445 9.00588 15.7171 9.00596L16.0015 9.00604C18.2799 9.00604 18.55 9.01422 19.4497 9.05511C20.2817 9.09315 20.7333 9.23218 21.0341 9.34898C21.4323 9.50364 21.7162 9.68854 22.0147 9.98721C22.3134 10.2859 22.4983 10.5703 22.6533 10.9685C22.7701 11.269 22.9093 11.7206 22.9472 12.5526C22.988 13.4521 22.9969 13.7224 22.9969 15.9997C22.9969 18.2771 22.988 18.5473 22.9472 19.4469C22.9091 20.2789 22.7701 20.7304 22.6533 21.0309C22.4986 21.4291 22.3134 21.7127 22.0147 22.0112C21.716 22.3098 21.4325 22.4947 21.0341 22.6494C20.7336 22.7667 20.2817 22.9054 19.4497 22.9434C18.5501 22.9843 18.2799 22.9932 16.0015 22.9932C13.7229 22.9932 13.4528 22.9843 12.5533 22.9434C11.7213 22.905 11.2697 22.766 10.9687 22.6492C10.5705 22.4945 10.2861 22.3096 9.98738 22.011C9.68871 21.7123 9.50382 21.4286 9.3488 21.0302C9.232 20.7297 9.09279 20.2782 9.05493 19.4461C9.01404 18.5466 9.00586 18.2764 9.00586 15.9976C9.00586 13.7188 9.01404 13.45 9.05493 12.5504C9.09297 11.7184 9.232 11.2669 9.3488 10.9661C9.50346 10.5678 9.68871 10.2834 9.98738 9.98472C10.2861 9.68605 10.5705 9.50116 10.9687 9.34613C11.2695 9.2288 11.7213 9.09013 12.5533 9.05191C13.3405 9.01635 13.6456 9.00568 15.236 9.00391V9.00604ZM20.5553 10.4222C19.9899 10.4222 19.5312 10.8804 19.5312 11.4459C19.5312 12.0112 19.9899 12.4699 20.5553 12.4699C21.1206 12.4699 21.5793 12.0112 21.5793 11.4459C21.5793 10.8805 21.1206 10.4219 20.5553 10.4219V10.4222ZM11.6191 15.9995C11.6191 13.5794 13.5812 11.6173 16.0012 11.6172C18.4213 11.6172 20.383 13.5793 20.383 15.9995C20.383 18.4196 18.4215 20.3808 16.0014 20.3808C13.5813 20.3808 11.6191 18.4196 11.6191 15.9995Z" fill="currentColor"/>
<path fill-rule="evenodd" clip-rule="evenodd" d="M16.0007 13.1562C17.5716 13.1562 18.8452 14.4297 18.8452 16.0007C18.8452 17.5716 17.5716 18.8452 16.0007 18.8452C14.4297 18.8452 13.1562 17.5716 13.1562 16.0007C13.1562 14.4297 14.4297 13.1563 16.0007 13.1563V13.1562Z" fill="currentColor"/>
</svg>
