<svg width="81" height="74" viewBox="0 0 60 73" fill="none" xmlns="http://www.w3.org/2000/svg">
<path d="M16.8462 13.1026C15.8533 13.1026 14.9011 13.497 14.199 14.199C13.497 14.9011 13.1026 15.8533 13.1026 16.8462C13.1026 17.839 13.497 18.7912 14.199 19.4933C14.9011 20.1953 15.8533 20.5897 16.8462 20.5897C17.839 20.5897 18.7912 20.1953 19.4933 19.4933C20.1953 18.7912 20.5897 17.839 20.5897 16.8462C20.5897 15.8533 20.1953 14.9011 19.4933 14.199C18.7912 13.497 17.839 13.1026 16.8462 13.1026ZM13.1026 43.0513C13.1026 42.0584 13.497 41.1062 14.199 40.4042C14.9011 39.7021 15.8533 39.3077 16.8462 39.3077C17.839 39.3077 18.7912 39.7021 19.4933 40.4042C20.1953 41.1062 20.5897 42.0584 20.5897 43.0513C20.5897 44.0441 20.1953 44.9963 19.4933 45.6984C18.7912 46.4005 17.839 46.7949 16.8462 46.7949C15.8533 46.7949 14.9011 46.4005 14.199 45.6984C13.497 44.9963 13.1026 44.0441 13.1026 43.0513ZM16.8462 26.2051C15.8533 26.2051 14.9011 26.5995 14.199 27.3016C13.497 28.0037 13.1026 28.9559 13.1026 29.9487C13.1026 30.9416 13.497 31.8938 14.199 32.5958C14.9011 33.2979 15.8533 33.6923 16.8462 33.6923C17.839 33.6923 18.7912 33.2979 19.4933 32.5958C20.1953 31.8938 20.5897 30.9416 20.5897 29.9487C20.5897 28.9559 20.1953 28.0037 19.4933 27.3016C18.7912 26.5995 17.839 26.2051 16.8462 26.2051ZM26.2051 16.8462C26.2051 15.8533 26.5995 14.9011 27.3016 14.199C28.0037 13.497 28.9559 13.1026 29.9487 13.1026C30.9416 13.1026 31.8938 13.497 32.5958 14.199C33.2979 14.9011 33.6923 15.8533 33.6923 16.8462C33.6923 17.839 33.2979 18.7912 32.5958 19.4933C31.8938 20.1953 30.9416 20.5897 29.9487 20.5897C28.9559 20.5897 28.0037 20.1953 27.3016 19.4933C26.5995 18.7912 26.2051 17.839 26.2051 16.8462ZM29.9487 39.3077C28.9559 39.3077 28.0037 39.7021 27.3016 40.4042C26.5995 41.1062 26.2051 42.0584 26.2051 43.0513C26.2051 44.0441 26.5995 44.9963 27.3016 45.6984C28.0037 46.4005 28.9559 46.7949 29.9487 46.7949C30.9416 46.7949 31.8938 46.4005 32.5958 45.6984C33.2979 44.9963 33.6923 44.0441 33.6923 43.0513C33.6923 42.0584 33.2979 41.1062 32.5958 40.4042C31.8938 39.7021 30.9416 39.3077 29.9487 39.3077ZM39.3077 43.0513C39.3077 42.0584 39.7021 41.1062 40.4042 40.4042C41.1062 39.7021 42.0584 39.3077 43.0513 39.3077C44.0441 39.3077 44.9963 39.7021 45.6984 40.4042C46.4005 41.1062 46.7949 42.0584 46.7949 43.0513C46.7949 44.0441 46.4005 44.9963 45.6984 45.6984C44.9963 46.4005 44.0441 46.7949 43.0513 46.7949C42.0584 46.7949 41.1062 46.4005 40.4042 45.6984C39.7021 44.9963 39.3077 44.0441 39.3077 43.0513ZM29.9487 26.2051C28.9559 26.2051 28.0037 26.5995 27.3016 27.3016C26.5995 28.0037 26.2051 28.9559 26.2051 29.9487C26.2051 30.9416 26.5995 31.8938 27.3016 32.5958C28.0037 33.2979 28.9559 33.6923 29.9487 33.6923C30.9416 33.6923 31.8938 33.2979 32.5958 32.5958C33.2979 31.8938 33.6923 30.9416 33.6923 29.9487C33.6923 28.9559 33.2979 28.0037 32.5958 27.3016C31.8938 26.5995 30.9416 26.2051 29.9487 26.2051ZM8.42308 0C6.18914 0 4.0467 0.887429 2.46706 2.46706C0.88743 4.0467 0 6.18914 0 8.42308V70.1923C0 71.7421 1.25785 73 2.80769 73H57.101C57.8456 73 58.5598 72.7042 59.0863 72.1776C59.6129 71.6511 59.9087 70.937 59.9087 70.1923V36.5C59.9087 35.3939 59.6908 34.2986 59.2675 33.2766C58.8442 32.2547 58.2238 31.3261 57.4416 30.544C56.6595 29.7618 55.7309 29.1414 54.709 28.7181C53.687 28.2948 52.5917 28.0769 51.4856 28.0769H46.7949V8.42308C46.7949 6.18914 45.9074 4.0467 44.3278 2.46706C42.7482 0.887429 40.6057 0 38.3718 0H8.42308ZM5.61539 8.42308C5.61539 7.67843 5.91119 6.96428 6.43774 6.43774C6.96428 5.91119 7.67843 5.61538 8.42308 5.61538H38.3718C39.1164 5.61538 39.8306 5.91119 40.3571 6.43774C40.8837 6.96428 41.1795 7.67843 41.1795 8.42308V30.8846C41.1795 32.4345 42.4373 33.6923 43.9872 33.6923H51.4856C52.2302 33.6923 52.9444 33.9881 53.4709 34.5147C53.9975 35.0412 54.2933 35.7554 54.2933 36.5V67.3846H46.7949V57.0897C46.7949 56.3451 46.4991 55.6309 45.9725 55.1044C45.446 54.5779 44.7318 54.2821 43.9872 54.2821H15.9103C15.1656 54.2821 14.4515 54.5779 13.9249 55.1044C13.3984 55.6309 13.1026 56.3451 13.1026 57.0897V67.3846H5.61539V8.42308ZM41.1795 59.8974V67.3846H32.7564V59.8974H41.1795ZM27.141 59.8974V67.3846H18.7179V59.8974H27.141Z" fill="#0FA379"/>
</svg>
