<svg width="95" height="101" viewBox="0 0 95 101" fill="none" xmlns="http://www.w3.org/2000/svg">
<path d="M2.84446 86.0909V97H1.19851V86.0909H2.84446ZM8.93288 88.8182V90.0966H4.46378V88.8182H8.93288ZM5.66229 86.858H7.25497V94.5977C7.25497 94.9066 7.30114 95.1392 7.39347 95.2955C7.4858 95.4482 7.60476 95.5529 7.75036 95.6097C7.8995 95.663 8.06108 95.6896 8.23509 95.6896C8.36293 95.6896 8.47479 95.6808 8.57067 95.663C8.66655 95.6452 8.74112 95.631 8.79439 95.6204L9.08203 96.9361C8.9897 96.9716 8.85831 97.0071 8.68786 97.0426C8.5174 97.0817 8.30433 97.103 8.04865 97.1065C7.62962 97.1136 7.23899 97.0391 6.87678 96.8828C6.51456 96.7266 6.22159 96.4851 5.99787 96.1584C5.77415 95.8317 5.66229 95.4215 5.66229 94.9279V86.858ZM23.853 89.6385H22.1911C22.1271 89.2834 22.0082 88.9709 21.8342 88.701C21.6602 88.4311 21.4471 88.2021 21.195 88.0138C20.9428 87.8256 20.6605 87.6836 20.348 87.5877C20.0391 87.4918 19.7106 87.4439 19.3626 87.4439C18.734 87.4439 18.1712 87.6019 17.674 87.918C17.1804 88.234 16.7898 88.6974 16.5021 89.3082C16.218 89.919 16.076 90.6648 16.076 91.5455C16.076 92.4332 16.218 93.1825 16.5021 93.7933C16.7898 94.4041 17.1822 94.8658 17.6793 95.1783C18.1765 95.4908 18.7358 95.647 19.3572 95.647C19.7017 95.647 20.0284 95.6009 20.3374 95.5085C20.6499 95.4126 20.9322 95.2724 21.1843 95.0877C21.4364 94.9031 21.6495 94.6776 21.8235 94.4112C22.0011 94.1413 22.1236 93.8324 22.1911 93.4844L23.853 93.4897C23.7642 94.0259 23.592 94.5195 23.3363 94.9705C23.0842 95.418 22.7592 95.805 22.3615 96.1317C21.9673 96.4549 21.5163 96.7053 21.0085 96.8828C20.5007 97.0604 19.9467 97.1491 19.3466 97.1491C18.402 97.1491 17.5604 96.9254 16.8217 96.478C16.0831 96.027 15.5007 95.3825 15.0746 94.5444C14.652 93.7063 14.4407 92.7067 14.4407 91.5455C14.4407 90.3807 14.6538 89.381 15.0799 88.5465C15.506 87.7085 16.0884 87.0657 16.8271 86.6183C17.5657 86.1673 18.4055 85.9418 19.3466 85.9418C19.9254 85.9418 20.4652 86.0252 20.9659 86.1921C21.4702 86.3555 21.9229 86.5969 22.3242 86.9165C22.7255 87.2326 23.0575 87.6197 23.3203 88.0778C23.5831 88.5323 23.7607 89.0526 23.853 89.6385ZM29.1411 97.1651C28.374 97.1651 27.7046 96.9893 27.1329 96.6378C26.5612 96.2862 26.1173 95.7944 25.8012 95.1623C25.4852 94.5302 25.3271 93.7915 25.3271 92.9464C25.3271 92.0977 25.4852 91.3555 25.8012 90.7198C26.1173 90.0842 26.5612 89.5906 27.1329 89.239C27.7046 88.8874 28.374 88.7116 29.1411 88.7116C29.9081 88.7116 30.5775 88.8874 31.1492 89.239C31.721 89.5906 32.1649 90.0842 32.4809 90.7198C32.797 91.3555 32.955 92.0977 32.955 92.9464C32.955 93.7915 32.797 94.5302 32.4809 95.1623C32.1649 95.7944 31.721 96.2862 31.1492 96.6378C30.5775 96.9893 29.9081 97.1651 29.1411 97.1651ZM29.1464 95.8281C29.6436 95.8281 30.0555 95.6967 30.3822 95.4339C30.7089 95.1712 30.9504 94.8214 31.1066 94.3846C31.2664 93.9478 31.3463 93.4666 31.3463 92.9411C31.3463 92.419 31.2664 91.9396 31.1066 91.5028C30.9504 91.0625 30.7089 90.7092 30.3822 90.4428C30.0555 90.1765 29.6436 90.0433 29.1464 90.0433C28.6457 90.0433 28.2302 90.1765 27.8999 90.4428C27.5732 90.7092 27.33 91.0625 27.1702 91.5028C27.0139 91.9396 26.9358 92.419 26.9358 92.9411C26.9358 93.4666 27.0139 93.9478 27.1702 94.3846C27.33 94.8214 27.5732 95.1712 27.8999 95.4339C28.2302 95.6967 28.6457 95.8281 29.1464 95.8281ZM34.7328 97V88.8182H36.2615V90.1499H36.3627C36.5332 89.6989 36.812 89.3473 37.199 89.0952C37.5861 88.8395 38.0495 88.7116 38.5893 88.7116C39.1362 88.7116 39.5943 88.8395 39.9636 89.0952C40.3365 89.3509 40.6117 89.7024 40.7892 90.1499H40.8745C41.0698 89.7131 41.3805 89.3651 41.8066 89.1058C42.2328 88.843 42.7406 88.7116 43.3301 88.7116C44.0723 88.7116 44.6777 88.9442 45.1465 89.4094C45.6188 89.8746 45.8549 90.576 45.8549 91.5135V97H44.2623V91.6626C44.2623 91.1087 44.1113 90.7074 43.8095 90.4588C43.5076 90.2102 43.1472 90.0859 42.7282 90.0859C42.2097 90.0859 41.8066 90.2457 41.519 90.5653C41.2314 90.8814 41.0875 91.288 41.0875 91.7852V97H39.5002V91.5614C39.5002 91.1175 39.3617 90.7607 39.0847 90.4908C38.8077 90.2209 38.4473 90.0859 38.0034 90.0859C37.7015 90.0859 37.4228 90.1658 37.1671 90.3256C36.915 90.4819 36.7108 90.7003 36.5545 90.9808C36.4018 91.2614 36.3255 91.5863 36.3255 91.9556V97H34.7328ZM47.9896 100.068V88.8182H49.545V90.1445H49.6782C49.7705 89.9741 49.9037 89.777 50.0777 89.5533C50.2517 89.3295 50.4932 89.1342 50.8021 88.9673C51.1111 88.7969 51.5194 88.7116 52.0273 88.7116C52.6878 88.7116 53.2773 88.8786 53.7957 89.2124C54.3142 89.5462 54.7208 90.0273 55.0155 90.6559C55.3138 91.2844 55.463 92.0408 55.463 92.9251C55.463 93.8093 55.3156 94.5675 55.0209 95.1996C54.7261 95.8281 54.3213 96.3129 53.8064 96.6538C53.2915 96.9911 52.7037 97.1598 52.0432 97.1598C51.5461 97.1598 51.1395 97.0763 50.8234 96.9094C50.5109 96.7425 50.2659 96.5472 50.0883 96.3235C49.9108 96.0998 49.7741 95.9009 49.6782 95.7269H49.5823V100.068H47.9896ZM49.5503 92.9091C49.5503 93.4844 49.6338 93.9886 49.8007 94.4219C49.9676 94.8551 50.2091 95.1942 50.5251 95.4393C50.8412 95.6808 51.2282 95.8015 51.6863 95.8015C52.1622 95.8015 52.5599 95.6754 52.8795 95.4233C53.1991 95.1676 53.4406 94.8214 53.604 94.3846C53.7709 93.9478 53.8543 93.456 53.8543 92.9091C53.8543 92.3693 53.7726 91.8846 53.6093 91.4549C53.4495 91.0252 53.208 90.6861 52.8849 90.4375C52.5653 90.1889 52.1657 90.0646 51.6863 90.0646C51.2247 90.0646 50.8341 90.1836 50.5145 90.4215C50.1984 90.6594 49.9587 90.9915 49.7954 91.4176C49.632 91.8437 49.5503 92.3409 49.5503 92.9091ZM59.6285 97.1811C59.11 97.1811 58.6412 97.0852 58.2222 96.8935C57.8032 96.6982 57.4711 96.4158 57.2261 96.0465C56.9846 95.6772 56.8639 95.2244 56.8639 94.6882C56.8639 94.2266 56.9527 93.8466 57.1302 93.5483C57.3078 93.25 57.5475 93.0138 57.8493 92.8398C58.1512 92.6658 58.4885 92.5344 58.8614 92.4457C59.2343 92.3569 59.6143 92.2894 60.0013 92.2433C60.4914 92.1864 60.8891 92.1403 61.1945 92.1048C61.4999 92.0657 61.7219 92.0036 61.8604 91.9183C61.9988 91.8331 62.0681 91.6946 62.0681 91.5028V91.4656C62.0681 91.0004 61.9367 90.6399 61.6739 90.3842C61.4147 90.1286 61.0276 90.0007 60.5127 90.0007C59.9765 90.0007 59.5539 90.1197 59.2449 90.3576C58.9395 90.592 58.7282 90.853 58.6111 91.1406L57.1143 90.7997C57.2918 90.3026 57.551 89.9013 57.892 89.5959C58.2364 89.2869 58.6324 89.0632 59.0798 88.9247C59.5273 88.7827 59.9978 88.7116 60.4914 88.7116C60.8181 88.7116 61.1643 88.7507 61.5301 88.8288C61.8994 88.9034 62.2439 89.0419 62.5635 89.2443C62.8866 89.4467 63.1512 89.7362 63.3572 90.1126C63.5631 90.4854 63.6661 90.9702 63.6661 91.5668V97H62.1107V95.8814H62.0468C61.9438 96.0874 61.7893 96.2898 61.5834 96.4886C61.3774 96.6875 61.1128 96.8526 60.7897 96.984C60.4665 97.1154 60.0795 97.1811 59.6285 97.1811ZM59.9747 95.9027C60.415 95.9027 60.7915 95.8157 61.104 95.6417C61.42 95.4677 61.6597 95.2404 61.8231 94.9599C61.99 94.6758 62.0734 94.3722 62.0734 94.049V92.9943C62.0166 93.0511 61.9065 93.1044 61.7432 93.1541C61.5834 93.2003 61.4005 93.2411 61.1945 93.2766C60.9885 93.3086 60.7879 93.3388 60.5926 93.3672C60.3973 93.392 60.2339 93.4134 60.1025 93.4311C59.7936 93.4702 59.5113 93.5359 59.2556 93.6282C59.0035 93.7205 58.801 93.8537 58.6483 94.0277C58.4992 94.1982 58.4246 94.4254 58.4246 94.7095C58.4246 95.1037 58.5702 95.402 58.8614 95.6044C59.1526 95.8033 59.5237 95.9027 59.9747 95.9027ZM67.3801 92.142V97H65.7875V88.8182H67.3162V90.1499H67.4174C67.6056 89.7166 67.9004 89.3686 68.3017 89.1058C68.7065 88.843 69.2161 88.7116 69.8304 88.7116C70.388 88.7116 70.8762 88.8288 71.2953 89.0632C71.7143 89.294 72.0392 89.6385 72.2701 90.0966C72.5009 90.5547 72.6163 91.1211 72.6163 91.7958V97H71.0236V91.9876C71.0236 91.3945 70.8691 90.9311 70.5602 90.5973C70.2512 90.2599 69.8269 90.0913 69.2871 90.0913C68.9178 90.0913 68.5893 90.1712 68.3017 90.331C68.0176 90.4908 67.7921 90.7251 67.6252 91.0341C67.4618 91.3395 67.3801 91.7088 67.3801 92.142ZM74.7523 97V88.8182H76.345V97H74.7523ZM75.5566 87.5558C75.2797 87.5558 75.0417 87.4634 74.8429 87.2788C74.6475 87.0906 74.5499 86.8668 74.5499 86.6076C74.5499 86.3448 74.6475 86.1211 74.8429 85.9364C75.0417 85.7482 75.2797 85.6541 75.5566 85.6541C75.8336 85.6541 76.0698 85.7482 76.2651 85.9364C76.464 86.1211 76.5634 86.3448 76.5634 86.6076C76.5634 86.8668 76.464 87.0906 76.2651 87.2788C76.0698 87.4634 75.8336 87.5558 75.5566 87.5558ZM82.0139 97.1651C81.2078 97.1651 80.5136 96.9929 79.9312 96.6484C79.3524 96.3004 78.9049 95.8121 78.5889 95.1836C78.2764 94.5515 78.1201 93.8111 78.1201 92.9624C78.1201 92.1243 78.2764 91.3857 78.5889 90.7464C78.9049 90.1072 79.3453 89.6083 79.9099 89.2496C80.4781 88.891 81.1421 88.7116 81.9021 88.7116C82.3637 88.7116 82.8112 88.788 83.2444 88.9407C83.6776 89.0934 84.0665 89.3331 84.411 89.6598C84.7554 89.9865 85.0271 90.4109 85.2259 90.9329C85.4248 91.4513 85.5242 92.0817 85.5242 92.8239V93.3885H79.0203V92.1953H83.9635C83.9635 91.7763 83.8783 91.4052 83.7078 91.082C83.5374 90.7553 83.2977 90.4979 82.9887 90.3097C82.6833 90.1214 82.3247 90.0273 81.9127 90.0273C81.4653 90.0273 81.0747 90.1374 80.7409 90.3576C80.4106 90.5742 80.1549 90.8583 79.9738 91.2099C79.7963 91.5579 79.7075 91.9361 79.7075 92.3445V93.2766C79.7075 93.8235 79.8034 94.2887 79.9951 94.6722C80.1904 95.0558 80.4621 95.3487 80.8101 95.5511C81.1581 95.75 81.5647 95.8494 82.0299 95.8494C82.3318 95.8494 82.607 95.8068 82.8556 95.7216C83.1041 95.6328 83.319 95.5014 83.5001 95.3274C83.6812 95.1534 83.8197 94.9386 83.9156 94.6829L85.423 94.9545C85.3023 95.3984 85.0857 95.7873 84.7732 96.1211C84.4642 96.4513 84.0754 96.7088 83.6066 96.8935C83.1414 97.0746 82.6105 97.1651 82.0139 97.1651ZM93.4224 90.8157L91.9789 91.0714C91.9185 90.8867 91.8226 90.7109 91.6912 90.544C91.5634 90.3771 91.3894 90.2404 91.1692 90.1339C90.949 90.0273 90.6738 89.9741 90.3436 89.9741C89.8926 89.9741 89.5162 90.0753 89.2143 90.2777C88.9125 90.4766 88.7615 90.734 88.7615 91.0501C88.7615 91.3235 88.8627 91.5437 89.0652 91.7106C89.2676 91.8775 89.5943 92.0142 90.0453 92.1207L91.345 92.419C92.0978 92.593 92.6589 92.8612 93.0282 93.2234C93.3975 93.5856 93.5822 94.0561 93.5822 94.6349C93.5822 95.125 93.4402 95.5618 93.1561 95.9453C92.8755 96.3253 92.4831 96.6236 91.9789 96.8402C91.4782 97.0568 90.8975 97.1651 90.237 97.1651C89.3208 97.1651 88.5733 96.9698 87.9945 96.5792C87.4157 96.185 87.0605 95.6257 86.9292 94.9013L88.4686 94.6669C88.5645 95.0682 88.7615 95.3718 89.0598 95.5778C89.3581 95.7802 89.747 95.8814 90.2264 95.8814C90.7484 95.8814 91.1657 95.7731 91.4782 95.5565C91.7907 95.3363 91.9469 95.0682 91.9469 94.7521C91.9469 94.4964 91.851 94.2816 91.6593 94.1076C91.4711 93.9336 91.1816 93.8022 90.791 93.7134L89.4061 93.4098C88.6426 93.2358 88.0779 92.9588 87.7122 92.5788C87.35 92.1989 87.1689 91.7177 87.1689 91.1353C87.1689 90.6523 87.3038 90.2298 87.5737 89.8675C87.8436 89.5053 88.2164 89.223 88.6923 89.0206C89.1681 88.8146 89.7132 88.7116 90.3276 88.7116C91.2118 88.7116 91.9078 88.9034 92.4157 89.2869C92.9235 89.6669 93.2591 90.1765 93.4224 90.8157Z" fill="#0FA379"/>
<path d="M34.8462 13.1026C33.8533 13.1026 32.9011 13.497 32.199 14.199C31.497 14.9011 31.1026 15.8533 31.1026 16.8462C31.1026 17.839 31.497 18.7912 32.199 19.4933C32.9011 20.1953 33.8533 20.5897 34.8462 20.5897C35.839 20.5897 36.7912 20.1953 37.4933 19.4933C38.1953 18.7912 38.5897 17.839 38.5897 16.8462C38.5897 15.8533 38.1953 14.9011 37.4933 14.199C36.7912 13.497 35.839 13.1026 34.8462 13.1026ZM31.1026 43.0513C31.1026 42.0584 31.497 41.1062 32.199 40.4042C32.9011 39.7021 33.8533 39.3077 34.8462 39.3077C35.839 39.3077 36.7912 39.7021 37.4933 40.4042C38.1953 41.1062 38.5897 42.0584 38.5897 43.0513C38.5897 44.0441 38.1953 44.9963 37.4933 45.6984C36.7912 46.4005 35.839 46.7949 34.8462 46.7949C33.8533 46.7949 32.9011 46.4005 32.199 45.6984C31.497 44.9963 31.1026 44.0441 31.1026 43.0513ZM34.8462 26.2051C33.8533 26.2051 32.9011 26.5995 32.199 27.3016C31.497 28.0037 31.1026 28.9559 31.1026 29.9487C31.1026 30.9416 31.497 31.8938 32.199 32.5958C32.9011 33.2979 33.8533 33.6923 34.8462 33.6923C35.839 33.6923 36.7912 33.2979 37.4933 32.5958C38.1953 31.8938 38.5897 30.9416 38.5897 29.9487C38.5897 28.9559 38.1953 28.0037 37.4933 27.3016C36.7912 26.5995 35.839 26.2051 34.8462 26.2051ZM44.2051 16.8462C44.2051 15.8533 44.5995 14.9011 45.3016 14.199C46.0037 13.497 46.9559 13.1026 47.9487 13.1026C48.9416 13.1026 49.8938 13.497 50.5958 14.199C51.2979 14.9011 51.6923 15.8533 51.6923 16.8462C51.6923 17.839 51.2979 18.7912 50.5958 19.4933C49.8938 20.1953 48.9416 20.5897 47.9487 20.5897C46.9559 20.5897 46.0037 20.1953 45.3016 19.4933C44.5995 18.7912 44.2051 17.839 44.2051 16.8462ZM47.9487 39.3077C46.9559 39.3077 46.0037 39.7021 45.3016 40.4042C44.5995 41.1062 44.2051 42.0584 44.2051 43.0513C44.2051 44.0441 44.5995 44.9963 45.3016 45.6984C46.0037 46.4005 46.9559 46.7949 47.9487 46.7949C48.9416 46.7949 49.8938 46.4005 50.5958 45.6984C51.2979 44.9963 51.6923 44.0441 51.6923 43.0513C51.6923 42.0584 51.2979 41.1062 50.5958 40.4042C49.8938 39.7021 48.9416 39.3077 47.9487 39.3077ZM57.3077 43.0513C57.3077 42.0584 57.7021 41.1062 58.4042 40.4042C59.1062 39.7021 60.0584 39.3077 61.0513 39.3077C62.0441 39.3077 62.9963 39.7021 63.6984 40.4042C64.4005 41.1062 64.7949 42.0584 64.7949 43.0513C64.7949 44.0441 64.4005 44.9963 63.6984 45.6984C62.9963 46.4005 62.0441 46.7949 61.0513 46.7949C60.0584 46.7949 59.1062 46.4005 58.4042 45.6984C57.7021 44.9963 57.3077 44.0441 57.3077 43.0513ZM47.9487 26.2051C46.9559 26.2051 46.0037 26.5995 45.3016 27.3016C44.5995 28.0037 44.2051 28.9559 44.2051 29.9487C44.2051 30.9416 44.5995 31.8938 45.3016 32.5958C46.0037 33.2979 46.9559 33.6923 47.9487 33.6923C48.9416 33.6923 49.8938 33.2979 50.5958 32.5958C51.2979 31.8938 51.6923 30.9416 51.6923 29.9487C51.6923 28.9559 51.2979 28.0037 50.5958 27.3016C49.8938 26.5995 48.9416 26.2051 47.9487 26.2051ZM26.4231 0C24.1891 0 22.0467 0.887429 20.4671 2.46706C18.8874 4.0467 18 6.18914 18 8.42308V70.1923C18 71.7421 19.2578 73 20.8077 73H75.101C75.8456 73 76.5598 72.7042 77.0863 72.1776C77.6129 71.6511 77.9087 70.937 77.9087 70.1923V36.5C77.9087 35.3939 77.6908 34.2986 77.2675 33.2766C76.8442 32.2547 76.2238 31.3261 75.4416 30.544C74.6595 29.7618 73.7309 29.1414 72.709 28.7181C71.687 28.2948 70.5917 28.0769 69.4856 28.0769H64.7949V8.42308C64.7949 6.18914 63.9074 4.0467 62.3278 2.46706C60.7482 0.887429 58.6057 0 56.3718 0H26.4231ZM23.6154 8.42308C23.6154 7.67843 23.9112 6.96428 24.4377 6.43774C24.9643 5.91119 25.6784 5.61538 26.4231 5.61538H56.3718C57.1164 5.61538 57.8306 5.91119 58.3571 6.43774C58.8837 6.96428 59.1795 7.67843 59.1795 8.42308V30.8846C59.1795 32.4345 60.4373 33.6923 61.9872 33.6923H69.4856C70.2302 33.6923 70.9444 33.9881 71.4709 34.5147C71.9975 35.0412 72.2933 35.7554 72.2933 36.5V67.3846H64.7949V57.0897C64.7949 56.3451 64.4991 55.6309 63.9725 55.1044C63.446 54.5779 62.7318 54.2821 61.9872 54.2821H33.9103C33.1656 54.2821 32.4515 54.5779 31.9249 55.1044C31.3984 55.6309 31.1026 56.3451 31.1026 57.0897V67.3846H23.6154V8.42308ZM59.1795 59.8974V67.3846H50.7564V59.8974H59.1795ZM45.141 59.8974V67.3846H36.7179V59.8974H45.141Z" fill="#0FA379"/>
</svg>
