<svg width="40" height="40" viewBox="0 0 40 40" fill="none" xmlns="http://www.w3.org/2000/svg">
<rect width="40" height="40" rx="20" fill="#5C5BFD"/>
<path d="M22 27C25.771 27 27.657 27 28.828 25.828C30 24.657 30 22.771 30 19C30 15.229 30 13.343 28.828 12.172C27.657 11 25.771 11 22 11H18C14.229 11 12.343 11 11.172 12.172C10 13.343 10 15.229 10 19C10 22.771 10 24.657 11.172 25.828C11.825 26.482 12.7 26.771 14 26.898" stroke="#F5F5F5" stroke-width="2" stroke-linecap="round" stroke-linejoin="round"/>
<path d="M19.9993 19V19.01M15.9993 19V19.01M23.9993 19V19.01M21.9993 27C20.7633 27 19.4013 27.5 18.1583 28.145C16.1603 29.182 15.1613 29.701 14.6693 29.37C14.1773 29.04 14.2703 28.015 14.4573 25.966L14.4993 25.5" stroke="#F5F5F5" stroke-width="2" stroke-linecap="round"/>
</svg>
