<svg width="24" height="24" viewBox="0 0 24 24" fill="none" xmlns="http://www.w3.org/2000/svg">
<path d="M18.3894 9.99156C18.3894 14.1416 14.3394 19.1316 12.6894 20.9916C12.3194 21.4016 11.6794 21.4016 11.3094 20.9916C9.65938 19.1316 5.60938 14.1416 5.60938 9.99156C5.60938 6.46156 8.46938 3.60156 11.9994 3.60156C15.5294 3.60156 18.3894 6.46156 18.3894 9.99156Z" stroke="#F9FAFB" stroke-width="1.2" stroke-miterlimit="10" stroke-linecap="round" stroke-linejoin="round"/>
<path d="M11.9897 12.5497C13.4035 12.5497 14.5497 11.4035 14.5497 9.98969C14.5497 8.57584 13.4035 7.42969 11.9897 7.42969C10.5758 7.42969 9.42969 8.57584 9.42969 9.98969C9.42969 11.4035 10.5758 12.5497 11.9897 12.5497Z" stroke="#F9FAFB" stroke-width="1.2" stroke-miterlimit="10" stroke-linecap="round" stroke-linejoin="round"/>
</svg>
