<svg width="108" height="101" viewBox="0 0 108 101" fill="none" xmlns="http://www.w3.org/2000/svg">
<path d="M1.19851 86.0909H3.19602L6.66903 94.571H6.79688L10.2699 86.0909H12.2674V97H10.7013V89.1058H10.6001L7.38281 96.984H6.0831L2.86577 89.1005H2.76456V97H1.19851V86.0909ZM18.0589 97.1651C17.2528 97.1651 16.5585 96.9929 15.9761 96.6484C15.3973 96.3004 14.9498 95.8121 14.6338 95.1836C14.3213 94.5515 14.165 93.8111 14.165 92.9624C14.165 92.1243 14.3213 91.3857 14.6338 90.7464C14.9498 90.1072 15.3902 89.6083 15.9548 89.2496C16.523 88.891 17.1871 88.7116 17.947 88.7116C18.4086 88.7116 18.8561 88.788 19.2893 88.9407C19.7226 89.0934 20.1114 89.3331 20.4559 89.6598C20.8003 89.9865 21.072 90.4109 21.2709 90.9329C21.4697 91.4513 21.5692 92.0817 21.5692 92.8239V93.3885H15.0653V92.1953H20.0084C20.0084 91.7763 19.9232 91.4052 19.7528 91.082C19.5823 90.7553 19.3426 90.4979 19.0336 90.3097C18.7282 90.1214 18.3696 90.0273 17.9577 90.0273C17.5102 90.0273 17.1196 90.1374 16.7858 90.3576C16.4555 90.5742 16.1998 90.8583 16.0187 91.2099C15.8412 91.5579 15.7524 91.9361 15.7524 92.3445V93.2766C15.7524 93.8235 15.8483 94.2887 16.04 94.6722C16.2354 95.0558 16.507 95.3487 16.855 95.5511C17.203 95.75 17.6096 95.8494 18.0748 95.8494C18.3767 95.8494 18.6519 95.8068 18.9005 95.7216C19.1491 95.6328 19.3639 95.5014 19.545 95.3274C19.7261 95.1534 19.8646 94.9386 19.9605 94.6829L21.468 94.9545C21.3472 95.3984 21.1306 95.7873 20.8181 96.1211C20.5091 96.4513 20.1203 96.7088 19.6515 96.8935C19.1863 97.0746 18.6555 97.1651 18.0589 97.1651ZM26.3991 97.1598C25.7386 97.1598 25.1491 96.9911 24.6307 96.6538C24.1158 96.3129 23.7109 95.8281 23.4162 95.1996C23.125 94.5675 22.9794 93.8093 22.9794 92.9251C22.9794 92.0408 23.1268 91.2844 23.4215 90.6559C23.7198 90.0273 24.1282 89.5462 24.6467 89.2124C25.1651 88.8786 25.7528 88.7116 26.4098 88.7116C26.9176 88.7116 27.326 88.7969 27.6349 88.9673C27.9474 89.1342 28.1889 89.3295 28.3594 89.5533C28.5334 89.777 28.6683 89.9741 28.7642 90.1445H28.8601V86.0909H30.4528V97H28.8974V95.7269H28.7642C28.6683 95.9009 28.5298 96.0998 28.3487 96.3235C28.1712 96.5472 27.9261 96.7425 27.6136 96.9094C27.3011 97.0763 26.8963 97.1598 26.3991 97.1598ZM26.7507 95.8015C27.2088 95.8015 27.5959 95.6808 27.9119 95.4393C28.2315 95.1942 28.473 94.8551 28.6364 94.4219C28.8033 93.9886 28.8867 93.4844 28.8867 92.9091C28.8867 92.3409 28.805 91.8437 28.6417 91.4176C28.4783 90.9915 28.2386 90.6594 27.9226 90.4215C27.6065 90.1836 27.2159 90.0646 26.7507 90.0646C26.2713 90.0646 25.8718 90.1889 25.5522 90.4375C25.2326 90.6861 24.9911 91.0252 24.8278 91.4549C24.668 91.8846 24.5881 92.3693 24.5881 92.9091C24.5881 93.456 24.6697 93.9478 24.8331 94.3846C24.9964 94.8214 25.2379 95.1676 25.5575 95.4233C25.8807 95.6754 26.2784 95.8015 26.7507 95.8015ZM32.7259 97V88.8182H34.3186V97H32.7259ZM33.5303 87.5558C33.2533 87.5558 33.0154 87.4634 32.8165 87.2788C32.6212 87.0906 32.5235 86.8668 32.5235 86.6076C32.5235 86.3448 32.6212 86.1211 32.8165 85.9364C33.0154 85.7482 33.2533 85.6541 33.5303 85.6541C33.8073 85.6541 34.0434 85.7482 34.2387 85.9364C34.4376 86.1211 34.537 86.3448 34.537 86.6076C34.537 86.8668 34.4376 87.0906 34.2387 87.2788C34.0434 87.4634 33.8073 87.5558 33.5303 87.5558ZM38.8423 97.1811C38.3239 97.1811 37.8551 97.0852 37.4361 96.8935C37.017 96.6982 36.685 96.4158 36.44 96.0465C36.1985 95.6772 36.0778 95.2244 36.0778 94.6882C36.0778 94.2266 36.1665 93.8466 36.3441 93.5483C36.5217 93.25 36.7614 93.0138 37.0632 92.8398C37.3651 92.6658 37.7024 92.5344 38.0753 92.4457C38.4482 92.3569 38.8281 92.2894 39.2152 92.2433C39.7053 92.1864 40.103 92.1403 40.4084 92.1048C40.7138 92.0657 40.9357 92.0036 41.0742 91.9183C41.2127 91.8331 41.282 91.6946 41.282 91.5028V91.4656C41.282 91.0004 41.1506 90.6399 40.8878 90.3842C40.6286 90.1286 40.2415 90.0007 39.7266 90.0007C39.1903 90.0007 38.7678 90.1197 38.4588 90.3576C38.1534 90.592 37.9421 90.853 37.8249 91.1406L36.3281 90.7997C36.5057 90.3026 36.7649 89.9013 37.1058 89.5959C37.4503 89.2869 37.8462 89.0632 38.2937 88.9247C38.7411 88.7827 39.2116 88.7116 39.7053 88.7116C40.032 88.7116 40.3782 88.7507 40.744 88.8288C41.1133 88.9034 41.4577 89.0419 41.7773 89.2443C42.1005 89.4467 42.3651 89.7362 42.571 90.1126C42.777 90.4854 42.88 90.9702 42.88 91.5668V97H41.3246V95.8814H41.2607C41.1577 96.0874 41.0032 96.2898 40.7972 96.4886C40.5913 96.6875 40.3267 96.8526 40.0036 96.984C39.6804 97.1154 39.2933 97.1811 38.8423 97.1811ZM39.1886 95.9027C39.6289 95.9027 40.0053 95.8157 40.3178 95.6417C40.6339 95.4677 40.8736 95.2404 41.0369 94.9599C41.2038 94.6758 41.2873 94.3722 41.2873 94.049V92.9943C41.2305 93.0511 41.1204 93.1044 40.957 93.1541C40.7972 93.2003 40.6143 93.2411 40.4084 93.2766C40.2024 93.3086 40.0018 93.3388 39.8065 93.3672C39.6112 93.392 39.4478 93.4134 39.3164 93.4311C39.0075 93.4702 38.7251 93.5359 38.4695 93.6282C38.2173 93.7205 38.0149 93.8537 37.8622 94.0277C37.7131 94.1982 37.6385 94.4254 37.6385 94.7095C37.6385 95.1037 37.7841 95.402 38.0753 95.6044C38.3665 95.8033 38.7376 95.9027 39.1886 95.9027ZM50.7449 86.0909V97H49.0989V86.0909H50.7449ZM54.6067 92.142V97H53.014V88.8182H54.5428V90.1499H54.644C54.8322 89.7166 55.127 89.3686 55.5282 89.1058C55.9331 88.843 56.4426 88.7116 57.057 88.7116C57.6145 88.7116 58.1028 88.8288 58.5218 89.0632C58.9409 89.294 59.2658 89.6385 59.4966 90.0966C59.7275 90.5547 59.8429 91.1211 59.8429 91.7958V97H58.2502V91.9876C58.2502 91.3945 58.0957 90.9311 57.7868 90.5973C57.4778 90.2599 57.0534 90.0913 56.5137 90.0913C56.1444 90.0913 55.8159 90.1712 55.5282 90.331C55.2441 90.4908 55.0186 90.7251 54.8517 91.0341C54.6884 91.3395 54.6067 91.7088 54.6067 92.142ZM65.0417 97.1598C64.3812 97.1598 63.7917 96.9911 63.2733 96.6538C62.7583 96.3129 62.3535 95.8281 62.0588 95.1996C61.7676 94.5675 61.622 93.8093 61.622 92.9251C61.622 92.0408 61.7694 91.2844 62.0641 90.6559C62.3624 90.0273 62.7708 89.5462 63.2892 89.2124C63.8077 88.8786 64.3954 88.7116 65.0524 88.7116C65.5602 88.7116 65.9686 88.7969 66.2775 88.9673C66.59 89.1342 66.8315 89.3295 67.002 89.5533C67.176 89.777 67.3109 89.9741 67.4068 90.1445H67.5027V86.0909H69.0953V97H67.54V95.7269H67.4068C67.3109 95.9009 67.1724 96.0998 66.9913 96.3235C66.8137 96.5472 66.5687 96.7425 66.2562 96.9094C65.9437 97.0763 65.5389 97.1598 65.0417 97.1598ZM65.3933 95.8015C65.8514 95.8015 66.2385 95.6808 66.5545 95.4393C66.8741 95.1942 67.1156 94.8551 67.2789 94.4219C67.4458 93.9886 67.5293 93.4844 67.5293 92.9091C67.5293 92.3409 67.4476 91.8437 67.2843 91.4176C67.1209 90.9915 66.8812 90.6594 66.5652 90.4215C66.2491 90.1836 65.8585 90.0646 65.3933 90.0646C64.9139 90.0646 64.5144 90.1889 64.1948 90.4375C63.8752 90.6861 63.6337 91.0252 63.4703 91.4549C63.3105 91.8846 63.2306 92.3693 63.2306 92.9091C63.2306 93.456 63.3123 93.9478 63.4757 94.3846C63.639 94.8214 63.8805 95.1676 64.2001 95.4233C64.5233 95.6754 64.921 95.8015 65.3933 95.8015ZM76.5514 93.6069V88.8182H78.1494V97H76.5834V95.5831H76.4981C76.3099 96.0199 76.0081 96.3839 75.5926 96.6751C75.1807 96.9627 74.6675 97.1065 74.0532 97.1065C73.5276 97.1065 73.0624 96.9911 72.6576 96.7603C72.2563 96.5259 71.9403 96.1797 71.7094 95.7216C71.4822 95.2635 71.3685 94.6971 71.3685 94.0224V88.8182H72.9612V93.8306C72.9612 94.3881 73.1157 94.832 73.4246 95.1623C73.7336 95.4925 74.1349 95.6577 74.6285 95.6577C74.9268 95.6577 75.2233 95.5831 75.518 95.4339C75.8163 95.2848 76.0631 95.0593 76.2584 94.7575C76.4573 94.4556 76.555 94.0721 76.5514 93.6069ZM86.4205 90.8157L84.9769 91.0714C84.9165 90.8867 84.8207 90.7109 84.6893 90.544C84.5614 90.3771 84.3874 90.2404 84.1673 90.1339C83.9471 90.0273 83.6719 89.9741 83.3416 89.9741C82.8906 89.9741 82.5142 90.0753 82.2124 90.2777C81.9105 90.4766 81.7596 90.734 81.7596 91.0501C81.7596 91.3235 81.8608 91.5437 82.0632 91.7106C82.2656 91.8775 82.5923 92.0142 83.0433 92.1207L84.343 92.419C85.0959 92.593 85.657 92.8612 86.0263 93.2234C86.3956 93.5856 86.5803 94.0561 86.5803 94.6349C86.5803 95.125 86.4382 95.5618 86.1541 95.9453C85.8736 96.3253 85.4812 96.6236 84.9769 96.8402C84.4762 97.0568 83.8956 97.1651 83.2351 97.1651C82.3189 97.1651 81.5714 96.9698 80.9925 96.5792C80.4137 96.185 80.0586 95.6257 79.9272 94.9013L81.4666 94.6669C81.5625 95.0682 81.7596 95.3718 82.0579 95.5778C82.3562 95.7802 82.745 95.8814 83.2244 95.8814C83.7464 95.8814 84.1637 95.7731 84.4762 95.5565C84.7887 95.3363 84.945 95.0682 84.945 94.7521C84.945 94.4964 84.8491 94.2816 84.6573 94.1076C84.4691 93.9336 84.1797 93.8022 83.7891 93.7134L82.4041 93.4098C81.6406 93.2358 81.076 92.9588 80.7102 92.5788C80.348 92.1989 80.1669 91.7177 80.1669 91.1353C80.1669 90.6523 80.3018 90.2298 80.5717 89.8675C80.8416 89.5053 81.2145 89.223 81.6903 89.0206C82.1662 88.8146 82.7113 88.7116 83.3256 88.7116C84.2099 88.7116 84.9059 88.9034 85.4137 89.2869C85.9215 89.6669 86.2571 90.1765 86.4205 90.8157ZM92.1507 88.8182V90.0966H87.6816V88.8182H92.1507ZM88.8801 86.858H90.4727V94.5977C90.4727 94.9066 90.5189 95.1392 90.6112 95.2955C90.7036 95.4482 90.8225 95.5529 90.9681 95.6097C91.1173 95.663 91.2789 95.6896 91.4529 95.6896C91.5807 95.6896 91.6926 95.6808 91.7884 95.663C91.8843 95.6452 91.9589 95.631 92.0122 95.6204L92.2998 96.9361C92.2075 96.9716 92.0761 97.0071 91.9056 97.0426C91.7352 97.0817 91.5221 97.103 91.2664 97.1065C90.8474 97.1136 90.4568 97.0391 90.0945 96.8828C89.7323 96.7266 89.4394 96.4851 89.2156 96.1584C88.9919 95.8317 88.8801 95.4215 88.8801 94.9279V86.858ZM93.9125 97V88.8182H95.4519V90.1179H95.5371C95.6863 89.6776 95.949 89.3313 96.3255 89.0792C96.7054 88.8235 97.1351 88.6957 97.6145 88.6957C97.714 88.6957 97.8311 88.6992 97.9661 88.7063C98.1046 88.7134 98.2129 88.7223 98.291 88.733V90.2564C98.2271 90.2386 98.1135 90.2191 97.9501 90.1978C97.7868 90.1729 97.6234 90.1605 97.46 90.1605C97.0836 90.1605 96.748 90.2404 96.4533 90.4002C96.1621 90.5565 95.9313 90.7749 95.7608 91.0554C95.5904 91.3324 95.5051 91.6484 95.5051 92.0036V97H93.9125ZM100.925 100.068C100.687 100.068 100.471 100.049 100.275 100.01C100.08 99.9741 99.9343 99.935 99.8384 99.8924L100.222 98.5874C100.513 98.6655 100.772 98.6992 101 98.6886C101.227 98.6779 101.428 98.5927 101.602 98.4329C101.779 98.2731 101.935 98.0121 102.07 97.6499L102.267 97.1065L99.2738 88.8182H100.978L103.05 95.1676H103.136L105.208 88.8182H106.918L103.546 98.092C103.39 98.5181 103.191 98.8786 102.949 99.1733C102.708 99.4716 102.42 99.6953 102.086 99.8445C101.752 99.9936 101.365 100.068 100.925 100.068Z" fill="#C1A74A"/>
<path d="M41.3333 38.2381V10.4286C41.3333 6.60476 44.4619 3.47619 48.2857 3.47619H79.5714C83.3952 3.47619 86.5238 6.60476 86.5238 10.4286V31.2857H74.6005L70.151 25.2371C70.1077 25.1652 70.0465 25.1056 69.9734 25.0642C69.9003 25.0229 69.8178 25.0011 69.7338 25.0011C69.6498 25.0011 69.5673 25.0229 69.4942 25.0642C69.4211 25.1056 69.3599 25.1652 69.3167 25.2371L62.3991 34.7619C62.1905 34.9705 61.7733 35.0052 61.5648 34.7619L56.5938 28.6786C56.5442 28.6212 56.4828 28.5751 56.4139 28.5436C56.3449 28.512 56.2699 28.4957 56.194 28.4957C56.1182 28.4957 56.0432 28.512 55.9742 28.5436C55.9053 28.5751 55.8439 28.6212 55.7943 28.6786L48.4595 37.9252C48.1814 38.2381 48.4248 38.7595 48.8419 38.7595H70.881V45.1905H48.2857C44.4271 45.1905 41.3333 42.0967 41.3333 38.2381ZM30.9048 69.5238V66.0476H23.9524V69.5238H17V0H23.9524V3.47619H30.9048V0H39.2129C36.2581 2.57238 34.381 6.25714 34.381 10.4286V38.2381C34.381 45.9205 40.6033 52.1429 48.2857 52.1429H64.6238C61.0433 55.0281 58.7143 59.3733 58.7143 64.3095C58.7143 66.1519 59.0967 67.89 59.6876 69.5238H30.9048ZM23.9524 17.381H30.9048V10.4286H23.9524V17.381ZM23.9524 31.2857H30.9048V24.3333H23.9524V31.2857ZM23.9524 45.1905H30.9048V38.2381H23.9524V45.1905ZM30.9048 59.0952V52.1429H23.9524V59.0952H30.9048ZM90 38.2381V45.1905H83.0476V64.3095C83.0476 66.6144 82.132 68.8248 80.5022 70.4546C78.8725 72.0844 76.662 73 74.3571 73C72.0523 73 69.8418 72.0844 68.2121 70.4546C66.5823 68.8248 65.6667 66.6144 65.6667 64.3095C65.6674 62.8669 66.0273 61.4472 66.7138 60.1784C67.4003 58.9096 68.3919 57.8316 69.599 57.0418C70.8062 56.252 72.191 55.7751 73.6286 55.6541C75.0661 55.5332 76.5112 55.772 77.8333 56.349C77.8333 56.349 71.9623 42.1821 77.8333 38.2381C81.7774 35.5885 90 38.2381 90 38.2381Z" fill="#C1A74A"/>
</svg>
