<svg width="73" height="73" viewBox="0 0 73 73" fill="none" xmlns="http://www.w3.org/2000/svg">
<path d="M24.3333 38.2381V10.4286C24.3333 6.60476 27.4619 3.47619 31.2857 3.47619H62.5714C66.3952 3.47619 69.5238 6.60476 69.5238 10.4286V31.2857H57.6005L53.151 25.2371C53.1077 25.1652 53.0465 25.1056 52.9734 25.0642C52.9003 25.0229 52.8178 25.0011 52.7338 25.0011C52.6498 25.0011 52.5673 25.0229 52.4942 25.0642C52.4211 25.1056 52.3599 25.1652 52.3167 25.2371L45.3991 34.7619C45.1905 34.9705 44.7733 35.0052 44.5648 34.7619L39.5938 28.6786C39.5442 28.6212 39.4828 28.5751 39.4139 28.5436C39.3449 28.512 39.2699 28.4957 39.194 28.4957C39.1182 28.4957 39.0432 28.512 38.9742 28.5436C38.9053 28.5751 38.8439 28.6212 38.7943 28.6786L31.4595 37.9252C31.1814 38.2381 31.4248 38.7595 31.8419 38.7595H53.881V45.1905H31.2857C27.4271 45.1905 24.3333 42.0967 24.3333 38.2381ZM13.9048 69.5238V66.0476H6.95238V69.5238H0V0H6.95238V3.47619H13.9048V0H22.2129C19.2581 2.57238 17.381 6.25714 17.381 10.4286V38.2381C17.381 45.9205 23.6033 52.1429 31.2857 52.1429H47.6238C44.0433 55.0281 41.7143 59.3733 41.7143 64.3095C41.7143 66.1519 42.0967 67.89 42.6876 69.5238H13.9048ZM6.95238 17.381H13.9048V10.4286H6.95238V17.381ZM6.95238 31.2857H13.9048V24.3333H6.95238V31.2857ZM6.95238 45.1905H13.9048V38.2381H6.95238V45.1905ZM13.9048 59.0952V52.1429H6.95238V59.0952H13.9048ZM73 38.2381V45.1905H66.0476V64.3095C66.0476 66.6144 65.132 68.8248 63.5022 70.4546C61.8725 72.0844 59.662 73 57.3571 73C55.0523 73 52.8418 72.0844 51.2121 70.4546C49.5823 68.8248 48.6667 66.6144 48.6667 64.3095C48.6674 62.8669 49.0273 61.4472 49.7138 60.1784C50.4003 58.9096 51.3919 57.8316 52.599 57.0418C53.8062 56.252 55.191 55.7751 56.6286 55.6541C58.0661 55.5332 59.5112 55.772 60.8333 56.349V38.2381H73Z" fill="white"/>
</svg>
