<svg width="30" height="30" viewBox="0 0 30 30" fill="none" xmlns="http://www.w3.org/2000/svg">
<path d="M28.75 16.2227H1.25C0.559998 16.2227 0 15.6627 0 14.9727C0 14.2827 0.559998 13.7227 1.25 13.7227H28.75C29.44 13.7227 30 14.2827 30 14.9727C30 15.6627 29.44 16.2227 28.75 16.2227Z" fill="white"/>
<path d="M14.375 8.64062H0.625C0.279999 8.64062 0 8.08063 0 7.39062C0 6.70062 0.279999 6.14062 0.625 6.14062H14.375C14.72 6.14062 15 6.70062 15 7.39062C15 8.08063 14.72 8.64062 14.375 8.64062Z" fill="white"/>
<path d="M29.375 23.8066H15.625C15.28 23.8066 15 23.2466 15 22.5566C15 21.8666 15.28 21.3066 15.625 21.3066H29.375C29.72 21.3066 30 21.8666 30 22.5566C30 23.2466 29.72 23.8066 29.375 23.8066Z" fill="white"/>
</svg>
