<svg width="75" height="100" viewBox="0 0 75 100" fill="none" xmlns="http://www.w3.org/2000/svg">
<path d="M18.9691 70.8258C17.2719 69.1285 18.1566 69.607 14.0629 68.5113C12.2055 68.0133 10.5727 67.0563 9.09609 65.9098L0.234761 87.6363C-0.622661 89.7399 0.978901 92.025 3.24843 91.9391L13.5394 91.5465L20.6176 99.023C22.1801 100.671 24.9223 100.158 25.7797 98.0543L35.9457 73.1285C33.8285 74.3082 31.4789 74.9996 29.0492 74.9996C25.2406 74.9996 21.6625 73.5172 18.9691 70.8258ZM74.766 87.6363L65.9047 65.9098C64.4281 67.0582 62.7953 68.0133 60.9379 68.5113C56.8226 69.6129 57.725 69.1324 56.0316 70.8258C53.3383 73.5172 49.7582 74.9996 45.9496 74.9996C43.5199 74.9996 41.1703 74.3063 39.0531 73.1285L49.2191 98.0543C50.0766 100.158 52.8207 100.671 54.3812 99.023L61.4613 91.5465L71.7523 91.9391C74.0219 92.025 75.6234 89.7379 74.766 87.6363ZM51.3676 66.4059C54.3519 63.3688 54.6937 63.6305 58.9437 62.4723C61.6566 61.732 63.7777 59.5738 64.5043 56.8121C65.9652 51.2652 65.5863 51.9352 69.5726 47.8766C71.559 45.8551 72.3344 42.9078 71.6078 40.1461C70.1488 34.6031 70.1469 35.3766 71.6078 29.8277C72.3344 27.066 71.559 24.1188 69.5726 22.0973C65.5863 18.0387 65.9652 18.7067 64.5043 13.1617C63.7777 10.4 61.6566 8.24181 58.9437 7.50157C53.4984 6.01525 54.1547 6.40392 50.1644 2.34337C48.1781 0.321887 45.2816 -0.469128 42.5687 0.271106C37.1254 1.75548 37.8851 1.75743 32.432 0.271106C29.7191 -0.469128 26.8227 0.319934 24.8363 2.34337C20.85 6.40197 21.5062 6.01525 16.059 7.50157C13.3461 8.24181 11.225 10.4 10.4984 13.1617C9.03945 18.7067 9.4164 18.0387 5.43007 22.0973C3.44374 24.1188 2.6664 27.066 3.39492 29.8277C4.8539 35.3668 4.85585 34.5934 3.39492 40.1441C2.66835 42.9059 3.44374 45.8531 5.43007 47.8766C9.4164 51.9352 9.03749 51.2652 10.4984 56.8121C11.225 59.5738 13.3461 61.732 16.059 62.4723C20.4301 63.6637 20.7562 63.4762 23.6332 66.4059C26.2172 69.0367 30.2426 69.5074 33.348 67.5426C34.5899 66.7542 36.0304 66.3356 37.5014 66.3356C38.9723 66.3356 40.4129 66.7542 41.6547 67.5426C44.7582 69.5074 48.7836 69.0367 51.3676 66.4059ZM19.0746 34.3668C19.0746 24.0094 27.3246 15.6129 37.5004 15.6129C47.6762 15.6129 55.9262 24.0094 55.9262 34.3668C55.9262 44.7242 47.6762 53.1207 37.5004 53.1207C27.3246 53.1207 19.0746 44.7242 19.0746 34.3668Z" fill="#0D0D2B"/>
</svg>
