<svg width="81" height="74" viewBox="0 0 80 72" fill="none" xmlns="http://www.w3.org/2000/svg">
<path d="M22.7689 23.3333L26.2844 0H8L0.36 20C0.124444 20.7111 0 21.4489 0 22.2222C0 27.1289 5.11111 31.1111 11.4267 31.1111C17.2489 31.1111 22.0622 27.7156 22.7689 23.3333ZM40 31.1111C46.3111 31.1111 51.4267 27.1289 51.4267 22.2222C51.4267 22.04 51.4133 21.8578 51.4044 21.6844L49.1422 0H30.8578L28.5911 21.6667C28.5806 21.8517 28.5747 22.0369 28.5733 22.2222C28.5733 27.1289 33.6889 31.1111 40 31.1111ZM62.2222 35.76V53.3333H17.7778V35.7867C15.8311 36.4889 13.6889 36.8889 11.4267 36.8889C10.56 36.8889 9.72 36.7867 8.88889 36.6711V64.8889C8.88889 68.3111 11.6844 71.1111 15.1022 71.1111H64.8889C68.3111 71.1111 71.1111 68.3067 71.1111 64.8889V36.6756C70.271 36.8045 69.4232 36.8773 68.5733 36.8933C66.4062 36.8911 64.2564 36.5075 62.2222 35.76ZM79.6444 20L71.9956 0H53.7156L57.2267 23.2978C57.9111 27.6978 62.7245 31.1111 68.5733 31.1111C74.8845 31.1111 80 27.1289 80 22.2222C80 21.4489 79.8756 20.7111 79.6444 20Z" fill="#BA62FF"/>
</svg>
