<svg width="82" height="100" viewBox="0 0 82 100" fill="none" xmlns="http://www.w3.org/2000/svg">
<path d="M7.14844 87.9567C7.09162 87.4524 6.85724 87.0618 6.44531 86.7848C6.03338 86.5043 5.51492 86.364 4.88992 86.364C4.44247 86.364 4.0554 86.435 3.72869 86.5771C3.40199 86.7156 3.14808 86.9073 2.96697 87.1523C2.78942 87.3938 2.70064 87.669 2.70064 87.978C2.70064 88.2372 2.76101 88.4609 2.88175 88.6491C3.00604 88.8374 3.16761 88.9954 3.36648 89.1232C3.56889 89.2475 3.78551 89.3523 4.01634 89.4375C4.24716 89.5192 4.46911 89.5866 4.68217 89.6399L5.74751 89.9169C6.09553 90.0021 6.45241 90.1175 6.81818 90.2631C7.18395 90.4087 7.52308 90.6005 7.83558 90.8384C8.14808 91.0763 8.40021 91.3711 8.59197 91.7227C8.78729 92.0742 8.88494 92.495 8.88494 92.9851C8.88494 93.603 8.72514 94.1516 8.40554 94.631C8.08949 95.1104 7.62962 95.4886 7.02592 95.7656C6.42578 96.0426 5.69957 96.1811 4.8473 96.1811C4.03054 96.1811 3.32386 96.0515 2.72727 95.7923C2.13068 95.533 1.66371 95.1655 1.32635 94.6896C0.988991 94.2102 0.802557 93.642 0.767046 92.9851H2.41832C2.45028 93.3793 2.57813 93.7077 2.80185 93.9705C3.02912 94.2298 3.31854 94.4233 3.6701 94.5511C4.02521 94.6754 4.41406 94.7376 4.83665 94.7376C5.30185 94.7376 5.71555 94.6648 6.07777 94.5192C6.44354 94.37 6.73118 94.1641 6.9407 93.9013C7.15021 93.6349 7.25497 93.3242 7.25497 92.9691C7.25497 92.646 7.16264 92.3814 6.97798 92.1754C6.79688 91.9695 6.55007 91.799 6.23757 91.6641C5.92862 91.5291 5.57884 91.4102 5.18821 91.3072L3.89915 90.9556C3.02557 90.7177 2.3331 90.3679 1.82173 89.9062C1.31392 89.4446 1.06001 88.8338 1.06001 88.0739C1.06001 87.4453 1.23047 86.8967 1.57138 86.4279C1.91229 85.9592 2.37393 85.5952 2.95632 85.3359C3.53871 85.0732 4.19567 84.9418 4.9272 84.9418C5.66584 84.9418 6.31747 85.0714 6.8821 85.3306C7.45028 85.5898 7.89773 85.9467 8.22443 86.4013C8.55114 86.8523 8.72159 87.3707 8.7358 87.9567H7.14844ZM15.9069 92.6069V87.8182H17.5049V96H15.9388V94.5831H15.8536C15.6654 95.0199 15.3635 95.3839 14.9481 95.6751C14.5361 95.9627 14.023 96.1065 13.4086 96.1065C12.8831 96.1065 12.4179 95.9911 12.0131 95.7603C11.6118 95.5259 11.2957 95.1797 11.0649 94.7216C10.8376 94.2635 10.724 93.6971 10.724 93.0224V87.8182H12.3167V92.8306C12.3167 93.3881 12.4711 93.832 12.7801 94.1623C13.089 94.4925 13.4903 94.6577 13.9839 94.6577C14.2822 94.6577 14.5787 94.5831 14.8735 94.4339C15.1718 94.2848 15.4186 94.0593 15.6139 93.7575C15.8128 93.4556 15.9104 93.0721 15.9069 92.6069ZM19.6449 99.0682V87.8182H21.2003V89.1445H21.3335C21.4258 88.9741 21.5589 88.777 21.733 88.5533C21.907 88.3295 22.1484 88.1342 22.4574 87.9673C22.7663 87.7969 23.1747 87.7116 23.6825 87.7116C24.343 87.7116 24.9325 87.8786 25.451 88.2124C25.9695 88.5462 26.3761 89.0273 26.6708 89.6559C26.9691 90.2844 27.1183 91.0408 27.1183 91.9251C27.1183 92.8093 26.9709 93.5675 26.6761 94.1996C26.3814 94.8281 25.9766 95.3129 25.4616 95.6538C24.9467 95.9911 24.359 96.1598 23.6985 96.1598C23.2013 96.1598 22.7947 96.0763 22.4787 95.9094C22.1662 95.7425 21.9212 95.5472 21.7436 95.3235C21.5661 95.0998 21.4293 94.9009 21.3335 94.7269H21.2376V99.0682H19.6449ZM21.2056 91.9091C21.2056 92.4844 21.2891 92.9886 21.456 93.4219C21.6229 93.8551 21.8643 94.1942 22.1804 94.4393C22.4964 94.6808 22.8835 94.8015 23.3416 94.8015C23.8175 94.8015 24.2152 94.6754 24.5348 94.4233C24.8544 94.1676 25.0959 93.8214 25.2592 93.3846C25.4261 92.9478 25.5096 92.456 25.5096 91.9091C25.5096 91.3693 25.4279 90.8846 25.2646 90.4549C25.1048 90.0252 24.8633 89.6861 24.5401 89.4375C24.2205 89.1889 23.821 89.0646 23.3416 89.0646C22.88 89.0646 22.4893 89.1836 22.1697 89.4215C21.8537 89.6594 21.614 89.9915 21.4506 90.4176C21.2873 90.8437 21.2056 91.3409 21.2056 91.9091ZM32.429 96.1651C31.6229 96.1651 30.9286 95.9929 30.3462 95.6484C29.7674 95.3004 29.32 94.8121 29.0039 94.1836C28.6914 93.5515 28.5352 92.8111 28.5352 91.9624C28.5352 91.1243 28.6914 90.3857 29.0039 89.7464C29.32 89.1072 29.7603 88.6083 30.3249 88.2496C30.8931 87.891 31.5572 87.7116 32.3171 87.7116C32.7788 87.7116 33.2262 87.788 33.6594 87.9407C34.0927 88.0934 34.4815 88.3331 34.826 88.6598C35.1705 88.9865 35.4421 89.4109 35.641 89.9329C35.8398 90.4513 35.9393 91.0817 35.9393 91.8239V92.3885H29.4354V91.1953H34.3786C34.3786 90.7763 34.2933 90.4052 34.1229 90.082C33.9524 89.7553 33.7127 89.4979 33.4038 89.3097C33.0984 89.1214 32.7397 89.0273 32.3278 89.0273C31.8803 89.0273 31.4897 89.1374 31.1559 89.3576C30.8256 89.5742 30.57 89.8583 30.3888 90.2099C30.2113 90.5579 30.1225 90.9361 30.1225 91.3445V92.2766C30.1225 92.8235 30.2184 93.2887 30.4102 93.6722C30.6055 94.0558 30.8771 94.3487 31.2251 94.5511C31.5732 94.75 31.9798 94.8494 32.445 94.8494C32.7468 94.8494 33.022 94.8068 33.2706 94.7216C33.5192 94.6328 33.734 94.5014 33.9151 94.3274C34.0962 94.1534 34.2347 93.9386 34.3306 93.6829L35.8381 93.9545C35.7173 94.3984 35.5007 94.7873 35.1882 95.1211C34.8793 95.4513 34.4904 95.7088 34.0217 95.8935C33.5565 96.0746 33.0256 96.1651 32.429 96.1651ZM37.7064 96V87.8182H39.2458V89.1179H39.3311C39.4802 88.6776 39.743 88.3313 40.1194 88.0792C40.4994 87.8235 40.9291 87.6957 41.4085 87.6957C41.5079 87.6957 41.6251 87.6992 41.76 87.7063C41.8985 87.7134 42.0068 87.7223 42.085 87.733V89.2564C42.021 89.2386 41.9074 89.2191 41.7441 89.1978C41.5807 89.1729 41.4173 89.1605 41.254 89.1605C40.8776 89.1605 40.542 89.2404 40.2472 89.4002C39.9561 89.5565 39.7252 89.7749 39.5548 90.0554C39.3843 90.3324 39.2991 90.6484 39.2991 91.0036V96H37.7064ZM53.564 89.8157L52.1205 90.0714C52.0601 89.8867 51.9642 89.7109 51.8328 89.544C51.705 89.3771 51.531 89.2404 51.3108 89.1339C51.0906 89.0273 50.8154 88.9741 50.4852 88.9741C50.0342 88.9741 49.6578 89.0753 49.3559 89.2777C49.0541 89.4766 48.9031 89.734 48.9031 90.0501C48.9031 90.3235 49.0044 90.5437 49.2068 90.7106C49.4092 90.8775 49.7359 91.0142 50.1869 91.1207L51.4866 91.419C52.2394 91.593 52.8005 91.8612 53.1698 92.2234C53.5392 92.5856 53.7238 93.0561 53.7238 93.6349C53.7238 94.125 53.5818 94.5618 53.2977 94.9453C53.0171 95.3253 52.6247 95.6236 52.1205 95.8402C51.6198 96.0568 51.0392 96.1651 50.3786 96.1651C49.4624 96.1651 48.7149 95.9698 48.1361 95.5792C47.5573 95.185 47.2021 94.6257 47.0708 93.9013L48.6102 93.6669C48.7061 94.0682 48.9031 94.3718 49.2014 94.5778C49.4997 94.7802 49.8886 94.8814 50.368 94.8814C50.89 94.8814 51.3073 94.7731 51.6198 94.5565C51.9323 94.3363 52.0885 94.0682 52.0885 93.7521C52.0885 93.4964 51.9926 93.2816 51.8009 93.1076C51.6127 92.9336 51.3232 92.8022 50.9326 92.7134L49.5477 92.4098C48.7842 92.2358 48.2195 91.9588 47.8538 91.5788C47.4916 91.1989 47.3105 90.7177 47.3105 90.1353C47.3105 89.6523 47.4454 89.2298 47.7153 88.8675C47.9852 88.5053 48.358 88.223 48.8339 88.0206C49.3097 87.8146 49.8548 87.7116 50.4692 87.7116C51.3534 87.7116 52.0494 87.9034 52.5573 88.2869C53.0651 88.6669 53.4007 89.1765 53.564 89.8157ZM57.0676 91.142V96H55.475V85.0909H57.0463V89.1499H57.1475C57.3393 88.7095 57.6323 88.3597 58.0265 88.1005C58.4206 87.8413 58.9355 87.7116 59.5712 87.7116C60.1323 87.7116 60.6223 87.8271 61.0414 88.0579C61.464 88.2887 61.7907 88.6332 62.0215 89.0913C62.2559 89.5458 62.373 90.114 62.373 90.7958V96H60.7804V90.9876C60.7804 90.3874 60.6259 89.9222 60.3169 89.592C60.008 89.2582 59.5783 89.0913 59.0279 89.0913C58.6515 89.0913 58.3141 89.1712 58.0158 89.331C57.7211 89.4908 57.4885 89.7251 57.318 90.0341C57.1511 90.3395 57.0676 90.7088 57.0676 91.142ZM67.9448 96.1651C67.1777 96.1651 66.5083 95.9893 65.9366 95.6378C65.3649 95.2862 64.921 94.7944 64.6049 94.1623C64.2889 93.5302 64.1309 92.7915 64.1309 91.9464C64.1309 91.0977 64.2889 90.3555 64.6049 89.7198C64.921 89.0842 65.3649 88.5906 65.9366 88.239C66.5083 87.8874 67.1777 87.7116 67.9448 87.7116C68.7118 87.7116 69.3812 87.8874 69.9529 88.239C70.5247 88.5906 70.9686 89.0842 71.2846 89.7198C71.6007 90.3555 71.7587 91.0977 71.7587 91.9464C71.7587 92.7915 71.6007 93.5302 71.2846 94.1623C70.9686 94.7944 70.5247 95.2862 69.9529 95.6378C69.3812 95.9893 68.7118 96.1651 67.9448 96.1651ZM67.9501 94.8281C68.4473 94.8281 68.8592 94.6967 69.1859 94.4339C69.5126 94.1712 69.7541 93.8214 69.9103 93.3846C70.0701 92.9478 70.15 92.4666 70.15 91.9411C70.15 91.419 70.0701 90.9396 69.9103 90.5028C69.7541 90.0625 69.5126 89.7092 69.1859 89.4428C68.8592 89.1765 68.4473 89.0433 67.9501 89.0433C67.4494 89.0433 67.0339 89.1765 66.7037 89.4428C66.377 89.7092 66.1337 90.0625 65.9739 90.5028C65.8176 90.9396 65.7395 91.419 65.7395 91.9411C65.7395 92.4666 65.8176 92.9478 65.9739 93.3846C66.1337 93.8214 66.377 94.1712 66.7037 94.4339C67.0339 94.6967 67.4494 94.8281 67.9501 94.8281ZM73.5365 99.0682V87.8182H75.0919V89.1445H75.2251C75.3174 88.9741 75.4506 88.777 75.6246 88.5533C75.7986 88.3295 76.04 88.1342 76.349 87.9673C76.6579 87.7969 77.0663 87.7116 77.5741 87.7116C78.2346 87.7116 78.8241 87.8786 79.3426 88.2124C79.8611 88.5462 80.2677 89.0273 80.5624 89.6559C80.8607 90.2844 81.0099 91.0408 81.0099 91.9251C81.0099 92.8093 80.8625 93.5675 80.5677 94.1996C80.273 94.8281 79.8682 95.3129 79.3532 95.6538C78.8383 95.9911 78.2506 96.1598 77.5901 96.1598C77.093 96.1598 76.6863 96.0763 76.3703 95.9094C76.0578 95.7425 75.8128 95.5472 75.6352 95.3235C75.4577 95.0998 75.3209 94.9009 75.2251 94.7269H75.1292V99.0682H73.5365ZM75.0972 91.9091C75.0972 92.4844 75.1807 92.9886 75.3476 93.4219C75.5145 93.8551 75.7559 94.1942 76.072 94.4393C76.3881 94.6808 76.7751 94.8015 77.2332 94.8015C77.7091 94.8015 78.1068 94.6754 78.4264 94.4233C78.746 94.1676 78.9875 93.8214 79.1508 93.3846C79.3177 92.9478 79.4012 92.456 79.4012 91.9091C79.4012 91.3693 79.3195 90.8846 79.1562 90.4549C78.9964 90.0252 78.7549 89.6861 78.4317 89.4375C78.1121 89.1889 77.7126 89.0646 77.2332 89.0646C76.7716 89.0646 76.3809 89.1836 76.0613 89.4215C75.7453 89.6594 75.5056 89.9915 75.3422 90.4176C75.1789 90.8437 75.0972 91.3409 75.0972 91.9091Z" fill="#BA62FF"/>
<path d="M23.7689 23.3333L27.2844 0H9L1.36 20C1.12444 20.7111 1 21.4489 1 22.2222C1 27.1289 6.11111 31.1111 12.4267 31.1111C18.2489 31.1111 23.0622 27.7156 23.7689 23.3333ZM41 31.1111C47.3111 31.1111 52.4267 27.1289 52.4267 22.2222C52.4267 22.04 52.4133 21.8578 52.4044 21.6844L50.1422 0H31.8578L29.5911 21.6667C29.5806 21.8517 29.5747 22.0369 29.5733 22.2222C29.5733 27.1289 34.6889 31.1111 41 31.1111ZM63.2222 35.76V53.3333H18.7778V35.7867C16.8311 36.4889 14.6889 36.8889 12.4267 36.8889C11.56 36.8889 10.72 36.7867 9.88889 36.6711V64.8889C9.88889 68.3111 12.6844 71.1111 16.1022 71.1111H65.8889C69.3111 71.1111 72.1111 68.3067 72.1111 64.8889V36.6756C71.271 36.8045 70.4232 36.8773 69.5733 36.8933C67.4062 36.8911 65.2564 36.5075 63.2222 35.76ZM80.6444 20L72.9956 0H54.7156L58.2267 23.2978C58.9111 27.6978 63.7245 31.1111 69.5733 31.1111C75.8845 31.1111 81 27.1289 81 22.2222C81 21.4489 80.8756 20.7111 80.6444 20Z" fill="#BA62FF"/>
</svg>
