<svg width="24" height="24" viewBox="0 0 24 24" fill="none" xmlns="http://www.w3.org/2000/svg">
<path d="M8.27062 3.7111L10.3406 2.8711C11.1506 2.5411 12.0806 2.9311 12.4106 3.7511L13.0406 5.2911C13.3706 6.1011 12.9806 7.0311 12.1606 7.3711L9.87062 8.3011C10.1106 9.4511 10.4806 10.8011 11.0606 12.2611C11.7106 13.9111 12.4606 15.2711 13.1406 16.3611L15.4306 15.4311C16.2506 15.1011 17.1806 15.4911 17.5106 16.3111L18.1406 17.8511C18.4706 18.6711 18.0806 19.6011 17.2606 19.9311L15.1906 20.7711L15.1506 20.7911C12.9206 21.6911 10.3506 20.8211 9.19062 18.7211C8.41062 17.3111 7.64062 15.7311 6.93062 13.9611C6.29062 12.3611 5.79062 10.8311 5.41062 9.4111C4.78062 7.0811 6.00062 4.6511 8.23062 3.7411L8.27062 3.7111Z" stroke="#F9FAFB" stroke-width="1.2" stroke-miterlimit="10" stroke-linecap="round" stroke-linejoin="round"/>
</svg>
