<svg width="70" height="73" viewBox="0 0 70 73" fill="none" xmlns="http://www.w3.org/2000/svg">
<path d="M5.96455 19.0591C6.52118 18.3108 7.25422 17.298 7.84126 16.574C9.59934 14.5787 9.82747 14.3171 11.4274 12.8419C11.9019 12.4526 12.4646 11.9842 13.0151 11.5431C8.95451 14.9802 8.43743 18.7853 12.1635 21.1365C12.1574 21.1365 12.1574 21.1365 12.1574 21.1426C17.3678 24.2816 28.7862 23.6033 37.7956 19.5823C46.5221 15.6889 49.7433 10.1196 45.4363 6.81029C41.6555 6.10158 37.1477 6.01946 32.3784 6.65821L31.8826 5.84L32.2932 4.48342C35.0976 4.23096 37.7621 4.29179 40.0616 4.68417C40.6183 4.77846 41.3513 4.93967 41.8988 5.05525C42.9573 5.31379 43.5322 5.46892 44.2226 5.69096C44.9283 5.90083 45.5305 6.11071 46.5799 6.50004C47.608 6.90458 48.0521 7.08708 48.8764 7.49771C49.7995 7.91887 50.6964 8.39525 51.5622 8.92425C58.4242 13.2404 54.1567 21.1152 42.0478 26.5112C29.9724 31.8888 14.5846 32.7344 7.68918 28.47C7.68614 28.4639 7.67701 28.4578 7.65876 28.4518H7.67093C3.90534 26.0671 3.50993 22.6057 5.96455 19.0591ZM37.3819 49.2324L37.2846 44.384L33.8384 40.5515C22.4534 43.1308 11.2631 42.5773 5.03989 38.912C5.01859 38.8877 4.96689 38.8634 4.94559 38.839C1.42334 36.6703 0.553428 33.872 0.818053 30.8303C-0.00623845 35.2803 -0.0731551 36.8863 0.0454699 40.6945C0.19147 43.0791 1.56934 45.2783 4.3403 47.012L4.36159 47.0363C10.9955 51.1608 24.8168 52.0551 37.3819 49.2324ZM51.7538 54.7835C35.6847 61.2288 15.5732 61.609 6.83751 55.6443C7.78091 57.9497 9.06456 60.1008 10.6457 62.0257C18.6635 67.5007 37.1234 67.1509 51.8663 61.2348C60.4956 57.7765 65.9401 53.1744 67.3697 48.8613L67.7712 47.5625C68.7233 44.2715 68.9027 41.5309 69.0548 39.0915C68.8814 44.387 62.643 50.4095 51.7538 54.7835ZM16.2819 67.1965C16.7868 67.6771 18.3745 69.6268 26.4198 71.7803C28.5945 72.2609 34.0695 73.803 44.1831 71.5613L44.2439 70.6397L43.444 69.3865C34.0604 71.6069 23.6366 70.8647 16.2819 67.1965ZM39.502 28.8441L48.046 35.3198C48.046 35.3198 49.8741 36.6369 48.1494 37.5615C46.4309 38.4771 42.0174 40.7188 42.0174 40.7188L37.6587 39.0915L35.4718 40.0648L39.3286 43.4137L39.359 48.6241L41.625 47.6173L43.1276 43.216C43.1276 43.216 47.7418 41.4397 49.5729 40.7705C51.4131 40.1165 51.1668 42.3552 51.1668 42.3552L50.2603 53.0345L53.2716 51.6962L58.2295 37.2878C58.2295 37.2878 60.8575 36.0103 62.7068 34.8879C64.5531 33.7655 65.1858 31.904 65.1858 31.904C65.1858 31.904 63.3851 31.1284 61.3107 31.752C59.2363 32.3694 56.5323 33.4705 56.5323 33.4705L42.5041 27.5119L39.502 28.8441ZM21.4253 8.35546L27.2258 12.9757L28.8105 12.7385L25.6533 8.59271C25.6533 8.59271 24.9658 7.73496 25.8905 7.53117C26.8213 7.32433 29.1755 6.84375 29.1755 6.84375L30.9458 8.25813L32.1381 8.08171L30.7876 5.93429L31.4993 3.55267L30.3465 3.71996L28.9808 5.53279C28.9808 5.53279 26.584 5.75788 25.6411 5.83696C24.6921 5.90996 25.0997 4.891 25.0997 4.891L26.9186 0L25.3248 0.234208L21.1273 6.34492C21.1273 6.34492 19.7281 6.60042 18.7152 6.88938C17.6993 7.17529 17.164 7.96004 17.164 7.96004C17.164 7.96004 17.9092 8.56229 18.9586 8.541C20.0171 8.51971 21.4253 8.35546 21.4253 8.35546ZM50.0931 67.7227L46.3396 65.7608L45.4758 66.062L47.6993 68.0512C47.6993 68.0512 48.1738 68.4557 47.6749 68.6717C47.1761 68.8846 45.9047 69.4078 45.9047 69.4078L44.8553 68.9394L44.2318 69.1645L45.1047 70.0952L45.0196 71.4548L45.6705 71.2298L46.1571 70.1256C46.1571 70.1256 47.4772 69.7332 48.0034 69.5933C48.5266 69.4504 48.408 70.0648 48.408 70.0648L47.9122 73L48.7791 72.6989L50.4793 68.8177C50.4793 68.8177 51.2306 68.5227 51.769 68.252C52.3074 67.9812 52.5203 67.4824 52.5203 67.4824C52.5203 67.4824 52.0428 67.2208 51.4527 67.3516C50.8596 67.4763 50.0931 67.7227 50.0931 67.7227Z" fill="white"/>
</svg>
