<svg width="117" height="101" viewBox="0 0 117 101" fill="none" xmlns="http://www.w3.org/2000/svg">
<path d="M0.660511 87.5078V86.0909H9.10334V87.5078H5.69957V97H4.05895V87.5078H0.660511ZM13.101 97.1651C12.334 97.1651 11.6646 96.9893 11.0929 96.6378C10.5211 96.2862 10.0772 95.7944 9.76119 95.1623C9.44513 94.5302 9.28711 93.7915 9.28711 92.9464C9.28711 92.0977 9.44513 91.3555 9.76119 90.7198C10.0772 90.0842 10.5211 89.5906 11.0929 89.239C11.6646 88.8874 12.334 88.7116 13.101 88.7116C13.8681 88.7116 14.5375 88.8874 15.1092 89.239C15.6809 89.5906 16.1248 90.0842 16.4409 90.7198C16.7569 91.3555 16.915 92.0977 16.915 92.9464C16.915 93.7915 16.7569 94.5302 16.4409 95.1623C16.1248 95.7944 15.6809 96.2862 15.1092 96.6378C14.5375 96.9893 13.8681 97.1651 13.101 97.1651ZM13.1064 95.8281C13.6035 95.8281 14.0154 95.6967 14.3422 95.4339C14.6689 95.1712 14.9103 94.8214 15.0666 94.3846C15.2264 93.9478 15.3063 93.4666 15.3063 92.9411C15.3063 92.419 15.2264 91.9396 15.0666 91.5028C14.9103 91.0625 14.6689 90.7092 14.3422 90.4428C14.0154 90.1765 13.6035 90.0433 13.1064 90.0433C12.6056 90.0433 12.1902 90.1765 11.8599 90.4428C11.5332 90.7092 11.29 91.0625 11.1301 91.5028C10.9739 91.9396 10.8958 92.419 10.8958 92.9411C10.8958 93.4666 10.9739 93.9478 11.1301 94.3846C11.29 94.8214 11.5332 95.1712 11.8599 95.4339C12.1902 95.6967 12.6056 95.8281 13.1064 95.8281ZM23.8756 93.6069V88.8182H25.4736V97H23.9076V95.5831H23.8224C23.6341 96.0199 23.3323 96.3839 22.9168 96.6751C22.5049 96.9627 21.9917 97.1065 21.3774 97.1065C20.8518 97.1065 20.3866 96.9911 19.9818 96.7603C19.5805 96.5259 19.2645 96.1797 19.0336 95.7216C18.8064 95.2635 18.6927 94.6971 18.6927 94.0224V88.8182H20.2854V93.8306C20.2854 94.3881 20.4399 94.832 20.7488 95.1623C21.0578 95.4925 21.4591 95.6577 21.9527 95.6577C22.251 95.6577 22.5475 95.5831 22.8422 95.4339C23.1405 95.2848 23.3873 95.0593 23.5827 94.7575C23.7815 94.4556 23.8792 94.0721 23.8756 93.6069ZM27.6136 97V88.8182H29.1531V90.1179H29.2383C29.3874 89.6776 29.6502 89.3313 30.0266 89.0792C30.4066 88.8235 30.8363 88.6957 31.3157 88.6957C31.4151 88.6957 31.5323 88.6992 31.6673 88.7063C31.8058 88.7134 31.9141 88.7223 31.9922 88.733V90.2564C31.9283 90.2386 31.8146 90.2191 31.6513 90.1978C31.4879 90.1729 31.3246 90.1605 31.1612 90.1605C30.7848 90.1605 30.4492 90.2404 30.1545 90.4002C29.8633 90.5565 29.6325 90.7749 29.462 91.0554C29.2915 91.3324 29.2063 91.6484 29.2063 92.0036V97H27.6136ZM46.5288 89.6385H44.8668C44.8029 89.2834 44.6839 88.9709 44.5099 88.701C44.3359 88.4311 44.1229 88.2021 43.8707 88.0138C43.6186 87.8256 43.3363 87.6836 43.0238 87.5877C42.7148 87.4918 42.3864 87.4439 42.0384 87.4439C41.4098 87.4439 40.8469 87.6019 40.3498 87.918C39.8562 88.234 39.4656 88.6974 39.1779 89.3082C38.8938 89.919 38.7518 90.6648 38.7518 91.5455C38.7518 92.4332 38.8938 93.1825 39.1779 93.7933C39.4656 94.4041 39.858 94.8658 40.3551 95.1783C40.8523 95.4908 41.4116 95.647 42.033 95.647C42.3775 95.647 42.7042 95.6009 43.0131 95.5085C43.3256 95.4126 43.608 95.2724 43.8601 95.0877C44.1122 94.9031 44.3253 94.6776 44.4993 94.4112C44.6768 94.1413 44.7994 93.8324 44.8668 93.4844L46.5288 93.4897C46.44 94.0259 46.2678 94.5195 46.0121 94.9705C45.7599 95.418 45.435 95.805 45.0373 96.1317C44.6431 96.4549 44.1921 96.7053 43.6843 96.8828C43.1765 97.0604 42.6225 97.1491 42.0224 97.1491C41.0778 97.1491 40.2362 96.9254 39.4975 96.478C38.7589 96.027 38.1765 95.3825 37.7504 94.5444C37.3278 93.7063 37.1165 92.7067 37.1165 91.5455C37.1165 90.3807 37.3295 89.381 37.7557 88.5465C38.1818 87.7085 38.7642 87.0657 39.5028 86.6183C40.2415 86.1673 41.0813 85.9418 42.0224 85.9418C42.6012 85.9418 43.141 86.0252 43.6417 86.1921C44.146 86.3555 44.5987 86.5969 45 86.9165C45.4013 87.2326 45.7333 87.6197 45.9961 88.0778C46.2589 88.5323 46.4364 89.0526 46.5288 89.6385ZM51.8169 97.1651C51.0498 97.1651 50.3804 96.9893 49.8087 96.6378C49.2369 96.2862 48.7931 95.7944 48.477 95.1623C48.161 94.5302 48.0029 93.7915 48.0029 92.9464C48.0029 92.0977 48.161 91.3555 48.477 90.7198C48.7931 90.0842 49.2369 89.5906 49.8087 89.239C50.3804 88.8874 51.0498 88.7116 51.8169 88.7116C52.5839 88.7116 53.2533 88.8874 53.825 89.239C54.3968 89.5906 54.8406 90.0842 55.1567 90.7198C55.4727 91.3555 55.6308 92.0977 55.6308 92.9464C55.6308 93.7915 55.4727 94.5302 55.1567 95.1623C54.8406 95.7944 54.3968 96.2862 53.825 96.6378C53.2533 96.9893 52.5839 97.1651 51.8169 97.1651ZM51.8222 95.8281C52.3193 95.8281 52.7313 95.6967 53.058 95.4339C53.3847 95.1712 53.6262 94.8214 53.7824 94.3846C53.9422 93.9478 54.0221 93.4666 54.0221 92.9411C54.0221 92.419 53.9422 91.9396 53.7824 91.5028C53.6262 91.0625 53.3847 90.7092 53.058 90.4428C52.7313 90.1765 52.3193 90.0433 51.8222 90.0433C51.3215 90.0433 50.906 90.1765 50.5757 90.4428C50.249 90.7092 50.0058 91.0625 49.846 91.5028C49.6897 91.9396 49.6116 92.419 49.6116 92.9411C49.6116 93.4666 49.6897 93.9478 49.846 94.3846C50.0058 94.8214 50.249 95.1712 50.5757 95.4339C50.906 95.6967 51.3215 95.8281 51.8222 95.8281ZM57.4086 97V88.8182H58.9373V90.1499H59.0385C59.209 89.6989 59.4877 89.3473 59.8748 89.0952C60.2619 88.8395 60.7253 88.7116 61.2651 88.7116C61.812 88.7116 62.2701 88.8395 62.6394 89.0952C63.0123 89.3509 63.2875 89.7024 63.465 90.1499H63.5502C63.7456 89.7131 64.0563 89.3651 64.4824 89.1058C64.9086 88.843 65.4164 88.7116 66.0059 88.7116C66.748 88.7116 67.3535 88.9442 67.8223 89.4094C68.2946 89.8746 68.5307 90.576 68.5307 91.5135V97H66.938V91.6626C66.938 91.1087 66.7871 90.7074 66.4853 90.4588C66.1834 90.2102 65.823 90.0859 65.4039 90.0859C64.8855 90.0859 64.4824 90.2457 64.1948 90.5653C63.9071 90.8814 63.7633 91.288 63.7633 91.7852V97H62.176V91.5614C62.176 91.1175 62.0375 90.7607 61.7605 90.4908C61.4835 90.2209 61.123 90.0859 60.6792 90.0859C60.3773 90.0859 60.0985 90.1658 59.8429 90.3256C59.5907 90.4819 59.3865 90.7003 59.2303 90.9808C59.0776 91.2614 59.0012 91.5863 59.0012 91.9556V97H57.4086ZM70.6654 100.068V88.8182H72.2208V90.1445H72.354C72.4463 89.9741 72.5795 89.777 72.7535 89.5533C72.9275 89.3295 73.1689 89.1342 73.4779 88.9673C73.7868 88.7969 74.1952 88.7116 74.703 88.7116C75.3635 88.7116 75.953 88.8786 76.4715 89.2124C76.99 89.5462 77.3966 90.0273 77.6913 90.6559C77.9896 91.2844 78.1388 92.0408 78.1388 92.9251C78.1388 93.8093 77.9914 94.5675 77.6966 95.1996C77.4019 95.8281 76.9971 96.3129 76.4822 96.6538C75.9672 96.9911 75.3795 97.1598 74.719 97.1598C74.2219 97.1598 73.8153 97.0763 73.4992 96.9094C73.1867 96.7425 72.9417 96.5472 72.7641 96.3235C72.5866 96.0998 72.4498 95.9009 72.354 95.7269H72.2581V100.068H70.6654ZM72.2261 92.9091C72.2261 93.4844 72.3096 93.9886 72.4765 94.4219C72.6434 94.8551 72.8849 95.1942 73.2009 95.4393C73.517 95.6808 73.904 95.8015 74.3621 95.8015C74.838 95.8015 75.2357 95.6754 75.5553 95.4233C75.8749 95.1676 76.1164 94.8214 76.2797 94.3846C76.4466 93.9478 76.5301 93.456 76.5301 92.9091C76.5301 92.3693 76.4484 91.8846 76.2851 91.4549C76.1253 91.0252 75.8838 90.6861 75.5606 90.4375C75.241 90.1889 74.8415 90.0646 74.3621 90.0646C73.9005 90.0646 73.5099 90.1836 73.1903 90.4215C72.8742 90.6594 72.6345 90.9915 72.4711 91.4176C72.3078 91.8437 72.2261 92.3409 72.2261 92.9091ZM82.3042 97.1811C81.7858 97.1811 81.317 97.0852 80.898 96.8935C80.479 96.6982 80.1469 96.4158 79.9019 96.0465C79.6604 95.6772 79.5397 95.2244 79.5397 94.6882C79.5397 94.2266 79.6285 93.8466 79.806 93.5483C79.9836 93.25 80.2233 93.0138 80.5251 92.8398C80.827 92.6658 81.1643 92.5344 81.5372 92.4457C81.9101 92.3569 82.29 92.2894 82.6771 92.2433C83.1672 92.1864 83.5649 92.1403 83.8703 92.1048C84.1757 92.0657 84.3976 92.0036 84.5361 91.9183C84.6746 91.8331 84.7439 91.6946 84.7439 91.5028V91.4656C84.7439 91.0004 84.6125 90.6399 84.3497 90.3842C84.0905 90.1286 83.7034 90.0007 83.1885 90.0007C82.6523 90.0007 82.2297 90.1197 81.9207 90.3576C81.6153 90.592 81.404 90.853 81.2868 91.1406L79.79 90.7997C79.9676 90.3026 80.2268 89.9013 80.5677 89.5959C80.9122 89.2869 81.3081 89.0632 81.7556 88.9247C82.203 88.7827 82.6736 88.7116 83.1672 88.7116C83.4939 88.7116 83.8401 88.7507 84.2059 88.8288C84.5752 88.9034 84.9197 89.0419 85.2393 89.2443C85.5624 89.4467 85.827 89.7362 86.0329 90.1126C86.2389 90.4854 86.3419 90.9702 86.3419 91.5668V97H84.7865V95.8814H84.7226C84.6196 96.0874 84.4651 96.2898 84.2591 96.4886C84.0532 96.6875 83.7886 96.8526 83.4655 96.984C83.1423 97.1154 82.7552 97.1811 82.3042 97.1811ZM82.6505 95.9027C83.0908 95.9027 83.4672 95.8157 83.7797 95.6417C84.0958 95.4677 84.3355 95.2404 84.4988 94.9599C84.6657 94.6758 84.7492 94.3722 84.7492 94.049V92.9943C84.6924 93.0511 84.5823 93.1044 84.4189 93.1541C84.2591 93.2003 84.0763 93.2411 83.8703 93.2766C83.6643 93.3086 83.4637 93.3388 83.2684 93.3672C83.0731 93.392 82.9097 93.4134 82.7783 93.4311C82.4694 93.4702 82.1871 93.5359 81.9314 93.6282C81.6792 93.7205 81.4768 93.8537 81.3241 94.0277C81.175 94.1982 81.1004 94.4254 81.1004 94.7095C81.1004 95.1037 81.246 95.402 81.5372 95.6044C81.8284 95.8033 82.1995 95.9027 82.6505 95.9027ZM90.0559 92.142V97H88.4632V88.8182H89.992V90.1499H90.0932C90.2814 89.7166 90.5762 89.3686 90.9775 89.1058C91.3823 88.843 91.8919 88.7116 92.5062 88.7116C93.0637 88.7116 93.552 88.8288 93.9711 89.0632C94.3901 89.294 94.715 89.6385 94.9458 90.0966C95.1767 90.5547 95.2921 91.1211 95.2921 91.7958V97H93.6994V91.9876C93.6994 91.3945 93.5449 90.9311 93.236 90.5973C92.927 90.2599 92.5027 90.0913 91.9629 90.0913C91.5936 90.0913 91.2651 90.1712 90.9775 90.331C90.6934 90.4908 90.4679 90.7251 90.301 91.0341C90.1376 91.3395 90.0559 91.7088 90.0559 92.142ZM97.4281 97V88.8182H99.0208V97H97.4281ZM98.2324 87.5558C97.9554 87.5558 97.7175 87.4634 97.5186 87.2788C97.3233 87.0906 97.2257 86.8668 97.2257 86.6076C97.2257 86.3448 97.3233 86.1211 97.5186 85.9364C97.7175 85.7482 97.9554 85.6541 98.2324 85.6541C98.5094 85.6541 98.7456 85.7482 98.9409 85.9364C99.1397 86.1211 99.2392 86.3448 99.2392 86.6076C99.2392 86.8668 99.1397 87.0906 98.9409 87.2788C98.7456 87.4634 98.5094 87.5558 98.2324 87.5558ZM104.69 97.1651C103.884 97.1651 103.189 96.9929 102.607 96.6484C102.028 96.3004 101.581 95.8121 101.265 95.1836C100.952 94.5515 100.796 93.8111 100.796 92.9624C100.796 92.1243 100.952 91.3857 101.265 90.7464C101.581 90.1072 102.021 89.6083 102.586 89.2496C103.154 88.891 103.818 88.7116 104.578 88.7116C105.04 88.7116 105.487 88.788 105.92 88.9407C106.353 89.0934 106.742 89.3331 107.087 89.6598C107.431 89.9865 107.703 90.4109 107.902 90.9329C108.101 91.4513 108.2 92.0817 108.2 92.8239V93.3885H101.696V92.1953H106.639C106.639 91.7763 106.554 91.4052 106.384 91.082C106.213 90.7553 105.973 90.4979 105.665 90.3097C105.359 90.1214 105 90.0273 104.589 90.0273C104.141 90.0273 103.75 90.1374 103.417 90.3576C103.086 90.5742 102.831 90.8583 102.65 91.2099C102.472 91.5579 102.383 91.9361 102.383 92.3445V93.2766C102.383 93.8235 102.479 94.2887 102.671 94.6722C102.866 95.0558 103.138 95.3487 103.486 95.5511C103.834 95.75 104.241 95.8494 104.706 95.8494C105.008 95.8494 105.283 95.8068 105.531 95.7216C105.78 95.6328 105.995 95.5014 106.176 95.3274C106.357 95.1534 106.495 94.9386 106.591 94.6829L108.099 94.9545C107.978 95.3984 107.761 95.7873 107.449 96.1211C107.14 96.4513 106.751 96.7088 106.282 96.8935C105.817 97.0746 105.286 97.1651 104.69 97.1651ZM116.098 90.8157L114.655 91.0714C114.594 90.8867 114.498 90.7109 114.367 90.544C114.239 90.3771 114.065 90.2404 113.845 90.1339C113.625 90.0273 113.35 89.9741 113.019 89.9741C112.568 89.9741 112.192 90.0753 111.89 90.2777C111.588 90.4766 111.437 90.734 111.437 91.0501C111.437 91.3235 111.539 91.5437 111.741 91.7106C111.943 91.8775 112.27 92.0142 112.721 92.1207L114.021 92.419C114.774 92.593 115.335 92.8612 115.704 93.2234C116.073 93.5856 116.258 94.0561 116.258 94.6349C116.258 95.125 116.116 95.5618 115.832 95.9453C115.551 96.3253 115.159 96.6236 114.655 96.8402C114.154 97.0568 113.573 97.1651 112.913 97.1651C111.997 97.1651 111.249 96.9698 110.67 96.5792C110.091 96.185 109.736 95.6257 109.605 94.9013L111.144 94.6669C111.24 95.0682 111.437 95.3718 111.736 95.5778C112.034 95.7802 112.423 95.8814 112.902 95.8814C113.424 95.8814 113.841 95.7731 114.154 95.5565C114.466 95.3363 114.623 95.0682 114.623 94.7521C114.623 94.4964 114.527 94.2816 114.335 94.1076C114.147 93.9336 113.857 93.8022 113.467 93.7134L112.082 93.4098C111.318 93.2358 110.754 92.9588 110.388 92.5788C110.026 92.1989 109.845 91.7177 109.845 91.1353C109.845 90.6523 109.98 90.2298 110.249 89.8675C110.519 89.5053 110.892 89.223 111.368 89.0206C111.844 88.8146 112.389 88.7116 113.003 88.7116C113.888 88.7116 114.584 88.9034 115.091 89.2869C115.599 89.6669 115.935 90.1765 116.098 90.8157Z" fill="#F9C1BB"/>
<path d="M29.9646 19.0591C30.5212 18.3108 31.2542 17.298 31.8413 16.574C33.5993 14.5787 33.8275 14.3171 35.4274 12.8419C35.9019 12.4526 36.4646 11.9842 37.0151 11.5431C32.9545 14.9802 32.4374 18.7853 36.1635 21.1365C36.1574 21.1365 36.1574 21.1365 36.1574 21.1426C41.3678 24.2816 52.7862 23.6033 61.7956 19.5823C70.5221 15.6889 73.7433 10.1196 69.4363 6.81029C65.6555 6.10158 61.1477 6.01946 56.3784 6.65821L55.8826 5.84L56.2932 4.48342C59.0976 4.23096 61.7621 4.29179 64.0616 4.68417C64.6183 4.77846 65.3513 4.93967 65.8988 5.05525C66.9573 5.31379 67.5322 5.46892 68.2226 5.69096C68.9283 5.90083 69.5306 6.11071 70.5799 6.50004C71.608 6.90458 72.0521 7.08708 72.8764 7.49771C73.7995 7.91887 74.6964 8.39525 75.5622 8.92425C82.4242 13.2404 78.1567 21.1152 66.0478 26.5112C53.9724 31.8888 38.5846 32.7344 31.6892 28.47C31.6861 28.4639 31.677 28.4578 31.6588 28.4518H31.6709C27.9053 26.0671 27.5099 22.6057 29.9646 19.0591ZM61.3819 49.2324L61.2846 44.384L57.8384 40.5515C46.4534 43.1308 35.2631 42.5773 29.0399 38.912C29.0186 38.8877 28.9669 38.8634 28.9456 38.839C25.4233 36.6703 24.5534 33.872 24.8181 30.8303C23.9938 35.2803 23.9268 36.8863 24.0455 40.6945C24.1915 43.0791 25.5693 45.2783 28.3403 47.012L28.3616 47.0363C34.9955 51.1608 48.8168 52.0551 61.3819 49.2324ZM75.7538 54.7835C59.6847 61.2288 39.5732 61.609 30.8375 55.6443C31.7809 57.9497 33.0646 60.1008 34.6457 62.0257C42.6635 67.5007 61.1234 67.1509 75.8663 61.2348C84.4956 57.7765 89.9401 53.1744 91.3697 48.8613L91.7712 47.5625C92.7233 44.2715 92.9027 41.5309 93.0548 39.0915C92.8814 44.387 86.643 50.4095 75.7538 54.7835ZM40.2819 67.1965C40.7868 67.6771 42.3745 69.6268 50.4198 71.7803C52.5945 72.2609 58.0695 73.803 68.1831 71.5613L68.2439 70.6397L67.444 69.3865C58.0604 71.6069 47.6366 70.8648 40.2819 67.1965ZM63.502 28.8441L72.046 35.3198C72.046 35.3198 73.8741 36.6369 72.1494 37.5615C70.4309 38.4771 66.0174 40.7188 66.0174 40.7188L61.6587 39.0915L59.4718 40.0648L63.3286 43.4137L63.359 48.6241L65.625 47.6173L67.1276 43.216C67.1276 43.216 71.7418 41.4397 73.5729 40.7705C75.4131 40.1165 75.1668 42.3552 75.1668 42.3552L74.2603 53.0345L77.2716 51.6962L82.2295 37.2878C82.2295 37.2878 84.8575 36.0103 86.7068 34.8879C88.5531 33.7655 92.8716 30.3376 89.1858 31.904C85.5 33.4705 87.3851 31.1284 85.3107 31.752C83.2363 32.3694 80.5323 33.4705 80.5323 33.4705L66.5041 27.5119L63.502 28.8441ZM45.4253 8.35546L51.2258 12.9757L52.8105 12.7385L49.6533 8.59271C49.6533 8.59271 48.9658 7.73496 49.8905 7.53117C50.8213 7.32433 53.1755 6.84375 53.1755 6.84375L54.9458 8.25813L56.1381 8.08171L54.7876 5.93429L55.4993 3.55267L54.3465 3.71996L52.9808 5.53279C52.9808 5.53279 50.584 5.75787 49.6411 5.83696C48.6921 5.90996 49.0997 4.891 49.0997 4.891L50.9186 0L49.3248 0.234208L45.1273 6.34492C45.1273 6.34492 43.7281 6.60042 42.7152 6.88938C41.6993 7.17529 41.164 7.96004 41.164 7.96004C41.164 7.96004 41.9092 8.56229 42.9586 8.541C44.0171 8.51971 45.4253 8.35546 45.4253 8.35546ZM74.0931 67.7227L70.3396 65.7608L69.4758 66.062L71.6993 68.0512C71.6993 68.0512 72.1738 68.4557 71.6749 68.6717C71.1761 68.8846 69.9047 69.4078 69.9047 69.4078L68.8553 68.9394L68.2318 69.1645L69.1047 70.0952L69.0196 71.4548L69.6705 71.2298L70.1571 70.1256C70.1571 70.1256 71.4772 69.7332 72.0034 69.5933C72.5266 69.4504 72.408 70.0648 72.408 70.0648L71.9122 73L72.7791 72.6989L74.4793 68.8177C74.4793 68.8177 75.2306 68.5227 75.769 68.252C76.3074 67.9813 76.5203 67.4824 76.5203 67.4824C76.5203 67.4824 76.0428 67.2208 75.4527 67.3516C74.8596 67.4763 74.0931 67.7227 74.0931 67.7227Z" fill="#F9C1BB"/>
</svg>
