<svg width="32" height="32" viewBox="0 0 32 32" fill="none" xmlns="http://www.w3.org/2000/svg">
<path fill-rule="evenodd" clip-rule="evenodd" d="M16 0C7.16344 0 0 7.16344 0 16C0 24.8366 7.16344 32 16 32C24.8366 32 32 24.8366 32 16C32 7.16344 24.8366 0 16 0ZM15.5544 13.5602L15.5208 13.0066C15.4201 11.5716 16.3042 10.261 17.7032 9.75254C18.218 9.57176 19.0909 9.54916 19.6617 9.70734C19.8856 9.77514 20.3108 10.0011 20.613 10.2045L21.1614 10.5773L21.7658 10.3853C22.1015 10.2836 22.5492 10.1141 22.7506 10.0011C22.9409 9.89942 23.1088 9.84293 23.1088 9.87682C23.1088 10.0689 22.6947 10.7242 22.3477 11.0858C21.8777 11.5942 22.012 11.6394 22.9633 11.3005C23.534 11.1084 23.5452 11.1084 23.4333 11.3231C23.3662 11.436 23.0192 11.8315 22.6499 12.1931C22.0232 12.8145 21.9896 12.8823 21.9896 13.402C21.9896 14.2042 21.6091 15.8764 21.2286 16.7916C20.5235 18.509 19.0126 20.2829 17.5017 21.1755C15.3753 22.4297 12.5438 22.746 10.16 22.0116C9.36538 21.7631 8 21.1303 8 21.0173C8 20.9834 8.41409 20.9382 8.91772 20.927C9.96973 20.9044 11.0218 20.6106 11.9171 20.0908L12.5214 19.7293L11.8276 19.492C10.8427 19.1531 9.95854 18.3734 9.73471 17.639C9.66756 17.4018 9.68994 17.3905 10.3167 17.3905L10.9658 17.3792L10.4174 17.1193C9.76828 16.7916 9.17513 16.238 8.88414 15.6731C8.6715 15.2663 8.4029 14.2381 8.48124 14.159C8.50362 14.1251 8.73865 14.1929 9.00725 14.2833C9.77948 14.5658 9.8802 14.498 9.43253 14.0234C8.59316 13.1647 8.33575 11.888 8.73865 10.679L8.92891 10.1367L9.66756 10.8711C11.1784 12.3512 12.9579 13.2325 14.9948 13.4924L15.5544 13.5602Z" fill="currentColor"/>
</svg>
