<svg width="72" height="58" viewBox="0 0 72 58" fill="none" xmlns="http://www.w3.org/2000/svg">
<path d="M21.6 29C28.5637 29 34.2 23.3246 34.2 16.3125C34.2 9.30039 28.5637 3.625 21.6 3.625C14.6362 3.625 9 9.30039 9 16.3125C9 23.3246 14.6362 29 21.6 29ZM30.24 32.625H29.3062C26.9662 33.7578 24.3675 34.4375 21.6 34.4375C18.8325 34.4375 16.245 33.7578 13.8937 32.625H12.96C5.805 32.625 0 38.4703 0 45.675V48.9375C0 51.9395 2.41875 54.375 5.4 54.375H37.8C40.7812 54.375 43.2 51.9395 43.2 48.9375V45.675C43.2 38.4703 37.395 32.625 30.24 32.625ZM54 29C59.9625 29 64.8 24.1289 64.8 18.125C64.8 12.1211 59.9625 7.25 54 7.25C48.0375 7.25 43.2 12.1211 43.2 18.125C43.2 24.1289 48.0375 29 54 29ZM59.4 32.625H58.9725C57.4087 33.1688 55.755 33.5312 54 33.5312C52.245 33.5312 50.5912 33.1688 49.0275 32.625H48.6C46.305 32.625 44.19 33.2934 42.3337 34.3695C45.0787 37.3488 46.8 41.3023 46.8 45.675V50.025C46.8 50.2742 46.7437 50.5121 46.7325 50.75H66.6C69.5812 50.75 72 48.3145 72 45.3125C72 38.3004 66.3637 32.625 59.4 32.625Z" fill="white"/>
</svg>
