<svg xmlns="http://www.w3.org/2000/svg" width="256" height="256" viewBox="0 0 256 256" version="1.1"><path d="M 124.035 3.934 C 121.371 8.911, 123.553 15, 128 15 C 131.264 15, 133 12.743, 133 8.500 C 133 4.257, 131.264 2, 128 2 C 126.127 2, 124.697 2.698, 124.035 3.934 M 83.714 6.619 C 82.243 8.091, 83.091 13.017, 85.891 19.258 C 88.907 25.979, 90.905 27.656, 93.955 26.024 C 97.139 24.320, 97.100 21.957, 93.755 14.138 C 90.797 7.223, 90.200 6.472, 87.458 6.203 C 85.791 6.039, 84.107 6.227, 83.714 6.619 M 163.022 12.291 C 158.563 22.125, 158.382 23.549, 161.345 25.490 C 163.211 26.713, 164.358 26.879, 165.758 26.129 C 168.254 24.794, 173.238 12.950, 172.825 9.338 C 172.551 6.942, 171.988 6.451, 169.217 6.184 C 166.064 5.881, 165.820 6.121, 163.022 12.291 M 51.655 32.829 C 49.420 35.298, 49.557 36.320, 52.608 39.946 C 56.519 44.594, 58.658 45.454, 61.567 43.548 C 64.966 41.321, 64.609 39.001, 60.208 34.703 C 55.966 30.561, 54.081 30.148, 51.655 32.829 M 195.703 34.792 C 191.561 39.034, 191.148 40.919, 193.829 43.345 C 196.368 45.643, 197.421 45.447, 201.417 41.938 C 205.834 38.061, 206.711 35.443, 204.435 32.928 C 201.882 30.107, 199.855 30.540, 195.703 34.792 M 103.909 37.554 C 101.384 38.331, 97.265 40.775, 94.756 42.984 C 90.554 46.683, 89.736 47, 84.412 47 C 73.917 47, 64.834 53.934, 63.374 63.061 C 62.966 65.616, 62.064 67.105, 60.493 67.821 C 56.140 69.804, 52.792 75.542, 52.063 82.266 C 51.691 85.695, 50.515 90.075, 49.449 92 C 47.886 94.821, 47.510 97.487, 47.505 105.749 C 47.501 113.487, 47.182 115.998, 46.200 115.999 C 42.785 116.002, 39.032 119.162, 37.880 123.006 L 36.683 127 31.477 127 C 25.635 127, 21.634 129.339, 20.629 133.341 C 20.302 134.645, 15.776 157.560, 10.572 184.263 C 0.403 236.440, 0.336 237.156, 5.248 241.758 C 6.487 242.918, 8.767 244.347, 10.315 244.933 C 12.157 245.631, 28.695 246, 58.171 246 L 103.211 246 106.137 248.462 C 110.154 251.842, 114.915 253.123, 125.687 253.722 C 133.180 254.139, 136.144 253.847, 141.759 252.142 C 145.546 250.992, 149.469 249.139, 150.477 248.025 C 152.266 246.048, 153.392 246, 197.590 246 C 227.236 246, 243.842 245.632, 245.685 244.933 C 247.233 244.347, 249.513 242.918, 250.752 241.758 C 255.664 237.156, 255.597 236.440, 245.428 184.263 C 240.224 157.560, 235.698 134.645, 235.371 133.341 C 234.366 129.339, 230.365 127, 224.523 127 L 219.317 127 218.087 122.895 C 217.082 119.543, 216.138 118.489, 212.939 117.145 C 209.099 115.533, 209.020 115.396, 209.010 110.315 C 209.005 107.463, 208.476 103.863, 207.835 102.315 C 207.195 100.767, 206.618 96.297, 206.555 92.381 C 206.413 83.649, 203.409 78.269, 197.050 75.361 C 194.359 74.130, 192.767 72.654, 192.348 71 C 188.963 57.650, 175.500 45.850, 161.939 44.349 C 157.873 43.899, 155.743 43.036, 153.500 40.935 C 147.852 35.641, 140.328 34.519, 133.572 37.964 C 129.744 39.915, 129.684 39.915, 123.892 37.964 C 117.138 35.688, 110.412 35.550, 103.909 37.554 M 106.625 46.416 C 101.914 48.160, 96.570 53.159, 94.902 57.381 C 93.238 61.595, 91.058 64, 88.902 64 C 86.564 64, 84.084 60.396, 84.727 57.935 C 85.136 56.370, 84.710 56, 82.499 56 C 80.646 56, 78.486 57.278, 75.801 59.964 C 71.492 64.273, 71.506 65.513, 75.871 66.472 C 79.281 67.221, 85 72.541, 85 74.964 C 85 76.836, 82.015 80, 80.248 80 C 79.646 80, 77.881 78.952, 76.327 77.670 C 72.207 74.275, 70.298 73.848, 66.438 75.462 C 60.601 77.900, 59.457 85.841, 64.380 89.738 C 67.665 92.338, 68.162 94.578, 66.037 97.201 C 64.338 99.298, 63.887 99.392, 60.903 98.267 C 59.104 97.589, 57.414 97.252, 57.148 97.519 C 56.030 98.637, 55.879 108.837, 56.923 112.716 C 59.689 122.985, 70.252 131, 81.021 131 C 86.135 131, 86.757 130.786, 86.336 129.175 C 86.073 128.172, 84.316 126.793, 82.431 126.111 C 78.083 124.539, 73.969 119.190, 73.306 114.246 C 72.697 109.708, 74.468 107.690, 78.632 108.178 C 80.841 108.436, 81.556 109.191, 82.255 112 C 83.034 115.130, 85.307 118, 87.006 118 C 87.349 118, 88.381 116.425, 89.299 114.500 C 90.655 111.656, 91.526 111, 93.949 111 C 98.351 111, 99.707 114.106, 97.470 119.066 C 95.233 124.027, 95.842 132.963, 98.678 136.791 C 105.375 145.833, 117.192 147.160, 125.563 139.810 C 129.094 136.710, 129.110 136.707, 134.512 138.003 C 138.092 138.862, 142.747 139.084, 148.270 138.659 C 157.251 137.969, 159 138.608, 159 142.578 C 159 145.289, 157.237 146.803, 153.119 147.626 C 150.112 148.228, 150.023 148.368, 151.568 150.076 C 152.470 151.072, 157.098 153.512, 161.854 155.498 C 166.949 157.626, 171.988 160.557, 174.123 162.633 C 176.886 165.322, 178.428 166.079, 180.623 165.829 C 184.137 165.427, 184.774 162.789, 182.609 157.607 C 181.222 154.287, 180.903 154.086, 178.488 155.005 C 174.143 156.656, 170.190 156.223, 168.980 153.962 C 167.106 150.460, 168.705 148.165, 174.147 146.549 C 179.602 144.929, 184.702 142.098, 187.236 139.282 C 188.760 137.589, 188.481 137.499, 181.670 137.483 C 175.760 137.468, 173.655 136.992, 169.690 134.770 C 166.202 132.815, 164.067 132.237, 161.922 132.666 C 155.582 133.934, 146 127.855, 146 122.565 C 146 117.670, 151.277 116.434, 154.813 120.500 C 157.597 123.702, 162.280 123.867, 164.402 120.837 C 165.444 119.349, 165.740 117.385, 165.352 114.548 C 164.681 109.655, 166.537 107.416, 170.450 108.398 C 173.929 109.271, 175.792 115.580, 174.263 121.309 C 173.656 123.585, 173.367 125.784, 173.621 126.197 C 174.650 127.860, 181.947 129.022, 185.854 128.144 C 194.319 126.242, 199.932 119.131, 199.978 110.250 C 200.002 105.634, 199.847 105.476, 196.867 107.071 C 195.340 107.888, 194.290 107.765, 192.433 106.548 C 189.056 104.336, 189.392 101.601, 193.500 97.864 C 196.191 95.415, 197 93.892, 197 91.274 C 197 83.877, 192.110 80.943, 184.489 83.767 C 180.119 85.387, 179.930 85.375, 177.891 83.335 C 175.211 80.656, 176.078 77.528, 180.071 75.463 C 183.535 73.672, 183.608 73.113, 181.039 68.076 C 177.369 60.882, 170.385 55.601, 161.971 53.657 C 160.003 53.202, 159.228 53.563, 158.471 55.287 C 157.381 57.771, 153.587 58.732, 151.550 57.041 C 150.812 56.429, 149.928 54.432, 149.585 52.602 C 148.530 46.978, 143.132 43.874, 138.060 45.975 C 135.250 47.139, 134.028 48.969, 132.366 54.500 C 131.644 56.900, 130.831 57.562, 128.298 57.808 C 124.461 58.182, 122.715 55.675, 123.629 51.103 C 124.168 48.411, 123.896 47.906, 121.371 46.908 C 116.733 45.075, 110.783 44.877, 106.625 46.416 M 26.571 64.571 C 24.887 66.256, 24.564 68.766, 25.783 70.684 C 26.198 71.335, 29.903 73.224, 34.018 74.881 C 40.472 77.480, 41.775 77.714, 43.500 76.582 C 46.151 74.844, 46.517 71.753, 44.294 69.868 C 42.488 68.335, 30.611 63, 29.006 63 C 28.531 63, 27.436 63.707, 26.571 64.571 M 219.401 65.822 C 216.046 67.295, 212.537 69.136, 211.603 69.912 C 209.463 71.692, 209.890 74.871, 212.500 76.582 C 214.225 77.714, 215.528 77.480, 221.982 74.881 C 229.634 71.799, 230.958 70.761, 230.985 67.821 C 231.003 65.859, 228.381 62.968, 226.679 63.072 C 226.030 63.112, 222.755 64.350, 219.401 65.822 M 106.491 71.865 C 99.833 74.890, 94.035 83.195, 94.006 89.750 C 93.999 91.239, 97.577 95, 99 95 C 100.867 95, 104 91.011, 104 88.635 C 104 85.030, 107.636 81.183, 112.304 79.849 C 117.499 78.364, 119 77.266, 119 74.949 C 119 70.134, 113.362 68.744, 106.491 71.865 M 151.362 87.744 C 150.737 88.160, 149.478 90.294, 148.565 92.486 C 145.345 100.219, 139.998 104.002, 132.300 103.996 C 129.011 103.994, 126.424 103.285, 124.080 101.746 C 116.990 97.089, 116.668 96.976, 114.509 98.407 C 113.404 99.140, 112.346 100.517, 112.158 101.468 C 111.678 103.892, 116.667 108.884, 121.945 111.263 L 126.390 113.266 124.075 115.140 C 122.802 116.171, 119.998 117.297, 117.844 117.641 C 112.491 118.497, 110.418 122.275, 113.571 125.429 C 118.053 129.911, 131.200 124.200, 135.546 115.884 C 136.346 114.353, 138.072 113.034, 139.707 112.705 C 149.437 110.747, 161.070 95.121, 157.290 89.087 C 156.172 87.302, 153.082 86.602, 151.362 87.744 M 46.522 127.250 C 45.622 131.166, 32 213.845, 32 215.386 C 32 216.639, 33.004 216.572, 38.715 214.939 C 54.637 210.385, 79.493 208.724, 96.678 211.066 C 103.797 212.036, 117.511 215.108, 121.421 216.608 C 122.835 217.151, 123 214.430, 123 190.541 C 123 174.067, 123.396 163.129, 124.035 161.934 C 125.432 159.325, 130.568 159.325, 131.965 161.934 C 132.604 163.129, 133 174.067, 133 190.541 C 133 214.430, 133.165 217.151, 134.579 216.608 C 138.489 215.108, 152.203 212.036, 159.322 211.066 C 176.507 208.724, 201.363 210.385, 217.285 214.939 C 222.996 216.572, 224 216.639, 224 215.386 C 224 213.845, 210.378 131.166, 209.478 127.250 C 208.733 124.003, 205.234 124.314, 203.846 127.750 C 200.141 136.924, 196.510 143.210, 193.178 146.221 L 189.374 149.656 191.253 154.078 C 195.505 164.088, 192.221 172.781, 183.163 175.491 C 179.097 176.707, 174.511 175.112, 169.307 170.670 C 166.526 168.296, 161.519 165.363, 158.145 164.133 C 150.557 161.367, 144.047 156.536, 141.756 151.973 C 140.324 149.120, 139.273 148.371, 135.870 147.779 C 132.555 147.202, 131.169 147.456, 128.930 149.050 C 118.133 156.738, 102.949 155.093, 93.878 145.251 L 89.568 140.577 81.478 140.521 C 74.444 140.473, 72.530 140.043, 66.821 137.233 C 63.069 135.386, 58.477 132.071, 56.107 129.500 C 51.378 124.370, 47.397 123.436, 46.522 127.250 M 20.041 184.342 C 14.884 210.929, 10.951 233.429, 11.301 234.342 C 11.880 235.852, 15.947 236, 56.910 236 C 81.644 236, 102.098 235.651, 102.361 235.225 C 102.625 234.798, 102.959 231.537, 103.104 227.978 L 103.368 221.506 98.434 220.654 C 95.720 220.185, 86.525 219.763, 78 219.717 C 62.370 219.632, 48.748 221.486, 35.665 225.480 C 31.549 226.736, 30.347 226.754, 27.587 225.601 C 21.061 222.874, 21.067 222.543, 28.403 178.593 C 32.031 156.856, 35 138.379, 35 137.535 C 35 136.522, 34.052 136, 32.209 136 L 29.418 136 20.041 184.342 M 221 137.535 C 221 138.379, 223.969 156.856, 227.597 178.593 C 234.933 222.543, 234.939 222.874, 228.413 225.601 C 225.653 226.754, 224.451 226.736, 220.335 225.480 C 207.054 221.426, 193.643 219.596, 178 219.703 C 169.475 219.761, 160.280 220.190, 157.566 220.657 L 152.632 221.506 152.886 228.003 C 153.027 231.576, 153.474 234.842, 153.881 235.260 C 154.288 235.679, 174.838 235.904, 199.547 235.760 C 242.522 235.511, 244.489 235.419, 244.833 233.630 C 245.031 232.602, 241.003 210.215, 235.883 183.880 L 226.574 136 223.787 136 C 221.948 136, 221 136.522, 221 137.535 M 112.591 227.243 C 112.315 229.034, 111.906 232.911, 111.681 235.858 C 111.277 241.156, 111.311 241.232, 114.711 242.653 C 119.735 244.752, 129.687 245.414, 136.124 244.078 C 144.509 242.337, 144.832 241.874, 144.017 232.746 C 143.637 228.482, 143.072 224.738, 142.761 224.428 C 142.450 224.117, 138.950 224.992, 134.983 226.371 C 127.821 228.862, 127.736 228.867, 123.135 227.083 C 120.586 226.095, 117.284 224.994, 115.797 224.636 C 113.339 224.045, 113.048 224.282, 112.591 227.243" stroke="none" fill="#fffcfc" fill-rule="evenodd"/><path d="" stroke="none" fill="#fcfcfc" fill-rule="evenodd"/></svg>