<svg xmlns="http://www.w3.org/2000/svg" width="256" height="256" viewBox="0 0 256 256" version="1.1"><path d="M 99.500 6.368 C 93.523 9.175, 91.766 11.015, 88.927 17.433 C 82.730 31.442, 93.603 48, 109 48 C 124.397 48, 135.270 31.442, 129.073 17.433 C 126.234 11.015, 124.477 9.175, 118.500 6.368 C 112.056 3.341, 105.944 3.341, 99.500 6.368 M 105.395 13.106 C 98.924 14.932, 94.221 22.799, 95.966 28.880 C 98.012 36.017, 101.868 39, 109.046 39 C 116.626 39, 122.075 33.673, 122.178 26.163 C 122.304 17.051, 114.083 10.655, 105.395 13.106 M 79.984 51.851 C 76.570 53.664, 66.809 63.993, 52.138 81.316 L 44.776 90.009 41.411 103.254 C 39.561 110.540, 38.038 117.625, 38.027 119 C 37.976 125.544, 45.848 131.814, 52.540 130.558 C 58.421 129.455, 60.542 126.278, 65.191 111.604 C 69.408 98.292, 69.642 97.849, 76.202 90.751 L 82.904 83.500 82.952 99.685 C 82.978 108.587, 83.452 117.058, 84.004 118.509 C 84.738 120.440, 84.067 130.303, 81.504 155.248 C 77.546 193.767, 77.343 198.617, 79.557 201.777 L 81.113 204 71.092 204 C 62.207 204, 60.953 204.219, 60.035 205.934 C 59.441 207.044, 59 214.927, 59 224.434 L 59 241 32.700 241 C 5.076 241, 4 241.169, 4 245.500 C 4 249.870, 4.917 250, 35.629 250 C 60.867 250, 65.072 249.785, 66.429 248.429 C 67.737 247.120, 68 243.939, 68 229.429 L 68 212 96.300 212 C 116.978 212, 124.923 211.677, 125.800 210.800 C 126.638 209.962, 127 204.533, 127 192.800 L 127 176 155.066 176 C 172.500 176, 183.864 175.608, 185.066 174.965 C 186.868 174, 187 172.703, 187 155.979 L 187 138.028 219.250 137.764 L 251.500 137.500 251.500 134 L 251.500 130.500 215.500 130.500 L 179.500 130.500 179.227 148.750 L 178.955 167 172.477 167 L 166 167 166 151.549 C 166 133.656, 164.972 127.642, 160.970 122.118 C 157.028 116.676, 151.272 113.636, 139.750 110.912 L 130 108.606 130 95.803 C 130 88.761, 130.203 83, 130.452 83 C 130.701 83, 133.738 84.959, 137.202 87.353 C 148.747 95.332, 155.717 95.967, 171.500 90.480 C 183.619 86.266, 187.012 83.253, 186.978 76.734 C 186.944 70.363, 182.573 66, 176.222 66 C 174.622 66, 170.697 66.900, 167.500 68 C 164.303 69.100, 160.024 70, 157.992 70 C 154.204 70, 153.595 69.632, 141.310 59.896 C 131.825 52.379, 130.646 52.005, 113.206 50.983 C 89.256 49.580, 84.002 49.717, 79.984 51.851 M 84.500 59.344 C 82.840 60.104, 75.107 68.137, 67.185 77.331 L 52.870 93.944 49.504 106.703 C 45.881 120.436, 46.055 122.371, 50.860 121.801 C 53.179 121.525, 53.775 120.311, 57.993 107.251 L 62.594 93.002 73.547 81.722 C 86.699 68.178, 87.419 67.619, 89.958 68.977 C 91.744 69.933, 91.890 71.570, 92.185 93.929 C 92.480 116.366, 92.630 118.034, 94.590 120.679 C 97.617 124.765, 99.462 125.413, 120.923 129.919 C 131.606 132.162, 141.432 134.708, 142.757 135.576 C 146.834 138.247, 148 142.784, 148 155.968 L 148 168 153 168 L 158 168 157.978 151.250 C 157.954 132.933, 156.775 127.865, 151.778 124.590 C 150.464 123.729, 144.014 121.622, 137.445 119.907 C 130.875 118.192, 124.713 116.371, 123.750 115.859 C 122.174 115.022, 122.012 113.114, 122.118 96.715 C 122.304 68.189, 122.676 67.626, 135.463 76.536 C 148.963 85.943, 149.628 86.267, 155.317 86.214 C 161.956 86.152, 178.331 80.234, 178.815 77.721 C 179.366 74.860, 176.117 74.569, 169.052 76.844 C 161.357 79.322, 155.322 79.585, 150.718 77.642 C 148.948 76.895, 143.900 73.249, 139.500 69.539 C 135.100 65.829, 130.150 62.221, 128.500 61.522 C 126.850 60.823, 119.425 59.956, 112 59.596 C 104.575 59.236, 96.025 58.723, 93 58.456 C 89.486 58.146, 86.417 58.466, 84.500 59.344 M 93 131.535 C 93 131.640, 91.651 144.725, 90.003 160.613 C 86.298 196.320, 86.248 198.786, 89.213 199.883 C 92.288 201.020, 95.014 200.110, 96.014 197.611 C 96.951 195.270, 106.329 135.943, 105.820 135.576 C 105.305 135.204, 93 131.326, 93 131.535 M 114.534 139.193 C 114.241 140.462, 111.944 154.550, 109.429 170.500 C 106.906 186.496, 104.205 200.509, 103.405 201.750 L 101.954 204 110.454 204 L 118.954 204 119.227 186.250 L 119.500 168.500 129.250 168.214 L 139 167.928 139 155.987 C 139 141.897, 139.243 142.217, 126.500 139.541 C 122.100 138.617, 117.727 137.642, 116.783 137.374 C 115.598 137.037, 114.902 137.600, 114.534 139.193 M 210.850 155.577 C 206.274 160.317, 204.500 162.900, 204.500 164.827 C 204.500 168.426, 208.285 169.021, 211.566 165.938 L 213.937 163.711 214.218 206.320 C 214.474 244.989, 214.658 249.089, 216.213 250.642 C 217.629 252.058, 218.366 252.154, 220.463 251.199 L 223 250.043 223 206.847 L 223 163.651 225.314 165.826 C 228.952 169.243, 234 168.195, 234 164.023 C 234 161.949, 220.920 149, 218.825 149 C 217.932 149, 214.343 151.960, 210.850 155.577 M 148.723 189.775 C 141.975 196.575, 140.974 198.574, 143.200 200.800 C 144.964 202.564, 147.389 202.269, 150.365 199.927 L 153 197.855 153 223.805 C 153 252.034, 153.176 252.926, 158.487 251.593 L 161 250.962 161 223.794 L 161 196.626 163.805 199.313 C 165.347 200.791, 167.282 202, 168.105 202 C 170.163 202, 172 199.979, 172 197.713 C 172 195.036, 160.192 183, 157.565 183 C 156.277 183, 152.810 185.656, 148.723 189.775 M 91.723 224.775 C 84.975 231.575, 83.974 233.574, 86.200 235.800 C 88.036 237.636, 91.122 237.234, 93.686 234.826 L 96 232.651 96 241.203 C 96 250.685, 97.066 252.702, 101.487 251.593 C 103.942 250.976, 104 250.751, 104 241.807 L 104 232.651 106.314 234.826 C 109.952 238.243, 115 237.195, 115 233.023 C 115 231.020, 101.955 218, 99.948 218 C 99.122 218, 95.421 221.049, 91.723 224.775" stroke="none" fill="currentColor" fill-rule="evenodd"/><path d="" stroke="none" fill="currentColor" fill-rule="evenodd"/></svg>