<svg xmlns="http://www.w3.org/2000/svg" width="256" height="256" viewBox="0 0 256 256" version="1.1"><path d="M 12.500 18.659 C 8.107 20.971, 4.080 24.988, 1.892 29.243 C 0.030 32.862, -0.025 35.745, 0.233 116.317 L 0.500 199.647 3.228 203.768 C 4.728 206.035, 8.103 209.152, 10.728 210.695 L 15.500 213.500 82.250 213.777 L 149 214.055 149 225.327 C 149 232.762, 149.409 237.009, 150.200 237.800 C 152.743 240.343, 155.627 238.923, 163.001 231.499 L 170.453 223.997 177.999 231.499 C 189.649 243.081, 192 242.040, 192 225.300 L 192 214 214.750 213.956 C 239.097 213.909, 242.116 213.437, 248.311 208.712 C 250.129 207.325, 252.829 203.856, 254.309 201.003 L 257 195.815 257 113.349 C 257 62.891, 256.640 31.105, 256.072 31.456 C 255.562 31.771, 254.847 31.093, 254.484 29.949 C 253.442 26.668, 248.047 21.065, 243.885 18.941 C 240.184 17.053, 237.012 17.001, 127.790 17.040 C 27.470 17.076, 15.180 17.248, 12.500 18.659 M 14.912 28.280 C 13.052 29.534, 10.967 31.672, 10.279 33.030 C 9.311 34.944, 9.028 53.503, 9.021 115.500 C 9.013 192.907, 9.076 195.595, 10.946 198.433 C 14.697 204.122, 12.141 203.926, 83.250 203.965 L 149 204 148.985 169.250 C 148.968 129.244, 148.718 127.577, 142.421 125.412 C 136.439 123.355, 134.359 119.845, 134.914 112.744 C 135.072 110.718, 134.185 109.097, 131.565 106.626 C 128.526 103.760, 128 102.614, 128 98.854 C 128 96.383, 128.722 93.414, 129.643 92.099 C 131.167 89.924, 131.167 89.552, 129.643 86.973 C 126.865 82.269, 127.490 76.739, 131.241 72.856 C 133.921 70.079, 134.500 68.673, 134.593 64.709 C 134.723 59.161, 138.004 54.862, 143.259 53.355 C 145.598 52.684, 146.589 51.668, 147.199 49.312 C 148.493 44.318, 153.221 41, 159.042 41 C 162.898 41, 164.154 40.580, 164.994 39.010 C 166.341 36.495, 171.099 34, 174.549 34 C 176.006 34, 178.706 34.716, 180.550 35.591 C 183.615 37.045, 184.097 37.045, 186.174 35.591 C 190.576 32.507, 198.521 34.094, 201.509 38.654 C 202.776 40.587, 203.909 41, 207.946 41 C 213.982 41, 218.603 44.369, 219.560 49.467 C 220.089 52.287, 220.713 52.911, 223.533 53.440 C 228.631 54.397, 232 59.018, 232 65.054 C 232 69.091, 232.413 70.224, 234.346 71.491 C 238.941 74.502, 240.490 82.428, 237.357 86.901 C 235.833 89.076, 235.833 89.448, 237.357 92.027 C 238.261 93.557, 239 96.711, 239 99.036 C 239 102.572, 238.428 103.804, 235.500 106.565 C 232.420 109.470, 232 110.457, 232 114.796 C 232 118.795, 231.500 120.227, 229.355 122.373 C 227.900 123.828, 225.345 125.372, 223.679 125.803 C 218.578 127.125, 218.161 129.947, 218.076 163.693 C 218 193.720, 217.988 193.895, 215.777 195.443 C 214.555 196.299, 213.153 197, 212.663 197 C 212.172 197, 208.226 193.551, 203.895 189.336 C 196.173 181.821, 195.981 181.708, 194.010 183.491 C 192.270 185.066, 192 186.565, 192 194.655 L 192 204 215.250 203.965 C 240.417 203.926, 241.574 203.711, 245.054 198.433 C 246.924 195.595, 246.987 192.907, 246.979 115.500 C 246.972 53.503, 246.689 34.944, 245.721 33.030 C 245.033 31.672, 242.948 29.534, 241.088 28.280 L 237.704 26 128 26 L 18.296 26 14.912 28.280 M 0.477 115 C 0.477 160.925, 0.600 179.713, 0.750 156.750 C 0.899 133.788, 0.899 96.213, 0.750 73.250 C 0.600 50.288, 0.477 69.075, 0.477 115 M 170.420 46.738 C 167.654 49.930, 166.805 50.303, 162.077 50.396 C 156.890 50.498, 156.793 50.557, 155.481 54.375 C 153.825 59.194, 153.192 59.827, 148.375 61.477 C 144.588 62.774, 144.488 62.932, 143.980 68.502 C 143.534 73.388, 142.979 74.630, 140.083 77.217 C 136.761 80.186, 136.733 80.278, 138.353 83.021 C 140.461 86.588, 140.461 92.412, 138.353 95.979 C 136.733 98.722, 136.761 98.814, 140.083 101.783 C 142.995 104.385, 143.532 105.597, 143.980 110.591 C 144.470 116.044, 144.678 116.427, 147.555 117.169 C 151.280 118.129, 154.839 121.746, 155.869 125.619 C 156.578 128.285, 157.067 128.539, 162.418 129.020 C 167.402 129.468, 168.616 130.006, 171.217 132.917 C 174.186 136.239, 174.278 136.267, 177.021 134.647 C 180.588 132.539, 186.412 132.539, 189.979 134.647 C 192.722 136.267, 192.814 136.239, 195.783 132.917 C 198.384 130.006, 199.598 129.468, 204.582 129.020 C 209.933 128.539, 210.422 128.285, 211.131 125.619 C 212.159 121.753, 215.714 118.133, 219.445 117.155 C 222.064 116.468, 222.517 115.865, 222.622 112.927 C 222.689 111.042, 222.801 108.667, 222.872 107.650 C 222.942 106.632, 224.619 104.181, 226.598 102.202 C 230.110 98.690, 230.158 98.538, 228.598 95.897 C 226.499 92.344, 226.567 86.544, 228.750 82.837 C 230.418 80.004, 230.418 79.819, 228.735 78.874 C 225.797 77.225, 223.008 73.746, 222.872 71.561 C 222.801 70.428, 222.689 67.925, 222.622 66 C 222.519 63.052, 222.105 62.453, 220 62.202 C 216.216 61.751, 213.064 58.867, 211.537 54.462 C 210.319 50.947, 209.788 50.490, 206.832 50.412 C 200.014 50.233, 199.152 49.921, 195.731 46.400 C 192.288 42.855, 192.195 42.826, 189.640 44.500 C 186.374 46.640, 180.697 46.687, 177.512 44.600 C 174.300 42.496, 174.023 42.579, 170.420 46.738 M 39.500 52.222 C 34.553 53.976, 31.162 56.868, 28.254 61.815 L 25.500 66.500 25.180 112 C 24.965 142.500, 25.221 159.167, 25.958 162.557 C 27.275 168.619, 31.595 174.204, 37.347 177.279 C 41.429 179.462, 42.249 179.505, 85.201 179.799 C 128.117 180.092, 128.940 180.060, 130.951 178.049 C 133.508 175.492, 133.516 174.516, 131 172 C 129.063 170.063, 127.667 170, 86.450 170 C 50.657 170, 43.442 169.763, 41.011 168.506 C 34.798 165.293, 35 167.070, 35 115.682 C 35 73.296, 35.163 68.532, 36.706 65.920 C 40.148 60.093, 40.913 60, 85.201 60 C 115.289 60, 125.906 59.694, 126.800 58.800 C 128.343 57.257, 128.343 53.743, 126.800 52.200 C 125.211 50.611, 43.986 50.631, 39.500 52.222 M 174.500 56.342 C 163.926 59.854, 155.885 66.724, 151.746 75.780 C 148.648 82.559, 148.617 96.562, 151.684 103.217 C 154.731 109.827, 162.239 117.479, 168.875 120.738 C 173.756 123.135, 175.690 123.499, 183.500 123.495 C 194.318 123.489, 199.371 121.540, 206.953 114.447 C 214.443 107.441, 217.395 100.568, 217.453 90 C 217.493 82.682, 217.099 80.631, 214.615 75.253 C 209.310 63.767, 197.835 56.036, 185.094 55.362 C 181.311 55.162, 176.795 55.580, 174.500 56.342 M 176.821 65.384 C 167.696 67.863, 160.869 75.337, 158.835 85.073 C 156.338 97.034, 164.092 109.878, 175.932 113.389 C 182.667 115.387, 184.314 115.393, 190.878 113.444 C 201.315 110.344, 208.375 100.683, 208.375 89.500 C 208.375 72.872, 192.871 61.023, 176.821 65.384 M 48.750 77.080 C 46.325 78.492, 46.445 83.633, 48.934 84.965 C 50.147 85.614, 62.277 86, 81.434 86 C 110.667 86, 112.087 85.913, 114 84 C 115.100 82.900, 116 81.550, 116 81 C 116 80.450, 115.100 79.100, 114 78 C 112.085 76.085, 110.688 76.001, 81.250 76.030 C 62.231 76.049, 49.832 76.450, 48.750 77.080 M 49.250 94.010 C 46.312 95.219, 46.104 100.450, 48.934 101.965 C 50.147 102.614, 62.277 103, 81.434 103 C 110.667 103, 112.087 102.913, 114 101 C 116.379 98.621, 116.445 97.991, 114.582 95.441 C 113.237 93.600, 111.568 93.489, 82.332 93.292 C 65.174 93.176, 50.502 93.495, 49.250 94.010 M 47.667 111.667 C 46.562 112.772, 46.917 117.517, 48.200 118.800 C 49.083 119.683, 57.795 120, 81.177 120 L 112.954 120 114.548 117.567 C 115.788 115.675, 115.896 114.675, 115.036 113.067 C 113.952 111.042, 113.261 111, 81.131 111 C 63.093 111, 48.033 111.300, 47.667 111.667 M 62.790 137.058 C 61.850 137.606, 60.769 139.730, 60.389 141.777 C 59.399 147.114, 57.635 149.336, 51.927 152.443 C 47.389 154.913, 46.918 155.490, 47.194 158.235 C 47.803 164.302, 55.428 163.186, 63.133 155.904 L 66.734 152.500 70.617 155.327 C 74.037 157.817, 75.096 158.085, 79.500 157.573 C 87.410 156.653, 88.056 156.703, 96.500 158.902 C 100.900 160.047, 107.547 160.988, 111.271 160.992 C 117.524 160.999, 118.130 160.809, 119.180 158.504 C 120.899 154.731, 118.008 152, 112.292 152 C 107.466 152, 94.666 149.366, 91.500 147.722 C 90.400 147.150, 88.894 145.828, 88.153 144.784 C 86.183 142.007, 81.845 142.807, 80.203 146.250 C 79.481 147.762, 78.480 149, 77.979 149 C 76.571 149, 70 142.100, 70 140.622 C 70 139.151, 66.841 135.984, 65.421 136.030 C 64.915 136.047, 63.731 136.509, 62.790 137.058 M 159.250 138.662 C 158.278 139.055, 158 148.529, 158 181.299 L 158 223.432 163.281 218.216 C 166.186 215.347, 169.435 213, 170.500 213 C 171.565 213, 174.814 215.347, 177.719 218.216 L 183 223.432 183 209.181 C 183 195.240, 182.957 194.953, 181 196 C 179.579 196.760, 178.421 196.760, 177 196 C 175.082 194.974, 175 193.906, 175 169.965 L 175 145 172.368 145 C 170.656 145, 168.583 143.777, 166.435 141.500 C 163.247 138.120, 161.907 137.590, 159.250 138.662 M 200.391 141.555 C 197.740 144.493, 196.632 145, 192.864 145 C 190.433 145, 187.445 144.299, 186.223 143.443 L 184 141.887 184 161.088 L 184 180.290 189.440 175.145 C 192.432 172.315, 195.457 170, 196.161 170 C 196.866 170, 200.043 172.573, 203.221 175.719 L 209 181.437 209 160.326 C 209 141.997, 208.791 139.134, 207.418 138.607 C 204.680 137.556, 203.585 138.015, 200.391 141.555" stroke="none" fill="currentColor" fill-rule="evenodd"/><path d="" stroke="none" fill="#currentColor" fill-rule="evenodd"/></svg>