<svg xmlns="http://www.w3.org/2000/svg" width="256" height="256" viewBox="0 0 256 256" version="1.1"><path d="M 107 22.407 C 62.601 30.356, 28.823 62.736, 19.371 106.407 C 18.527 110.308, 17.646 118.900, 17.412 125.500 C 17.028 136.383, 16.718 138.012, 14.080 143 C 9.446 151.762, 7 160.232, 7 167.518 C 7 175.406, 8.380 178.404, 14.488 183.780 C 18.924 187.685, 24.732 189.861, 35 191.465 C 37.714 191.889, 39.510 193.246, 43 197.511 C 58.226 216.117, 82.768 229.724, 108 233.548 C 139.829 238.373, 170.060 229.428, 195.279 207.726 C 209.491 195.494, 222.594 173.904, 227.580 154.500 C 230.991 141.227, 231.834 123.948, 229.674 111.587 L 228.117 102.674 232.043 98.214 C 246.546 81.737, 252.467 63.794, 247.076 52.657 C 243.698 45.679, 236.871 41.238, 225.907 38.887 L 220.786 37.788 223.937 34.910 C 226.553 32.521, 226.910 31.700, 226.039 30.072 C 223.799 25.887, 222.663 26.230, 211.768 34.384 C 208.046 37.169, 205 40.200, 205 41.119 C 205 42.037, 207.795 46.232, 211.211 50.441 C 216.356 56.780, 217.856 58.041, 219.961 57.796 C 223.610 57.371, 223.763 53.867, 220.328 49.364 L 217.523 45.686 222.012 46.199 C 228.620 46.955, 236.713 50.789, 239.265 54.373 C 244.206 61.312, 240.913 73.908, 230.480 87.970 L 225.680 94.440 224.478 90.970 C 221.955 83.688, 214.882 70.967, 209.063 63.244 C 194.795 44.309, 173.801 30.432, 150.277 24.386 C 138.144 21.267, 118.407 20.365, 107 22.407 M 104 30.948 C 66.880 38.838, 38.070 66.388, 27.761 103.854 C 24.709 114.945, 24.713 141.068, 27.768 152.175 C 30.599 162.463, 33.934 170, 35.655 170 C 36.430 170, 38.625 169.348, 40.532 168.551 C 43.534 167.297, 44 166.641, 44 163.670 C 44 161.783, 42.875 157.249, 41.500 153.596 C 38.492 145.606, 38.383 142.523, 40.960 138.299 C 44.517 132.464, 52.220 130.385, 59.282 133.352 C 63.633 135.181, 69.957 142.262, 73.982 149.815 C 77.881 157.131, 83.914 163, 87.535 163 C 91.565 163, 97.285 165.794, 100.042 169.109 L 102.584 172.166 111.042 168.772 L 119.500 165.378 119.152 157.783 C 118.525 144.111, 122.507 134.773, 133.157 124.940 L 139.180 119.380 140.079 111.336 C 140.574 106.913, 142.109 100.292, 143.490 96.624 C 146.208 89.403, 146.580 85.951, 144.965 82.934 C 143.345 79.908, 140.623 80.642, 137.071 85.061 C 135.276 87.295, 132.620 89.574, 131.169 90.126 C 127.375 91.568, 101.603 95.069, 94.367 95.125 C 81.404 95.225, 76.153 88.213, 78.984 74.579 C 81.656 61.708, 89.019 59.157, 101.586 66.750 C 106.733 69.860, 109.677 70.996, 112.560 70.985 C 117.142 70.967, 117.850 70.570, 120.772 66.382 C 123.260 62.818, 126.064 61.514, 134.397 60.050 C 141.062 58.879, 146.130 55.561, 148.679 50.698 C 150.567 47.097, 150.893 34.493, 149.144 32.744 C 145.440 29.040, 118.093 27.952, 104 30.948 M 157.994 41.183 C 157.986 50.510, 156.490 54.605, 151.132 59.964 C 146.349 64.746, 139.373 68, 133.904 68 C 129.779 68, 128.240 68.875, 126.004 72.493 C 121.725 79.418, 112.054 80.965, 102.891 76.192 C 99.926 74.647, 96.113 72.545, 94.418 71.520 C 92.707 70.485, 90.589 69.944, 89.653 70.303 C 87.279 71.214, 85.855 75.599, 86.203 80.931 C 86.459 84.860, 86.907 85.678, 89.466 86.900 C 92.087 88.152, 94.473 88.045, 109.966 85.984 L 127.500 83.651 131.500 79.480 C 137.924 72.781, 141.459 71.635, 146.947 74.473 C 150.217 76.163, 154.009 83.224, 153.980 87.566 C 153.969 89.180, 152.619 94.303, 150.980 98.952 C 149.341 103.601, 148 109.281, 148 111.576 C 148 119.097, 145.505 123.878, 137.623 131.461 C 129.126 139.636, 127 144.381, 127 155.178 C 127 158.930, 127.232 162, 127.517 162 C 128.448 162, 150.318 150.852, 158.500 146.207 C 168.130 140.739, 191.620 125.424, 192.460 124.064 C 192.790 123.531, 190.467 121.379, 187.299 119.282 C 183.807 116.971, 181.155 114.383, 180.567 112.711 C 179.074 108.465, 181.304 100.045, 185.970 92.309 C 191.161 83.701, 192.910 77.814, 193.675 66.366 L 194.286 57.231 186.205 50.841 C 178.696 44.903, 165.475 37.110, 160.250 35.541 C 158.083 34.890, 158 35.099, 157.994 41.183 M 201.022 70.568 C 200.991 77.685, 198.622 85.026, 192.917 95.685 C 186.243 108.152, 186.346 109.850, 194.055 114.533 C 199.371 117.762, 200.316 118.041, 201.805 116.815 C 212.630 107.900, 218.998 101.543, 218.988 99.660 C 218.962 95.098, 209.209 75.738, 203.038 68 L 201.044 65.500 201.022 70.568 M 213.693 116.687 C 207.372 122.211, 206.028 123.878, 206.589 125.500 C 206.970 126.600, 207.476 129.975, 207.714 133 C 208.437 142.199, 203.190 147.939, 194 148.001 C 188.706 148.036, 187.448 148.683, 186.190 152.020 C 184.030 157.750, 189.765 162.223, 196.445 160.018 C 201.122 158.475, 205.478 159.521, 208.066 162.811 C 210.900 166.414, 210.037 170.015, 204.959 175.784 C 201.619 179.578, 200.955 181.007, 201.201 183.869 C 201.366 185.781, 201.950 187.488, 202.500 187.663 C 205.182 188.516, 216.471 166.506, 220.038 153.470 C 222.447 144.669, 223.830 120.579, 222.322 113.687 L 221.488 109.875 213.693 116.687 M 197.582 129.867 C 196.629 131.409, 171.792 147.511, 161.500 153.259 C 156 156.330, 146.724 161.200, 140.887 164.081 L 130.275 169.319 133.137 174.761 C 139.780 187.388, 134.001 198.161, 120.480 198.356 C 116.674 198.411, 114.250 197.751, 110.764 195.708 C 106.724 193.340, 104.738 191.173, 99.400 183.310 C 98.402 181.840, 97.241 181.981, 86.900 184.833 C 80.630 186.563, 70.775 188.703, 65 189.590 C 59.225 190.478, 53.150 191.544, 51.500 191.961 L 48.500 192.718 54.860 198.897 C 58.358 202.295, 63.761 206.801, 66.867 208.910 L 72.514 212.745 74.382 210.269 C 76.458 207.517, 81.676 205, 85.307 205 C 86.610 205, 92.278 207.250, 97.902 210 C 103.525 212.750, 109.172 215, 110.451 215 C 111.729 215, 114.983 213.482, 117.680 211.626 C 129.741 203.330, 136.381 202.077, 145.500 206.378 C 150.741 208.849, 157.543 214.985, 158.546 218.145 C 159.338 220.641, 161.105 220.484, 167.283 217.371 C 175.621 213.168, 185.013 206.713, 191.731 200.567 L 197.962 194.867 195.953 192.150 C 193.674 189.068, 192.465 183.269, 193.358 179.710 C 193.689 178.391, 195.833 174.959, 198.122 172.084 L 202.285 166.856 198.392 167.636 C 185.904 170.138, 177.008 163.495, 178.237 152.587 C 179.090 145.024, 185.289 140, 193.768 140 C 198.697 140, 200 138.599, 200 133.300 C 200 129.343, 198.885 127.760, 197.582 129.867 M 48.200 141.200 C 46.439 142.961, 46.769 146.899, 49.104 152 C 52.103 158.552, 52.688 166.027, 50.492 169.744 C 48.664 172.838, 44.546 175.756, 40.446 176.861 L 38.077 177.500 40.223 180.886 L 42.369 184.272 51.434 183.714 C 61.627 183.087, 72.057 181.137, 85.891 177.271 C 95.263 174.652, 95.278 174.643, 93.030 172.823 C 91.792 171.821, 90.041 170.997, 89.139 170.994 C 81.327 170.968, 73.397 164.758, 67.547 154.085 C 61.826 143.649, 58.139 140, 53.315 140 C 51.162 140, 48.860 140.540, 48.200 141.200 M 18.030 152.500 C 16.385 156.687, 14 166.044, 14 168.309 C 14 172.119, 17.296 177.089, 21.380 179.436 C 25.219 181.643, 32 183.730, 32 182.705 C 32 182.456, 30.893 180.271, 29.539 177.849 C 26.666 172.709, 22.396 161.656, 20.522 154.509 L 19.209 149.500 18.030 152.500 M 113.500 176.054 C 105.956 179.120, 105.725 179.617, 109.522 184.609 C 115.663 192.683, 128 192.768, 128 184.737 C 128 180.691, 124.067 172.972, 122.073 173.104 C 121.208 173.161, 117.350 174.489, 113.500 176.054 M 129.978 213.279 C 127.515 214.564, 123.222 217.067, 120.439 218.840 C 112.203 224.087, 109.914 224.016, 97.057 218.115 C 90.928 215.302, 85.103 213, 84.112 213 C 83.121 213, 81.535 213.856, 80.589 214.902 C 78.924 216.742, 79.137 216.908, 87.184 220.022 C 101.325 225.495, 112.366 227.290, 128 226.657 C 141.483 226.112, 151.045 224.365, 151.726 222.322 C 152.174 220.977, 146.699 215.407, 143.144 213.591 C 137.853 210.889, 134.699 210.814, 129.978 213.279" stroke="none" fill="currentColor" fill-rule="evenodd"/><path d="" stroke="none" fill="currentColor" fill-rule="evenodd"/></svg>