<svg xmlns="http://www.w3.org/2000/svg" width="256" height="256" viewBox="0 0 256 256" version="1.1"><path d="M 6.035 5.934 C 4.602 8.612, 4.602 151.388, 6.035 154.066 C 6.907 155.694, 8.173 156, 14.035 156 L 21 156 21 168 L 21 180 25.500 180 L 30 180 30 162.468 C 30 143.049, 30.671 140.011, 36.229 134.269 C 38.962 131.444, 45.528 128.162, 46.466 129.150 C 46.648 129.343, 45.509 132.735, 43.934 136.690 L 41.070 143.880 45.785 157.690 C 50.109 170.355, 50.714 171.525, 53.086 171.801 C 54.508 171.966, 56.135 171.516, 56.702 170.801 C 57.268 170.085, 59.644 163.718, 61.982 156.652 L 66.231 143.803 63.238 136.152 L 60.245 128.500 68.372 128 L 76.500 127.500 92.424 116.797 C 106.862 107.094, 108.469 106.254, 109.643 107.797 C 110.354 108.734, 110.933 109.950, 110.928 110.500 C 110.924 111.050, 103.176 116.900, 93.710 123.500 C 80.835 132.477, 76.060 136.382, 74.752 139 C 73.241 142.024, 73.003 145.594, 73.002 165.250 L 73 188 77.500 188 L 82 188 82 172 L 82 156 166.800 156 C 231.422 156, 251.886 155.714, 252.800 154.800 C 254.537 153.063, 254.537 6.937, 252.800 5.200 C 251.880 4.280, 223.097 4, 129.335 4 C 9.479 4, 7.050 4.038, 6.035 5.934 M 14 80 L 14 148 17.429 148 C 20.771 148, 20.887 147.863, 21.974 142.625 C 23.408 135.718, 27.808 128.817, 32.947 125.417 C 37.441 122.442, 37.715 121.838, 35.427 119.939 C 29.630 115.128, 27.702 101.240, 31.747 93.432 C 34.437 88.241, 40.677 82.592, 45.468 81.010 C 47.521 80.333, 52.028 79.960, 55.493 80.180 C 63.679 80.702, 70.237 84.595, 74.474 91.448 C 77.145 95.769, 77.500 97.231, 77.500 103.922 C 77.500 110.040, 77.056 112.252, 75.194 115.401 L 72.889 119.303 75.694 117.480 C 77.237 116.477, 84.798 111.459, 92.495 106.328 C 100.192 101.198, 107.404 97, 108.522 97 C 109.640 97, 111.506 97.666, 112.667 98.480 C 114.658 99.874, 115.688 99.300, 130.593 88.480 C 139.290 82.166, 146.732 77, 147.131 77 C 147.984 77, 152 81.942, 152 82.992 C 152 83.390, 144.844 88.944, 136.098 95.335 C 120.702 106.586, 120.200 107.066, 120.295 110.432 C 120.356 112.579, 119.653 114.726, 118.455 116.050 C 117.388 117.228, 109.423 123.133, 100.755 129.171 C 82.547 141.854, 82 142.332, 82 145.571 L 82 148 163.500 148 L 245 148 245 80 L 245 12 129.500 12 L 14 12 14 80 M 217.078 19.846 C 215.366 23.203, 214.431 23.920, 211.014 24.498 C 204.455 25.606, 203.617 29.628, 208.941 34.446 C 210.727 36.063, 210.963 37.062, 210.419 40.694 C 209.380 47.618, 212.658 49.779, 219.126 46.435 C 221.885 45.008, 222.372 45.013, 224.634 46.496 C 225.999 47.390, 228.327 47.982, 229.808 47.811 C 232.329 47.520, 232.506 47.171, 232.601 42.321 C 232.680 38.270, 233.279 36.457, 235.351 33.994 C 239.733 28.787, 238.656 25.769, 231.970 24.520 C 229.245 24.010, 227.992 23.022, 226.470 20.180 C 225.064 17.554, 223.727 16.411, 221.802 16.189 C 219.533 15.927, 218.781 16.510, 217.078 19.846 M 25 24 L 25 28 39.500 28 L 54 28 54 24 L 54 20 39.500 20 L 25 20 25 24 M 61 24 L 61 28 85.500 28 L 110 28 110 24 L 110 20 85.500 20 L 61 20 61 24 M 220.323 31.077 C 218.949 32.451, 219.805 36, 221.510 36 C 223.426 36, 224.261 32.832, 222.744 31.315 C 221.783 30.355, 221.111 30.289, 220.323 31.077 M 25 40 L 25 44 29.500 44 L 34 44 34 40 L 34 36 29.500 36 L 25 36 25 40 M 41 40 L 41 44 75.500 44 L 110 44 110 40 L 110 36 75.500 36 L 41 36 41 40 M 25 56 L 25 60 49.500 60 L 74 60 74 56 L 74 52 49.500 52 L 25 52 25 56 M 81 56 L 81 60 95.500 60 L 110 60 110 56 L 110 52 95.500 52 L 81 52 81 56 M 217 56 L 217 60 221.500 60 L 226 60 226 56 L 226 52 221.500 52 L 217 52 217 56 M 158.143 62.533 C 154.083 65.949, 152.488 70.918, 153.989 75.467 C 157.269 85.404, 170.303 87.156, 176.054 78.433 C 178.378 74.906, 178.549 69.961, 176.483 65.967 C 173.286 59.785, 163.571 57.966, 158.143 62.533 M 163.724 69.134 C 159.838 71.309, 163.294 76.983, 167.224 74.880 C 168.201 74.357, 169 73.061, 169 72 C 169 69.485, 166.005 67.858, 163.724 69.134 M 185 72 L 185 76 189.500 76 L 194 76 194 72 L 194 68 189.500 68 L 185 68 185 72 M 201 72 L 201 76 205.500 76 L 210 76 210 72 L 210 68 205.500 68 L 201 68 201 72 M 217 72 L 217 76 221.500 76 L 226 76 226 72 L 226 68 221.500 68 L 217 68 217 72 M 48.625 89.458 C 41.850 91.893, 42.833 92.500, 53.548 92.500 C 59.295 92.500, 63.998 92.399, 63.999 92.276 C 63.999 92.152, 62.763 91.419, 61.250 90.646 C 56.767 88.356, 52.744 87.977, 48.625 89.458 M 47.718 101.054 C 45.637 101.565, 42.577 102.685, 40.917 103.543 C 37.619 105.248, 37.615 106.686, 40.890 112.465 C 44.563 118.944, 54.353 121.314, 61.119 117.363 C 64.920 115.142, 69 109.673, 69 106.796 C 69 102.856, 55.366 99.178, 47.718 101.054 M 51.902 140.153 C 50.428 144.163, 50.435 144.887, 51.989 149.500 L 53.673 154.500 55.398 149.305 C 57.045 144.350, 57.041 143.920, 55.312 139.959 L 53.500 135.807 51.902 140.153 M 23.907 186.328 C 12.351 192.431, 9.937 208.937, 19.241 218.241 C 20.415 219.415, 20.910 220.530, 20.341 220.720 C 19.772 220.909, 17.521 222.377, 15.340 223.982 C 9.465 228.302, 5.963 235.454, 5.276 244.531 L 4.711 252 9.356 252 L 14 252 14 246.468 C 14 243.425, 14.614 239.467, 15.364 237.671 C 18.350 230.524, 27.038 226.323, 36.768 227.320 C 47.370 228.406, 53 234.871, 53 245.960 L 53 252 57.500 252 L 62 252 61.994 246.250 C 61.991 243.088, 61.523 238.824, 60.954 236.775 C 59.561 231.758, 54.237 224.977, 49.688 222.425 C 46.012 220.363, 45.991 220.318, 47.959 218.537 C 51.086 215.707, 54 208.769, 54 204.152 C 54 188.723, 37.678 179.055, 23.907 186.328 M 87.907 186.328 C 76.351 192.431, 73.937 208.937, 83.241 218.241 C 84.415 219.415, 84.910 220.530, 84.341 220.720 C 83.772 220.909, 81.521 222.377, 79.340 223.982 C 73.465 228.302, 69.963 235.454, 69.276 244.531 L 68.711 252 73.356 252 L 78 252 78 246.468 C 78 243.425, 78.614 239.467, 79.364 237.671 C 82.350 230.524, 91.038 226.323, 100.768 227.320 C 111.370 228.406, 117 234.871, 117 245.960 L 117 252 121.500 252 L 126 252 125.994 246.250 C 125.991 243.088, 125.523 238.824, 124.954 236.775 C 123.561 231.758, 118.237 224.977, 113.688 222.425 C 110.012 220.363, 109.991 220.318, 111.959 218.537 C 115.086 215.707, 118 208.769, 118 204.152 C 118 188.723, 101.678 179.055, 87.907 186.328 M 151.907 186.328 C 140.351 192.431, 137.937 208.937, 147.241 218.241 C 148.415 219.415, 148.910 220.530, 148.341 220.720 C 147.772 220.909, 145.521 222.377, 143.340 223.982 C 137.465 228.302, 133.963 235.454, 133.276 244.531 L 132.711 252 137.356 252 L 142 252 142 246.468 C 142 243.425, 142.614 239.467, 143.364 237.671 C 146.350 230.524, 155.038 226.323, 164.768 227.320 C 175.370 228.406, 181 234.871, 181 245.960 L 181 252 185.500 252 L 190 252 189.994 246.250 C 189.991 243.088, 189.523 238.824, 188.954 236.775 C 187.561 231.758, 182.237 224.977, 177.688 222.425 C 174.012 220.363, 173.991 220.318, 175.959 218.537 C 179.086 215.707, 182 208.769, 182 204.152 C 182 188.723, 165.678 179.055, 151.907 186.328 M 215.907 186.328 C 204.351 192.431, 201.937 208.937, 211.241 218.241 C 212.415 219.415, 212.910 220.530, 212.341 220.720 C 211.772 220.909, 209.521 222.377, 207.340 223.982 C 201.465 228.302, 197.963 235.454, 197.276 244.531 L 196.711 252 201.356 252 L 206 252 206 246.468 C 206 243.425, 206.614 239.467, 207.364 237.671 C 210.350 230.524, 219.038 226.323, 228.768 227.320 C 239.370 228.406, 245 234.871, 245 245.960 L 245 252 249.500 252 L 254 252 253.994 246.250 C 253.991 243.088, 253.523 238.824, 252.954 236.775 C 251.561 231.758, 246.237 224.977, 241.688 222.425 C 238.012 220.363, 237.991 220.318, 239.959 218.537 C 243.086 215.707, 246 208.769, 246 204.152 C 246 188.723, 229.678 179.055, 215.907 186.328 M 30.035 193.315 C 26.056 194.675, 21.998 200.023, 22.004 203.898 C 22.008 207.164, 25.203 212.503, 28.072 214.039 C 33.391 216.885, 40.358 215.049, 43.331 210.017 C 48.829 200.710, 40.181 189.846, 30.035 193.315 M 94.035 193.315 C 90.056 194.675, 85.998 200.023, 86.004 203.898 C 86.008 207.164, 89.203 212.503, 92.072 214.039 C 97.391 216.885, 104.358 215.049, 107.331 210.017 C 112.829 200.710, 104.181 189.846, 94.035 193.315 M 158.035 193.315 C 154.056 194.675, 149.998 200.023, 150.004 203.898 C 150.008 207.164, 153.203 212.503, 156.072 214.039 C 161.391 216.885, 168.358 215.049, 171.331 210.017 C 176.829 200.710, 168.181 189.846, 158.035 193.315 M 222.035 193.315 C 218.056 194.675, 213.998 200.023, 214.004 203.898 C 214.008 207.164, 217.203 212.503, 220.072 214.039 C 225.391 216.885, 232.358 215.049, 235.331 210.017 C 240.829 200.710, 232.181 189.846, 222.035 193.315" stroke="none" fill="#fffcfc" fill-rule="evenodd"/><path d="" stroke="none" fill="#fcfcfc" fill-rule="evenodd"/></svg>