<svg xmlns="http://www.w3.org/2000/svg" width="256" height="256" viewBox="0 0 256 256" version="1.1"><path d="M 179.190 1.353 C 177.919 2.058, 176.010 3.955, 174.946 5.567 C 173.192 8.228, 173.013 10.424, 173.007 29.265 L 173 50.029 176.413 53.753 C 179.738 57.382, 180.034 57.487, 187.968 57.847 L 196.111 58.217 195.581 60.858 C 194.051 68.475, 191.946 82.279, 192.264 82.598 C 192.466 82.799, 201.601 77.355, 212.565 70.499 L 232.500 58.033 239.500 58.002 C 247.682 57.965, 250.579 56.749, 253.774 52.007 C 256.062 48.612, 256.102 48.129, 255.804 27.693 L 255.500 6.842 251.765 3.421 L 248.029 -0 214.765 0.035 C 189.634 0.062, 180.935 0.384, 179.190 1.353 M 182.451 10.268 C 182.177 10.981, 182.076 19.875, 182.227 30.032 L 182.500 48.500 194.719 48.781 L 206.938 49.061 206.440 51.781 C 204.806 60.702, 204.186 64.519, 204.345 64.679 C 204.444 64.778, 210.145 61.302, 217.013 56.956 L 229.500 49.052 237.128 49.026 C 242.367 49.008, 245.114 48.568, 245.901 47.620 C 246.693 46.665, 246.962 40.572, 246.773 27.870 L 246.500 9.500 214.724 9.236 C 189.431 9.026, 182.847 9.236, 182.451 10.268 M 111.520 13.115 C 67.802 19.481, 30.538 50.771, 17.574 92 C 16.623 95.025, 15.628 98.169, 15.363 98.986 C 15.054 99.941, 13.784 98.572, 11.811 95.155 C 10.123 92.231, 8.161 89.615, 7.451 89.343 C 6.404 88.941, 4.189 89.937, 0.158 92.622 C -0.448 93.026, 14.229 117, 15.082 117 C 16.113 117, 36.001 105.169, 37.882 103.437 C 39.051 102.361, 38.920 101.606, 37.037 98.559 L 34.809 94.955 31.155 97.137 C 29.145 98.338, 27.072 99.698, 26.550 100.160 C 24.293 102.156, 24.266 100.575, 26.450 94.250 C 31.754 78.893, 39.155 66.352, 49.568 55.075 C 62.326 41.258, 82.369 29.397, 101.500 24.342 C 110.202 22.042, 113.512 21.694, 127 21.660 C 141.304 21.624, 151.620 22.892, 158.181 25.494 C 159.496 26.016, 160.093 25.327, 160.925 22.330 C 162.397 17.029, 162.486 17.209, 157.750 15.927 C 144.325 12.296, 125.154 11.129, 111.520 13.115 M 189 20.483 L 189 25 214.557 25 L 240.115 25 239.807 20.750 L 239.500 16.500 214.250 16.233 L 189 15.966 189 20.483 M 189.193 37.250 L 189.500 41.500 206.250 41.774 L 223 42.048 223 37.524 L 223 33 205.943 33 L 188.885 33 189.193 37.250 M 231 37.557 L 231 42.115 235.250 41.807 C 239.479 41.501, 239.501 41.479, 239.807 37.250 L 240.115 33 235.557 33 L 231 33 231 37.557 M 114.634 42.519 C 96.159 47.203, 80.355 63.023, 75.489 81.703 C 74.401 85.881, 74.004 92.950, 74.016 107.960 C 74.032 127.358, 74.157 128.719, 76.266 132.435 C 77.657 134.886, 80.053 137.150, 82.615 138.435 C 86.104 140.186, 86.984 141.288, 88.394 145.679 C 90.495 152.221, 97.384 161.631, 102.821 165.386 C 105.119 166.973, 107 168.572, 107 168.939 C 107 169.305, 100.138 170.824, 91.750 172.314 C 73.396 175.574, 67.288 178.246, 61.906 185.366 C 59.898 188.023, 57.676 191.952, 56.968 194.098 C 56.259 196.244, 55.402 198, 55.063 198 C 53.493 198, 41 184.225, 41 182.495 C 41 181.374, 44.725 176.797, 49.734 171.765 L 58.467 162.991 42.984 147.460 L 27.500 131.930 15.407 144.215 C 1.406 158.438, -0.643 162.400, 0.250 173.523 C 1.100 184.110, 3.233 186.818, 37.842 221.248 C 66.937 250.194, 69.932 252.884, 74.834 254.480 C 82.253 256.895, 92.135 256.262, 98.264 252.977 C 100.806 251.615, 108.056 245.775, 114.375 240 L 125.864 229.500 122.736 226.250 L 119.608 223 163.804 223 C 188.112 223, 208 222.871, 208 222.713 C 208 221.305, 197.828 192.578, 196.239 189.500 C 193.698 184.574, 188.790 179.852, 183.500 177.242 C 181.300 176.156, 172.627 174.002, 164.227 172.454 C 155.826 170.907, 149.076 169.339, 149.227 168.971 C 149.377 168.603, 152.260 165.759, 155.634 162.651 C 161.497 157.249, 162.004 157, 167.134 156.996 C 173.856 156.992, 178.551 154.319, 180.645 149.306 C 181.930 146.231, 182.110 140.842, 181.784 115.078 C 181.408 85.248, 181.337 84.338, 178.871 77.880 C 172.442 61.044, 162.004 50.315, 146.260 44.362 C 137.694 41.122, 123.425 40.291, 114.634 42.519 M 116.105 51.583 C 103.633 54.936, 92.481 64.483, 86.748 76.712 C 83.802 82.999, 83.537 84.442, 83.165 96.264 C 82.804 107.713, 82.929 108.964, 84.381 108.407 C 85.272 108.066, 86 106.709, 86 105.393 C 86 103.247, 86.438 102.998, 90.250 102.985 C 95.880 102.966, 106.089 100.505, 111.058 97.971 C 113.255 96.850, 117.996 93.436, 121.593 90.384 L 128.133 84.836 133.558 89.966 C 141.794 97.755, 154.702 103, 165.636 103 C 168.514 103, 169 103.345, 169 105.383 C 169 106.926, 169.706 107.951, 171 108.290 C 172.880 108.781, 172.999 108.324, 172.983 100.656 C 172.948 84.276, 168.789 72.844, 159.411 63.346 C 148.308 52.100, 131.329 47.488, 116.105 51.583 M 221.947 88.951 C 217.969 95.604, 214.891 101.186, 215.107 101.355 C 217.499 103.229, 220.685 105, 221.665 105 C 222.336 105, 224.148 102.750, 225.692 100.001 C 227.237 97.252, 228.801 95.002, 229.170 95.001 C 230.235 94.999, 233.070 108.639, 234.125 118.838 C 236.580 142.582, 228.784 171.168, 214.742 189.915 L 210.686 195.330 213.968 198.263 C 217.155 201.110, 217.302 201.142, 219.061 199.347 C 220.057 198.331, 223.360 193.520, 226.400 188.655 C 243.676 161.012, 248.340 124.782, 238.562 94.181 L 237.821 91.862 241.661 94.273 C 249.769 99.366, 249.598 99.347, 251.909 95.429 C 253.059 93.480, 254 91.715, 254 91.507 C 254 91.035, 232.876 78.273, 230.738 77.453 C 229.570 77.005, 227.369 79.884, 221.947 88.951 M 126.439 98.099 C 126.065 98.705, 123.054 100.948, 119.748 103.084 C 114.355 106.570, 105.590 109.913, 97.640 111.517 L 94.780 112.093 95.187 126.297 C 95.567 139.533, 95.791 140.895, 98.486 146.304 C 101.956 153.269, 107.285 158.316, 114.880 161.829 C 124.797 166.417, 138.400 165.047, 146.500 158.644 C 148.357 157.177, 147.729 157.061, 137.750 157.032 L 127 157 127 152.500 L 127 148 141.474 148 L 155.949 148 157.723 144.750 C 159.198 142.049, 159.498 138.980, 159.499 126.592 L 159.500 111.683 153.059 110.366 C 145.541 108.827, 138.115 105.396, 131.691 100.491 C 128.741 98.238, 126.877 97.389, 126.439 98.099 M 84.035 119.934 C 82.570 122.672, 82.752 126.290, 84.468 128.559 C 85.810 130.333, 85.939 129.963, 85.968 124.250 C 86.002 117.587, 85.678 116.864, 84.035 119.934 M 169.033 124.250 L 169.067 130.500 171.033 128.139 C 173.304 125.413, 173.446 124.074, 171.839 120.547 C 169.939 116.375, 168.998 117.616, 169.033 124.250 M 169.819 140.250 C 168.959 140.938, 167.772 142.963, 167.180 144.750 C 166.180 147.772, 166.262 148, 168.352 148 C 171.495 148, 173 146.155, 173 142.300 C 173 138.749, 172.278 138.284, 169.819 140.250 M 24.683 146.798 C 23.153 148.488, 23.609 149.146, 32.337 157.838 L 41.618 167.080 43.499 165.001 C 45.367 162.937, 45.317 162.858, 36.461 153.961 C 31.555 149.032, 27.265 145, 26.926 145 C 26.587 145, 25.578 145.809, 24.683 146.798 M 13.588 158.295 C 8.899 164.443, 7.763 172.069, 10.536 178.782 C 12.436 183.381, 70.723 242.211, 76.210 245.068 C 83.135 248.674, 92.705 247.238, 98.779 241.681 L 101.059 239.596 91.959 230.459 L 82.859 221.321 78.862 223.298 C 71.931 226.727, 69.847 225.433, 49.747 205.221 C 32.352 187.728, 32 187.290, 32 183.137 C 32 180.807, 32.647 177.649, 33.438 176.119 C 34.869 173.352, 34.828 173.289, 25.567 164.067 L 16.257 154.796 13.588 158.295 M 134.500 173.175 C 132.300 173.711, 127.575 173.873, 124 173.535 L 117.500 172.921 122.751 178.199 L 128.001 183.477 133.740 177.739 C 136.896 174.582, 139.258 172.045, 138.989 172.100 C 138.720 172.156, 136.700 172.639, 134.500 173.175 M 94.253 181.086 C 85.867 182.635, 77.414 184.659, 75.468 185.582 C 70.486 187.946, 66.586 193.109, 64.448 200.173 L 62.613 206.233 67.732 211.117 C 70.548 213.802, 73.344 216, 73.946 216 C 74.548 216, 79.462 211.983, 84.866 207.073 L 94.692 198.145 102.572 206.073 L 110.453 214 152.727 214 C 175.977 214, 195 213.664, 195 213.252 C 195 212.841, 193.592 208.278, 191.871 203.112 C 188.547 193.136, 184.399 187.236, 179.192 185.080 C 177.660 184.445, 169.678 182.662, 161.453 181.118 L 146.500 178.310 137.250 187.385 L 128 196.460 118.750 187.364 L 109.500 178.268 94.253 181.086 M 91.934 212.889 L 89.500 214.897 98.739 224.181 L 107.979 233.465 110.222 231.222 L 112.465 228.979 103.417 219.930 L 94.368 210.881 91.934 212.889" stroke="none" fill="#fffcfc" fill-rule="evenodd"/><path d="" stroke="none" fill="#fcfcfc" fill-rule="evenodd"/></svg>