<svg xmlns="http://www.w3.org/2000/svg" width="256" height="256" viewBox="0 0 256 256" version="1.1"><path d="M 112.450 5.270 C 112.171 5.997, 112.068 13.096, 112.221 21.046 L 112.500 35.500 128 35.500 L 143.500 35.500 143.500 20 L 143.500 4.500 128.229 4.224 C 116.292 4.008, 112.847 4.236, 112.450 5.270 M 120 20 L 120 28 128 28 L 136 28 136 20 L 136 12 128 12 L 120 12 120 20 M 188.450 17.270 C 188.171 17.997, 188.068 25.096, 188.221 33.046 L 188.500 47.500 196.250 47.792 L 204 48.084 204 51.992 L 204 55.900 198.250 56.200 L 192.500 56.500 192.500 70 L 192.500 83.500 206 83.500 L 219.500 83.500 219.799 77.781 L 220.098 72.063 231.799 71.781 L 243.500 71.500 243.500 52 L 243.500 32.500 231.791 32.219 L 220.083 31.937 219.791 24.219 L 219.500 16.500 204.229 16.224 C 192.292 16.008, 188.847 16.236, 188.450 17.270 M 196 32 L 196 40 199.940 40 C 203.770 40, 203.888 39.896, 204.190 36.250 C 204.483 32.704, 204.704 32.483, 208.250 32.190 C 211.896 31.888, 212 31.770, 212 27.940 L 212 24 204 24 L 196 24 196 32 M 36.447 29.276 C 36.166 30.010, 36.062 36.211, 36.218 43.055 L 36.500 55.500 50 55.500 L 63.500 55.500 63.500 42 L 63.500 28.500 50.230 28.221 C 39.889 28.003, 36.847 28.236, 36.447 29.276 M 44 42 L 44 48 50 48 L 56 48 56 42 L 56 36 50 36 L 44 36 44 42 M 212 52 L 212 64 224 64 L 236 64 236 52 L 236 40 224 40 L 212 40 212 52 M 117.035 53.934 C 116.466 54.998, 116 56.951, 116 58.274 C 116 59.809, 115.173 61.056, 113.713 61.721 C 111.834 62.577, 110.932 62.338, 108.657 60.382 C 107.134 59.072, 105.339 58, 104.667 58 C 103.996 58, 100.374 61.096, 96.618 64.881 C 89.374 72.181, 88.905 73.794, 92.960 77.464 C 95.543 79.801, 93.817 84, 90.274 84 C 84.643 84, 84 85.230, 84 96 C 84 106.770, 84.643 108, 90.274 108 C 91.809 108, 93.056 108.827, 93.721 110.287 C 94.577 112.166, 94.338 113.068, 92.382 115.343 C 91.072 116.866, 90 118.661, 90 119.333 C 90 120.004, 93.096 123.626, 96.881 127.382 C 104.181 134.626, 105.794 135.095, 109.464 131.040 C 111.801 128.457, 116 130.183, 116 133.726 C 116 139.357, 117.230 140, 128 140 C 138.770 140, 140 139.357, 140 133.726 C 140 130.183, 144.199 128.457, 146.536 131.040 C 150.206 135.095, 151.819 134.626, 159.119 127.382 C 162.904 123.626, 166 120.004, 166 119.333 C 166 118.661, 164.928 116.866, 163.618 115.343 C 161.662 113.068, 161.423 112.166, 162.279 110.287 C 162.944 108.827, 164.191 108, 165.726 108 C 171.357 108, 172 106.770, 172 96 C 172 85.230, 171.357 84, 165.726 84 C 164.191 84, 162.944 83.173, 162.279 81.713 C 161.423 79.834, 161.662 78.932, 163.618 76.657 C 164.928 75.134, 166 73.339, 166 72.667 C 166 71.996, 162.904 68.374, 159.119 64.618 C 151.819 57.374, 150.206 56.905, 146.536 60.960 C 144.199 63.543, 140 61.817, 140 58.274 C 140 52.643, 138.770 52, 128 52 C 119.206 52, 117.952 52.221, 117.035 53.934 M 125 61.865 C 125 65.155, 121.301 68.573, 115.668 70.488 C 110.403 72.277, 110.077 72.281, 107.472 70.574 C 104.851 68.856, 104.693 68.863, 102.778 70.778 C 100.863 72.693, 100.856 72.851, 102.574 75.472 C 104.281 78.077, 104.277 78.403, 102.488 83.668 C 100.573 89.301, 97.155 93, 93.865 93 C 92.459 93, 92 93.739, 92 96 C 92 98.261, 92.459 99, 93.865 99 C 97.155 99, 100.573 102.699, 102.488 108.332 C 104.277 113.597, 104.281 113.923, 102.574 116.528 C 100.856 119.149, 100.863 119.307, 102.778 121.222 C 104.693 123.137, 104.851 123.144, 107.472 121.426 C 110.077 119.719, 110.403 119.723, 115.668 121.512 C 121.301 123.427, 125 126.845, 125 130.135 C 125 131.541, 125.739 132, 128 132 C 130.261 132, 131 131.541, 131 130.135 C 131 126.845, 134.699 123.427, 140.332 121.512 C 145.597 119.723, 145.923 119.719, 148.528 121.426 C 151.149 123.144, 151.307 123.137, 153.222 121.222 C 155.137 119.307, 155.144 119.149, 153.426 116.528 C 151.719 113.923, 151.723 113.597, 153.512 108.332 C 155.427 102.699, 158.845 99, 162.135 99 C 163.541 99, 164 98.261, 164 96 C 164 93.739, 163.541 93, 162.135 93 C 158.845 93, 155.427 89.301, 153.512 83.668 C 151.723 78.403, 151.719 78.077, 153.426 75.472 C 155.144 72.851, 155.137 72.693, 153.222 70.778 C 151.307 68.863, 151.149 68.856, 148.528 70.574 C 145.923 72.281, 145.597 72.277, 140.332 70.488 C 134.699 68.573, 131 65.155, 131 61.865 C 131 60.459, 130.261 60, 128 60 C 125.739 60, 125 60.459, 125 61.865 M 200 70 L 200 76 206 76 C 211.271 76, 212 75.764, 212 74.060 C 212 72.541, 211.188 72.054, 208.250 71.810 C 204.704 71.517, 204.483 71.296, 204.190 67.750 C 203.946 64.812, 203.459 64, 201.940 64 C 200.236 64, 200 64.729, 200 70 M 28.688 68.646 C 28.309 69.024, 28 74.414, 28 80.625 L 28 91.916 20.250 92.208 L 12.500 92.500 12.500 108 L 12.500 123.500 28 123.500 L 43.500 123.500 43.791 115.781 L 44.083 108.063 55.791 107.781 L 67.500 107.500 67.500 88 L 67.500 68.500 48.438 68.229 C 37.953 68.080, 29.066 68.268, 28.688 68.646 M 119.137 73.369 C 103.196 79.138, 98.738 100.793, 110.972 113.028 C 118.290 120.345, 128.952 122.125, 138.500 117.623 C 144.458 114.813, 147.174 112.048, 149.916 106 C 155.659 93.332, 148.755 76.940, 136.078 73.141 C 131.242 71.693, 123.481 71.797, 119.137 73.369 M 36 88 L 36 100 48 100 L 60 100 60 88 L 60 76 48 76 L 36 76 36 88 M 123.315 81.102 C 118.930 82.371, 114.260 87.322, 112.986 92.053 C 110.150 102.583, 120.159 113.374, 130.894 111.360 C 135.617 110.474, 141.737 104.690, 143.029 99.892 C 145.105 92.182, 139.872 83.258, 131.942 80.983 C 128 79.853, 127.613 79.858, 123.315 81.102 M 20 108 L 20 116 28 116 L 36 116 36 112.060 C 36 108.230, 35.896 108.112, 32.250 107.810 C 28.704 107.517, 28.483 107.296, 28.190 103.750 C 27.888 100.104, 27.770 100, 23.940 100 L 20 100 20 108 M 184.444 125.285 C 184.159 126.027, 184.055 131.330, 184.213 137.068 L 184.500 147.500 196 147.500 L 207.500 147.500 207.500 136 L 207.500 124.500 196.231 124.217 C 187.491 123.998, 184.846 124.237, 184.444 125.285 M 192 136 L 192 140 196 140 L 200 140 200 136 L 200 132 196 132 L 192 132 192 136 M 116 164 L 116 176 120 176 L 124 176 124 164 L 124 152 120 152 L 116 152 116 164 M 132 166 L 132 180 136 180 L 140 180 140 166 L 140 152 136 152 L 132 152 132 166 M 100 176 L 100 196 104 196 L 108 196 108 176 L 108 156 104 156 L 100 156 100 176 M 148 178 L 148 196 152 196 L 156 196 156 178 L 156 160 152 160 L 148 160 148 178 M 116 188 L 116 192 120 192 L 124 192 124 188 L 124 184 120 184 L 116 184 116 188 M 31.529 191.250 C 30.777 193.037, 25.153 206.176, 19.033 220.447 C 12.274 236.209, 8.022 247.397, 8.203 248.947 L 8.500 251.500 128 251.500 L 247.500 251.500 247.797 248.949 C 247.979 247.390, 243.270 235.135, 235.694 217.449 L 223.293 188.500 197.646 188.233 L 172 187.966 172 191.964 L 172 195.962 194.567 196.231 L 217.133 196.500 226.574 218.486 C 231.767 230.579, 236.267 241.266, 236.575 242.236 C 237.107 243.914, 231.803 244, 128 244 C 24.197 244, 18.893 243.914, 19.425 242.236 C 19.733 241.266, 24.233 230.579, 29.426 218.486 L 38.867 196.500 61.433 196.231 L 84 195.962 84 191.981 L 84 188 58.449 188 L 32.898 188 31.529 191.250 M 132 204 L 132 220 136 220 L 140 220 140 204 L 140 188 136 188 L 132 188 132 204 M 39.891 202.750 C 31.672 224.090, 27.970 234.946, 28.209 237 L 28.500 239.500 128 239.500 L 227.500 239.500 227.726 236.500 C 227.857 234.770, 225.306 226.517, 221.698 217 L 215.444 200.500 197.722 200.227 L 180 199.954 180 203.977 L 180 208 194.428 208 L 208.856 208 210.832 213.250 C 211.918 216.137, 213.955 221.537, 215.359 225.250 L 217.910 232 128.063 232 L 38.216 232 42.743 220 L 47.270 208 61.635 208 L 76 208 76 204 L 76 200 58.475 200 L 40.950 200 39.891 202.750 M 116 210 L 116 220 120 220 L 124 220 124 210 L 124 200 120 200 L 116 200 116 210 M 100 208 L 100 212 104 212 L 108 212 108 208 L 108 204 104 204 L 100 204 100 208 M 148 208 L 148 212 152 212 L 156 212 156 208 L 156 204 152 204 L 148 204 148 208" stroke="none" fill="#fffcfc" fill-rule="evenodd"/><path d="" stroke="none" fill="#fcfcfc" fill-rule="evenodd"/></svg>