<svg xmlns="http://www.w3.org/2000/svg" width="256" height="256" viewBox="0 0 256 256" version="1.1"><path d="M 11.400 11.400 L 8 14.800 8 60.032 L 8 105.264 11.571 108.632 L 15.142 112 33.535 112 L 51.928 112 52.214 121.750 L 52.500 131.500 55.500 131.781 C 58.222 132.037, 59.233 131.132, 66.403 122.031 L 74.306 112 89.753 112 L 105.200 112 108.600 108.600 C 111.940 105.260, 112 105.047, 112 96.600 L 112 88 108 88 L 104 88 104 94.429 C 104 103.979, 103.959 104, 85.165 104 L 69.474 104 64.987 109.750 L 60.500 115.500 60 110 L 59.500 104.500 38.712 104 C 21.705 103.591, 17.751 103.227, 16.977 102 C 16.423 101.121, 16.024 83.653, 16.015 59.821 C 16.002 24.161, 16.194 18.949, 17.571 17.571 C 18.949 16.194, 24.190 16, 60 16 C 95.810 16, 101.051 16.194, 102.429 17.571 C 103.531 18.674, 104 21.061, 104 25.571 L 104 32 108 32 L 112 32 112 23.400 C 112 14.953, 111.940 14.740, 108.600 11.400 L 105.200 8 60 8 L 14.800 8 11.400 11.400 M 147.400 11.400 C 144.060 14.740, 144 14.953, 144 23.400 L 144 32 148 32 L 152 32 152 25.571 C 152 21.061, 152.469 18.674, 153.571 17.571 C 154.949 16.194, 160.190 16, 196 16 C 231.810 16, 237.051 16.194, 238.429 17.571 C 239.806 18.949, 239.998 24.161, 239.985 59.821 C 239.976 83.653, 239.577 101.121, 239.023 102 C 238.249 103.227, 234.295 103.591, 217.288 104 L 196.500 104.500 196 110 L 195.500 115.500 191.013 109.750 L 186.526 104 170.835 104 C 152.041 104, 152 103.979, 152 94.429 L 152 88 148 88 L 144 88 144 96.632 C 144 105.234, 144.012 105.275, 147.571 108.632 L 151.142 112 166.418 112 L 181.694 112 189.597 122.031 C 196.767 131.132, 197.778 132.037, 200.500 131.781 L 203.500 131.500 203.786 121.750 L 204.072 112 222.636 112 L 241.200 112 244.600 108.600 L 248 105.200 248 60 L 248 14.800 244.600 11.400 L 241.200 8 196 8 L 150.800 8 147.400 11.400 M 55 29.375 C 55 30.131, 55.275 32.127, 55.612 33.811 C 56.172 36.611, 56.534 36.852, 59.862 36.640 C 63.331 36.420, 63.526 36.213, 64.067 32.204 L 64.634 28 59.817 28 C 56.397 28, 55 28.399, 55 29.375 M 186.073 30.635 C 184.933 32.084, 184 33.854, 184 34.567 C 184 36.179, 180.395 37.446, 176.769 37.108 C 172.112 36.674, 170.192 37.920, 167.043 43.426 C 163.503 49.613, 163.205 53.205, 166 56 C 167.100 57.100, 168 58.900, 168 60 C 168 61.100, 167.100 62.900, 166 64 C 163.205 66.795, 163.503 70.387, 167.043 76.574 C 170.192 82.080, 172.112 83.326, 176.769 82.892 C 180.395 82.554, 184 83.821, 184 85.433 C 184 86.146, 184.933 87.916, 186.073 89.365 C 187.997 91.812, 188.705 92, 196 92 C 203.295 92, 204.003 91.812, 205.927 89.365 C 207.067 87.916, 208 86.146, 208 85.433 C 208 83.757, 211.562 82.606, 216 82.847 C 220.391 83.085, 221.038 82.626, 224.875 76.554 C 228.482 70.846, 228.841 66.841, 226 64 C 224.900 62.900, 224 61.100, 224 60 C 224 58.900, 224.900 57.100, 226 56 C 228.841 53.159, 228.482 49.154, 224.875 43.446 C 221.038 37.374, 220.391 36.915, 216 37.153 C 211.562 37.394, 208 36.243, 208 34.567 C 208 33.854, 207.067 32.084, 205.927 30.635 C 204.003 28.188, 203.295 28, 196 28 C 188.705 28, 187.997 28.188, 186.073 30.635 M 42.250 32.989 C 38.383 35.347, 38.337 35.660, 41.318 39.385 C 43.255 41.805, 43.939 42.093, 45.564 41.168 C 50.257 38.499, 50.245 38.523, 48.625 34.645 C 46.859 30.419, 46.583 30.347, 42.250 32.989 M 71.161 33.547 C 69.438 37.328, 69.707 38.396, 72.854 40.255 C 75.603 41.878, 75.781 41.859, 77.705 39.720 C 81.246 35.784, 81.256 35.126, 77.799 33.019 C 73.506 30.402, 72.559 30.477, 71.161 33.547 M 192.335 38.925 C 190.903 42.717, 182.116 47.404, 178.093 46.520 C 175.837 46.025, 175.155 46.365, 174.200 48.460 C 173.564 49.857, 173.411 51, 173.861 51 C 175.278 51, 177 55.937, 177 60 C 177 64.063, 175.278 69, 173.861 69 C 173.411 69, 173.545 70.101, 174.158 71.448 C 175.056 73.419, 175.801 73.790, 177.984 73.353 C 182.013 72.547, 190.926 77.343, 192.335 81.075 C 193.159 83.260, 194.087 84, 196 84 C 197.913 84, 198.841 83.260, 199.665 81.075 C 201.074 77.343, 209.987 72.547, 214.016 73.353 C 216.199 73.790, 216.944 73.419, 217.842 71.448 C 218.455 70.101, 218.589 69, 218.139 69 C 216.722 69, 215 64.063, 215 60 C 215 55.937, 216.722 51, 218.139 51 C 218.589 51, 218.455 49.899, 217.842 48.552 C 216.944 46.581, 216.199 46.210, 214.016 46.647 C 209.987 47.453, 201.074 42.657, 199.665 38.925 C 198.112 34.810, 193.888 34.810, 192.335 38.925 M 135.490 44.011 L 132.605 47.022 137.011 51.511 L 141.416 56 120.708 56 L 100 56 100 60 L 100 64 120.708 64 L 141.416 64 136.989 68.511 L 132.561 73.023 135.779 76.241 L 138.997 79.459 147.499 71.001 C 153.723 64.809, 156 61.863, 156 60 C 156 58.143, 153.767 55.234, 147.729 49.228 C 143.180 44.703, 139.214 41, 138.916 41 C 138.618 41, 137.076 42.355, 135.490 44.011 M 83.194 44.150 C 80.863 45.643, 80.086 46.744, 80.558 47.884 C 80.926 48.773, 81.453 50.288, 81.730 51.250 C 82.007 52.212, 82.789 53, 83.467 53 C 85.089 53, 91 50.930, 91 50.362 C 91 49.770, 87.022 41.995, 86.730 42.017 C 86.603 42.026, 85.012 42.986, 83.194 44.150 M 30.685 46.534 C 28.371 51.388, 28.458 51.619, 33.037 52.781 C 36.985 53.784, 37.103 53.737, 38.432 50.653 C 39.713 47.682, 39.638 47.370, 37.146 45.255 C 33.571 42.221, 32.655 42.402, 30.685 46.534 M 188.299 47.960 C 179.622 53.250, 179.984 67.838, 188.906 72.451 C 198.654 77.493, 209.987 70.910, 209.996 60.200 C 210.004 51.665, 204.424 46.007, 196 46.007 C 193.297 46.007, 190.222 46.787, 188.299 47.960 M 192.455 56.455 C 191.105 57.805, 190 59.400, 190 60 C 190 61.416, 194.584 66, 196 66 C 197.416 66, 202 61.416, 202 60 C 202 58.584, 197.416 54, 196 54 C 195.400 54, 193.805 55.105, 192.455 56.455 M 84.605 60.299 C 83.433 61.157, 82.943 62.583, 83.164 64.492 C 83.436 66.832, 84.149 67.552, 86.899 68.260 C 90.970 69.307, 91.962 68.232, 91.985 62.750 C 91.999 59.303, 91.773 59, 89.191 59 C 87.646 59, 85.583 59.585, 84.605 60.299 M 28 63.974 C 28 68.622, 29.426 69.691, 33.717 68.261 C 36.037 67.488, 36.500 66.765, 36.500 63.917 C 36.500 60.612, 36.361 60.490, 32.250 60.193 L 28 59.885 28 63.974 M 35.500 75.444 L 32.500 77.878 35.728 81.148 L 38.955 84.417 41.934 81.564 L 44.912 78.710 42.706 75.910 C 39.975 72.444, 39.255 72.397, 35.500 75.444 M 77.750 75.470 C 75.458 78.621, 75.528 79.208, 78.529 82.027 L 81.058 84.403 84.279 81.141 L 87.500 77.878 84.500 75.444 C 80.790 72.434, 79.955 72.437, 77.750 75.470 M 48.128 85.062 C 47.508 86.842, 47 88.637, 47 89.051 C 47 89.862, 52.483 92, 54.561 92 C 55.682 92, 57.735 84.392, 56.849 83.522 C 56.657 83.333, 54.870 82.874, 52.878 82.502 C 49.463 81.864, 49.192 82.010, 48.128 85.062 M 65.142 82.720 C 63.104 83.107, 62.866 83.581, 63.392 86.209 C 63.726 87.881, 64 89.869, 64 90.625 C 64 92.395, 66.180 92.369, 70.539 90.548 L 74.014 89.096 72.322 85.548 C 70.659 82.061, 69.994 81.799, 65.142 82.720 M 36.500 145.896 C 28.627 149.541, 24 156.982, 24 166 C 24 171.832, 25.587 176.184, 29.337 180.631 L 31.977 183.761 26.173 184.181 C 19.656 184.653, 15.680 186.932, 11.248 192.740 L 8.500 196.340 8.203 222.170 L 7.905 248 11.953 248 L 16 248 16.056 225.750 C 16.118 201.479, 16.702 198.021, 21.322 194.594 C 23.997 192.610, 25.363 192.500, 47.427 192.500 L 70.710 192.500 82.344 200.247 C 93.954 207.979, 93.998 207.998, 104.239 209.505 C 119.444 211.742, 120 211.904, 120 214.079 C 120 215.857, 119.181 216, 108.985 216 L 97.969 216 85.886 209.943 C 78.122 206.051, 72.856 203.996, 71.152 204.193 L 68.500 204.500 68.230 226.250 L 67.961 248 71.980 248 L 76 248 76 231.490 L 76 214.980 85.028 219.514 L 94.056 224.048 110.778 223.774 L 127.500 223.500 127.788 214.240 C 128.131 203.185, 129.399 204.122, 110.599 201.541 L 97.698 199.770 85.764 191.885 L 73.831 184 66.827 184 L 59.822 184 62.563 180.750 C 72.434 169.044, 68.508 151.287, 54.782 145.553 C 49.774 143.461, 41.421 143.618, 36.500 145.896 M 198.500 145.896 C 190.627 149.541, 186 156.982, 186 166 C 186 171.839, 187.588 176.185, 191.351 180.647 L 194.005 183.795 185.752 184.147 C 179.189 184.428, 176.860 184.956, 174.373 186.730 C 168.358 191.021, 168 192.995, 168 221.901 L 168 248 171.952 248 L 175.904 248 176.202 222.526 C 176.494 197.542, 176.544 197.008, 178.778 194.776 C 181.035 192.521, 181.300 192.500, 208 192.500 C 234.700 192.500, 234.965 192.521, 237.222 194.776 C 239.456 197.008, 239.506 197.542, 239.798 222.526 L 240.096 248 244.048 248 L 248 248 248 221.838 C 248 195.832, 247.985 195.651, 245.534 191.468 C 242.263 185.887, 238.089 184, 229.010 184 L 221.822 184 224.563 180.750 C 234.434 169.044, 230.508 151.287, 216.782 145.553 C 211.774 143.461, 203.421 143.618, 198.500 145.896 M 41.500 153.530 C 34.685 155.906, 31.221 162.595, 33.163 169.628 C 36.731 182.552, 55.272 182.538, 58.842 169.609 C 61.791 158.931, 52.012 149.865, 41.500 153.530 M 203.500 153.530 C 196.685 155.906, 193.221 162.595, 195.163 169.628 C 198.731 182.552, 217.272 182.538, 220.842 169.609 C 223.791 158.931, 214.012 149.865, 203.500 153.530 M 184 226 L 184 248 188 248 L 192 248 192 226 L 192 204 188 204 L 184 204 184 226 M 224 226 L 224 248 228 248 L 232 248 232 226 L 232 204 228 204 L 224 204 224 226" stroke="none" fill="#fffcfc" fill-rule="evenodd"/><path d="" stroke="none" fill="#fcfcfc" fill-rule="evenodd"/></svg>